<?xml version="1.0" encoding="UTF-8"?>
<svg id="Layer_1" data-name="Layer 1" xmlns="http://www.w3.org/2000/svg" viewBox="0 0 628.22 948.55">
  <defs>
    <style>
      .cls-1 {
        fill: #231f20;
        stroke: #fff;
        stroke-miterlimit: 10;
        stroke-width: 2px;
      }
    </style>
  </defs>
  <path class="cls-1" d="m576.77,242.89c-13.49,0-26.17-5.25-35.7-14.78l-14.02-14.02,8.2-11.45c3.35-6.02,2.32-13.55-2.59-18.45L382.06,33.58l12.69-12.39,5.39-5.4c9.54-9.53,22.21-14.79,35.69-14.79s26.16,5.25,35.69,14.78l140.93,140.93c19.68,19.68,19.68,51.71,0,71.39-9.53,9.53-22.21,14.78-35.69,14.78Z"/>
  <path class="cls-1" d="m600.26,215.9c-6.49,6.49-14.99,9.73-23.48,9.73s-17.01-3.24-23.49-9.73l-2.94-2.94-.73-.73c.1-.14.18-.28.28-.43,7.43-12.54,5.76-29.04-5.02-39.82L406.97,34.07l-.35-.35.36-.35.35-.36,5.02-5.02c12.97-12.97,34-12.97,46.98,0l117.45,117.45,23.48,23.48c12.97,12.97,12.97,34,0,46.98Z"/>
  <path class="cls-1" d="m380.81,856.8c-13.62,0-26.42-5.3-36.05-14.93L15.91,513.03c-9.62-9.62-14.91-22.42-14.91-36.05s5.3-26.43,14.91-36.05L344.75,112.08c9.62-9.62,22.42-14.91,36.05-14.91s26.43,5.29,36.05,14.91l14.72,14.73-17.31,17.78h-.14L95.71,462.99c-6.22,6.22-6.22,16.35,0,22.57l338.75,338.75-17.61,17.57c-9.64,9.62-22.44,14.92-36.04,14.92Z"/>
  <path class="cls-1" d="m409.68,824.65l-5.03,5.02c-6.38,6.37-14.84,9.88-23.85,9.88s-17.48-3.51-23.85-9.88L28.12,500.82c-13.14-13.14-13.14-34.55,0-47.69L356.96,124.29c13.14-13.14,34.54-13.14,47.69,0l2.68,2.68-.35.36h-.01l-.35.35-17.75,17.76-46.98,46.98L83.5,450.79c-12.97,12.97-12.97,34,0,46.98l326.53,326.53-.35.35Z"/>
  <path class="cls-1" d="m435.84,947.55c-13.48,0-26.16-5.25-35.69-14.78l-15.05-15.05,12.38-12.75,135.2-135.2c5.4-5.4,6.03-14,1.5-20.1l-10.7-11.64,12.1-12.06,5.51-5.51c9.54-9.54,22.21-14.79,35.7-14.79s26.16,5.25,35.69,14.79c19.68,19.68,19.68,51.71,0,71.39l-140.93,140.93c-9.54,9.53-22.21,14.79-35.69,14.79Z"/>
  <path class="cls-1" d="m600.26,779.63l-140.93,140.93c-12.97,12.97-34,12.97-46.98,0l-2.31-2.31-.36-.36-.35-.35.35-.36,135.2-135.2c11.73-11.73,12.67-30.21,2.83-43.02-.09-.14-.19-.27-.31-.4l.36-.36,5.53-5.53c12.97-12.97,34-12.97,46.98,0,12.97,12.97,12.97,34,0,46.98Z"/>
  <path class="cls-1" d="m422.91,739.1c-11.51,0-22.33-4.48-30.47-12.62l-20.1-20.1,120.03-120.04c2.18-2.18,2.51-4.73,2.51-6.06s-.33-3.87-2.51-6.06l-66.78-66.78c-16.8-16.8-16.8-44.14,0-60.94l66.78-66.78c2.18-2.18,2.51-4.73,2.51-6.06s-.33-3.87-2.51-6.06l-122.74-122.74,22.8-22.8c8.14-8.14,18.96-12.62,30.47-12.62s22.33,4.48,30.47,12.62l118.43,118.43c8.14,8.14,12.62,18.96,12.62,30.47s-4.48,22.33-12.62,30.47l-66.78,66.78c-2.18,2.18-2.51,4.73-2.51,6.06s.32,3.87,2.51,6.04l66.79,66.79c8.14,8.14,12.62,18.96,12.62,30.47s-4.48,22.33-12.62,30.47l-118.43,118.43c-8.14,8.14-18.96,12.62-30.47,12.62Z"/>
  <path class="cls-1" d="m559.6,559.31c10.09,10.09,10.09,26.44,0,36.53l-118.43,118.43c-10.09,10.09-26.44,10.09-36.53,0l-7.89-7.89,107.82-107.83c10.09-10.09,10.09-26.44,0-36.53l-66.78-66.78c-10.09-10.09-10.09-26.44,0-36.53l66.78-66.78c10.09-10.09,10.09-26.44,0-36.53l-110.53-110.53,10.6-10.6c10.09-10.09,26.44-10.09,36.53,0l118.43,118.43c10.09,10.09,10.09,26.44,0,36.53l-66.78,66.78c-10.09,10.09-10.09,26.44,0,36.52l66.78,66.78Z"/>
  <path class="cls-1" d="m348.29,676.63c-12.52,0-24.47-4.48-33.68-12.6-2.51-2.23-4.7-4.63-6.57-7.17l-6.65-9.04,5.57-9.75c.71-1.25,1.06-2.61,1.06-4.16v-313.89c0-1.92-.55-3.59-1.69-5.11l-6.73-9.05,5.58-9.8c2.44-4.28,5.6-8.15,9.4-11.52,9.22-8.15,21.18-12.63,33.7-12.63,27.64,0,49.29,19.95,49.29,45.41v313.89c0,25.47-21.65,45.41-49.29,45.41Z"/>
  <path class="cls-1" d="m380.32,499.18v132.04c0,25.03-34.25,37.56-54.28,19.87-1.54-1.37-2.92-2.86-4.09-4.46,2.12-3.71,3.34-8,3.34-12.72v-313.89c0-5.91-1.91-11.13-5.1-15.42,1.49-2.61,3.46-5.03,5.84-7.14,6.48-5.72,14.44-8.29,22.26-8.29,16.35,0,32.03,11.21,32.03,28.15v181.85Z"/>
</svg>