<?xml version="1.0" encoding="UTF-8"?>
<svg id="Layer_1" data-name="Layer 1" xmlns="http://www.w3.org/2000/svg" viewBox="0 0 20 20">
  <defs>
    <style>
      .cls-1 {
        fill: #fff;
      }

      .cls-2 {
        fill: #231f20;
        stroke: #fff;
        stroke-miterlimit: 10;
        stroke-width: .09px;
      }
    </style>
  </defs>
  <rect class="cls-1" x=".5" y=".5" width="19" height="19" rx="1.5" ry="1.5"/>
  <g>
    <path class="cls-2" d="M14.96,5.44c-.27,0-.52-.1-.7-.29l-.28-.28,.16-.23c.07-.12,.05-.27-.05-.36l-2.97-2.97,.25-.24,.11-.11c.19-.19,.44-.29,.7-.29s.52,.1,.7,.29l2.78,2.78c.39,.39,.39,1.02,0,1.41-.19,.19-.44,.29-.7,.29Z"/>
    <path class="cls-2" d="M15.42,4.91c-.13,.13-.3,.19-.46,.19s-.34-.06-.46-.19l-.06-.06h-.01s0-.02,0-.02c.15-.25,.11-.57-.1-.78l-2.72-2.72h0s0-.01,0-.01h0s.1-.11,.1-.11c.26-.26,.67-.26,.93,0l2.31,2.31,.46,.46c.26,.26,.26,.67,0,.93Z"/>
    <path class="cls-2" d="M11.1,17.54c-.27,0-.52-.1-.71-.29L3.91,10.76c-.19-.19-.29-.44-.29-.71s.1-.52,.29-.71L10.39,2.86c.19-.19,.44-.29,.71-.29s.52,.1,.71,.29l.29,.29-.34,.35h0l-6.27,6.27c-.12,.12-.12,.32,0,.44l6.67,6.67-.35,.35c-.19,.19-.44,.29-.71,.29Z"/>
    <path class="cls-2" d="M11.67,16.9l-.1,.1c-.13,.13-.29,.19-.47,.19s-.34-.07-.47-.19l-6.48-6.48c-.26-.26-.26-.68,0-.94L10.63,3.1c.26-.26,.68-.26,.94,0l.05,.05h0s0,0,0,0h0s-.35,.36-.35,.36l-.93,.93-5.09,5.09c-.26,.26-.26,.67,0,.93l6.43,6.43h0Z"/>
    <path class="cls-2" d="M12.18,19.32c-.27,0-.52-.1-.7-.29l-.3-.3,.24-.25,2.66-2.66c.11-.11,.12-.28,.03-.4l-.21-.23,.24-.24,.11-.11c.19-.19,.44-.29,.7-.29s.52,.1,.7,.29c.39,.39,.39,1.02,0,1.41l-2.78,2.78c-.19,.19-.44,.29-.7,.29Z"/>
    <path class="cls-2" d="M15.42,16.02l-2.78,2.78c-.26,.26-.67,.26-.93,0l-.05-.05h0s0-.01,0-.01h0s2.66-2.67,2.66-2.67c.23-.23,.25-.6,.06-.85,0,0,0,0,0,0h0s.11-.12,.11-.12c.26-.26,.67-.26,.93,0s.26,.67,0,.93Z"/>
    <path class="cls-2" d="M11.93,15.22c-.23,0-.44-.09-.6-.25l-.4-.4,2.36-2.36s.05-.09,.05-.12,0-.08-.05-.12l-1.32-1.32c-.33-.33-.33-.87,0-1.2l1.32-1.32s.05-.09,.05-.12,0-.08-.05-.12l-2.42-2.42,.45-.45c.16-.16,.37-.25,.6-.25s.44,.09,.6,.25l2.33,2.33c.16,.16,.25,.37,.25,.6s-.09,.44-.25,.6l-1.32,1.32s-.05,.09-.05,.12,0,.08,.05,.12l1.32,1.32c.16,.16,.25,.37,.25,.6s-.09,.44-.25,.6l-2.33,2.33c-.16,.16-.37,.25-.6,.25Z"/>
    <path class="cls-2" d="M14.62,11.68c.2,.2,.2,.52,0,.72l-2.33,2.33c-.2,.2-.52,.2-.72,0l-.16-.16,2.12-2.12c.2-.2,.2-.52,0-.72l-1.32-1.32c-.2-.2-.2-.52,0-.72l1.32-1.32c.2-.2,.2-.52,0-.72l-2.18-2.18,.21-.21c.2-.2,.52-.2,.72,0l2.33,2.33c.2,.2,.2,.52,0,.72l-1.32,1.32c-.2,.2-.2,.52,0,.72l1.32,1.32Z"/>
    <path class="cls-2" d="M10.46,13.99c-.25,0-.48-.09-.66-.25-.05-.04-.09-.09-.13-.14l-.13-.18,.11-.19s.02-.05,.02-.08V6.96s-.01-.07-.03-.1l-.13-.18,.11-.19c.05-.08,.11-.16,.19-.23,.18-.16,.42-.25,.66-.25,.54,0,.97,.39,.97,.89v6.18c0,.5-.43,.89-.97,.89Z"/>
    <path class="cls-2" d="M11.09,10.49v2.6c0,.49-.67,.74-1.07,.39-.03-.03-.06-.06-.08-.09,.04-.07,.07-.16,.07-.25V6.96c0-.12-.04-.22-.1-.3,.03-.05,.07-.1,.12-.14,.13-.11,.28-.16,.44-.16,.32,0,.63,.22,.63,.55v3.58Z"/>
  </g>
</svg>