<?xml version="1.0" encoding="UTF-8"?>
<svg id="Layer_1" data-name="Layer 1" xmlns="http://www.w3.org/2000/svg" viewBox="0 0 20 20">
  <defs>
    <style>
      .cls-1, .cls-2 {
        fill: #fff;
      }

      .cls-3 {
        fill: #c1272d;
      }

      .cls-2, .cls-4, .cls-5 {
        stroke: #231f20;
        stroke-miterlimit: 10;
      }

      .cls-2, .cls-5 {
        stroke-width: .02px;
      }

      .cls-4 {
        stroke-width: .04px;
      }

      .cls-4, .cls-5 {
        fill: #231f20;
      }
    </style>
  </defs>
  <rect class="cls-3" x=".5" y=".5" width="19" height="19" rx="1.5" ry="1.5"/>
  <g>
    <path class="cls-4" d="M15.18,12.37l-2.36,2.36c-.2,.2-.53,.2-.73,0l-.3-.3c-.2-.2-.2-.53,0-.73l1.33-1.33c.2-.2,.2-.53,0-.73l-1.33-1.33c-.2-.2-.2-.53,0-.73l1.33-1.33c.2-.2,.2-.53,0-.73l-1.33-1.33c-.2-.2-.2-.53,0-.73l.3-.3c.2-.2,.53-.2,.73,0l2.36,2.36c.2,.2,.2,.53,0,.73l-1.33,1.33c-.2,.2-.2,.53,0,.73l1.33,1.33c.2,.2,.2,.53,0,.73Z"/>
    <path class="cls-4" d="M10.83,6.87v6.25c0,.5-.68,.75-1.08,.4h0c-.12-.1-.19-.25-.19-.4V6.87c0-.15,.07-.29,.19-.4h0c.4-.35,1.08-.1,1.08,.4Z"/>
    <g>
      <path class="cls-5" d="M15.33,15.09h0c.26,.26,.26,.68,0,.94l-2.81,2.81c-.26,.26-.68,.26-.94,0L3.16,10.41c-.26-.26-.26-.68,0-.94l5.15-5.15,.94-.94,2.34-2.34c.26-.26,.68-.26,.94,0l2.34,2.34,.47,.47c.26,.26,.26,.68,0,.94h0c-.26,.26-.68,.26-.94,0l-.47-.47-.94-.94-.47-.47c-.26-.26-.68-.26-.94,0l-.47,.47-.94,.94-5.15,5.15c-.26,.26-.26,.68,0,.94l6.55,6.55c.26,.26,.68,.26,.94,0l1.87-1.87c.26-.26,.68-.26,.94,0Z"/>
      <path class="cls-5" d="M15.39,15.15s0,0,0,0c0,0,0,0,0,0-.01-.02-.03-.03-.04-.05-.13-.13-.3-.2-.48-.2s-.35,.07-.48,.2l-1.76,1.76h0s-.1,.11-.1,.11c-.12,.12-.29,.19-.46,.19s-.34-.07-.46-.19l-6.55-6.55c-.25-.25-.25-.67,0-.92L11.59,2.93c.25-.25,.67-.25,.92,0l.05,.05h0s1.81,1.82,1.81,1.82c.13,.13,.3,.2,.48,.2s.35-.07,.48-.2c.03-.03,.06-.07,.09-.11,0,0,0,0,0,0,0,0,0,0,0,0,.16-.26,.12-.6-.1-.82l-2.75-2.75h0s0-.01,0-.01l-.05-.05c-.26-.26-.69-.26-.95,0L3.15,9.47c-.26,.26-.26,.69,0,.95l8.42,8.42c.13,.13,.3,.2,.48,.2s.34-.07,.48-.2l.1-.1h0s0-.01,0-.01l2.69-2.69c.24-.24,.26-.62,.06-.89Zm-2.77,3.57l-.11,.11c-.25,.25-.67,.25-.92,0L3.17,10.41c-.25-.25-.25-.67,0-.92L11.59,1.06c.13-.13,.29-.19,.46-.19s.33,.06,.46,.19l2.81,2.81c.21,.21,.25,.54,.1,.79,0,0,0,0,0,0,0,0,0,0,0,0-.02,.04-.05,.08-.09,.11-.12,.12-.29,.19-.46,.19s-.34-.07-.46-.19l-1.87-1.87c-.26-.26-.69-.26-.95,0l-6.55,6.55c-.26,.26-.26,.69,0,.95l6.55,6.55c.13,.13,.3,.2,.48,.2s.35-.07,.48-.2l.1-.1h0s1.76-1.77,1.76-1.77c.25-.25,.67-.25,.92,0,.02,.02,.03,.03,.04,.05,0,0,0,0,0,0,0,0,0,0,0,0,.2,.26,.18,.62-.06,.86l-2.69,2.69h0Z"/>
    </g>
    <g>
      <path class="cls-2" d="M15.65,12.48l-2.36,2.36c-.2,.2-.53,.2-.73,0l-.3-.3c-.2-.2-.2-.53,0-.73l1.33-1.33c.2-.2,.2-.53,0-.73l-1.33-1.33c-.2-.2-.2-.53,0-.73l1.33-1.33c.2-.2,.2-.53,0-.73l-1.33-1.33c-.2-.2-.2-.53,0-.73l.3-.3c.2-.2,.53-.2,.73,0l2.36,2.36c.2,.2,.2,.53,0,.73l-1.33,1.33c-.2,.2-.2,.53,0,.73l1.33,1.33c.2,.2,.2,.53,0,.73Z"/>
      <path class="cls-2" d="M11.29,6.98v6.25c0,.5-.68,.75-1.08,.4h0c-.12-.1-.19-.25-.19-.4V6.98c0-.15,.07-.29,.19-.4h0c.4-.35,1.08-.1,1.08,.4Z"/>
      <g>
        <path class="cls-1" d="M15.8,15.2h0c.26,.26,.26,.68,0,.94l-2.81,2.81c-.26,.26-.68,.26-.94,0L3.63,10.52c-.26-.26-.26-.68,0-.94l5.15-5.15,.94-.94,2.34-2.34c.26-.26,.68-.26,.94,0l2.34,2.34,.47,.47c.26,.26,.26,.68,0,.94h0c-.26,.26-.68,.26-.94,0l-.47-.47-.94-.94-.47-.47c-.26-.26-.68-.26-.94,0l-.47,.47-.94,.94-5.15,5.15c-.26,.26-.26,.68,0,.94l6.55,6.55c.26,.26,.68,.26,.94,0l1.87-1.87c.26-.26,.68-.26,.94,0Z"/>
        <path class="cls-1" d="M15.33,15c-.18,0-.35,.07-.48,.2l-.1,.1h0s0,.01,0,.01l-1.76,1.76c-.12,.12-.29,.19-.46,.19s-.34-.07-.46-.19l-.05-.05h0s-6.5-6.51-6.5-6.51c-.25-.25-.25-.67,0-.92L11.94,3.15h0s0-.01,0-.01l.1-.1c.25-.25,.67-.25,.92,0l1.82,1.82,.06,.06c.13,.13,.3,.2,.48,.2s.35-.07,.48-.2c.26-.26,.26-.69,0-.95l-2.81-2.81c-.26-.26-.69-.26-.95,0l-.1,.1h0S3.62,9.58,3.62,9.58c-.26,.26-.26,.69,0,.95l8.36,8.36,.06,.06c.13,.13,.3,.2,.48,.2s.34-.07,.48-.2l2.81-2.81c.26-.26,.26-.69,0-.95-.13-.13-.3-.2-.48-.2Zm-3.27,3.94l-.06-.06L3.63,10.51c-.25-.25-.25-.67,0-.92L11.94,1.28h0s0-.01,0-.01l.1-.1c.13-.13,.29-.19,.46-.19s.33,.06,.46,.19l2.81,2.81c.25,.25,.25,.67,0,.92-.12,.12-.29,.19-.46,.19s-.34-.07-.46-.19l-.07-.07h0s-1.8-1.8-1.8-1.8c-.26-.26-.69-.26-.95,0l-.1,.1h0s-6.45,6.45-6.45,6.45c-.26,.26-.26,.69,0,.95l6.5,6.5h0s.05,.05,.05,.05c.13,.13,.3,.2,.48,.2s.35-.07,.48-.2l1.76-1.76h0s.1-.11,.1-.11c.25-.25,.67-.25,.92,0s.25,.67,0,.92l-2.81,2.81c-.25,.25-.67,.25-.92,0Z"/>
      </g>
    </g>
  </g>
</svg>