<svg xmlns="http://www.w3.org/2000/svg" xmlns:xlink="http://www.w3.org/1999/xlink" width="1000" zoomAndPan="magnify" viewBox="0 0 750 749.999995" height="1000" preserveAspectRatio="xMidYMid meet" version="1.0"><path fill="#ff3131" d="M 375 0 C 368.863281 0 362.730469 0.152344 356.597656 0.453125 C 350.46875 0.753906 344.351562 1.203125 338.242188 1.804688 C 332.136719 2.40625 326.046875 3.160156 319.976562 4.058594 C 313.90625 4.960938 307.859375 6.007812 301.839844 7.207031 C 295.820312 8.402344 289.835938 9.746094 283.882812 11.238281 C 277.929688 12.730469 272.015625 14.367188 266.144531 16.148438 C 260.269531 17.929688 254.445312 19.851562 248.667969 21.921875 C 242.886719 23.988281 237.164062 26.195312 231.492188 28.546875 C 225.824219 30.894531 220.214844 33.378906 214.667969 36.003906 C 209.117188 38.628906 203.640625 41.386719 198.226562 44.28125 C 192.8125 47.171875 187.476562 50.195312 182.210938 53.351562 C 176.949219 56.507812 171.765625 59.789062 166.660156 63.199219 C 161.558594 66.609375 156.542969 70.140625 151.613281 73.796875 C 146.683594 77.453125 141.847656 81.226562 137.101562 85.121094 C 132.359375 89.015625 127.710938 93.023438 123.164062 97.144531 C 118.617188 101.265625 114.175781 105.496094 109.835938 109.835938 C 105.496094 114.175781 101.265625 118.617188 97.144531 123.164062 C 93.023438 127.710938 89.015625 132.359375 85.121094 137.101562 C 81.226562 141.847656 77.453125 146.683594 73.796875 151.613281 C 70.140625 156.542969 66.609375 161.558594 63.199219 166.660156 C 59.789062 171.765625 56.507812 176.949219 53.351562 182.210938 C 50.195312 187.476562 47.171875 192.8125 44.28125 198.226562 C 41.386719 203.640625 38.628906 209.117188 36.003906 214.667969 C 33.378906 220.214844 30.894531 225.824219 28.546875 231.492188 C 26.195312 237.164062 23.988281 242.886719 21.921875 248.667969 C 19.851562 254.445312 17.929688 260.269531 16.148438 266.144531 C 14.367188 272.015625 12.730469 277.929688 11.238281 283.882812 C 9.746094 289.835938 8.402344 295.820312 7.207031 301.839844 C 6.007812 307.859375 4.960938 313.90625 4.058594 319.976562 C 3.160156 326.046875 2.40625 332.136719 1.804688 338.242188 C 1.203125 344.351562 0.753906 350.46875 0.453125 356.597656 C 0.152344 362.730469 0 368.863281 0 375 C 0 381.136719 0.152344 387.269531 0.453125 393.402344 C 0.753906 399.53125 1.203125 405.648438 1.804688 411.757812 C 2.40625 417.863281 3.160156 423.953125 4.058594 430.023438 C 4.960938 436.09375 6.007812 442.140625 7.207031 448.160156 C 8.402344 454.179688 9.746094 460.164062 11.238281 466.117188 C 12.730469 472.070312 14.367188 477.984375 16.148438 483.855469 C 17.929688 489.730469 19.851562 495.554688 21.921875 501.332031 C 23.988281 507.113281 26.195312 512.835938 28.546875 518.507812 C 30.894531 524.175781 33.378906 529.785156 36.003906 535.332031 C 38.628906 540.882812 41.386719 546.359375 44.28125 551.773438 C 47.171875 557.1875 50.195312 562.523438 53.351562 567.789062 C 56.507812 573.050781 59.789062 578.234375 63.199219 583.339844 C 66.609375 588.441406 70.140625 593.457031 73.796875 598.386719 C 77.453125 603.316406 81.226562 608.152344 85.121094 612.898438 C 89.015625 617.640625 93.023438 622.289062 97.144531 626.835938 C 101.265625 631.382812 105.496094 635.824219 109.835938 640.164062 C 114.175781 644.503906 118.617188 648.734375 123.164062 652.855469 C 127.710938 656.976562 132.359375 660.984375 137.101562 664.878906 C 141.847656 668.773438 146.683594 672.546875 151.613281 676.203125 C 156.542969 679.859375 161.558594 683.390625 166.660156 686.800781 C 171.765625 690.210938 176.949219 693.492188 182.210938 696.648438 C 187.476562 699.804688 192.8125 702.828125 198.226562 705.71875 C 203.640625 708.613281 209.117188 711.371094 214.667969 713.996094 C 220.214844 716.621094 225.824219 719.105469 231.492188 721.453125 C 237.164062 723.804688 242.886719 726.011719 248.667969 728.078125 C 254.445312 730.148438 260.269531 732.070312 266.144531 733.851562 C 272.015625 735.632812 277.929688 737.269531 283.882812 738.761719 C 289.835938 740.253906 295.820312 741.597656 301.839844 742.792969 C 307.859375 743.992188 313.90625 745.039062 319.976562 745.941406 C 326.046875 746.839844 332.136719 747.59375 338.242188 748.195312 C 344.351562 748.796875 350.46875 749.246094 356.597656 749.546875 C 362.730469 749.847656 368.863281 750 375 750 C 381.136719 750 387.269531 749.847656 393.398438 749.546875 C 399.53125 749.246094 405.648438 748.796875 411.757812 748.195312 C 417.863281 747.59375 423.953125 746.839844 430.023438 745.941406 C 436.09375 745.039062 442.140625 743.992188 448.160156 742.792969 C 454.179688 741.597656 460.164062 740.253906 466.117188 738.761719 C 472.070312 737.269531 477.984375 735.632812 483.855469 733.851562 C 489.730469 732.070312 495.554688 730.144531 501.332031 728.078125 C 507.113281 726.011719 512.835938 723.804688 518.507812 721.453125 C 524.175781 719.105469 529.785156 716.621094 535.332031 713.996094 C 540.882812 711.371094 546.359375 708.613281 551.773438 705.71875 C 557.1875 702.828125 562.523438 699.804688 567.789062 696.648438 C 573.050781 693.492188 578.234375 690.210938 583.339844 686.800781 C 588.441406 683.390625 593.457031 679.859375 598.386719 676.203125 C 603.316406 672.546875 608.152344 668.773438 612.898438 664.878906 C 617.640625 660.984375 622.289062 656.976562 626.835938 652.855469 C 631.382812 648.734375 635.824219 644.503906 640.164062 640.164062 C 644.503906 635.824219 648.734375 631.382812 652.855469 626.835938 C 656.976562 622.289062 660.984375 617.640625 664.878906 612.898438 C 668.773438 608.152344 672.546875 603.316406 676.203125 598.386719 C 679.859375 593.457031 683.390625 588.441406 686.800781 583.339844 C 690.210938 578.234375 693.492188 573.050781 696.648438 567.789062 C 699.804688 562.523438 702.828125 557.1875 705.71875 551.773438 C 708.613281 546.359375 711.371094 540.882812 713.996094 535.332031 C 716.621094 529.785156 719.105469 524.175781 721.453125 518.507812 C 723.804688 512.835938 726.011719 507.113281 728.078125 501.332031 C 730.144531 495.554688 732.070312 489.730469 733.851562 483.855469 C 735.632812 477.984375 737.269531 472.070312 738.761719 466.117188 C 740.253906 460.164062 741.597656 454.179688 742.792969 448.160156 C 743.992188 442.140625 745.039062 436.09375 745.941406 430.023438 C 746.839844 423.953125 747.59375 417.863281 748.195312 411.757812 C 748.796875 405.648438 749.246094 399.53125 749.546875 393.402344 C 749.847656 387.269531 750 381.136719 750 375 C 750 368.863281 749.847656 362.730469 749.546875 356.601562 C 749.246094 350.472656 748.792969 344.351562 748.191406 338.246094 C 747.585938 332.136719 746.835938 326.050781 745.933594 319.976562 C 745.035156 313.90625 743.984375 307.863281 742.785156 301.84375 C 741.589844 295.824219 740.242188 289.839844 738.753906 283.886719 C 737.261719 277.933594 735.625 272.019531 733.84375 266.148438 C 732.058594 260.277344 730.136719 254.449219 728.066406 248.671875 C 726 242.894531 723.792969 237.171875 721.441406 231.5 C 719.09375 225.832031 716.605469 220.222656 713.984375 214.675781 C 711.359375 209.128906 708.601562 203.648438 705.707031 198.234375 C 702.8125 192.824219 699.789062 187.484375 696.632812 182.222656 C 693.480469 176.957031 690.195312 171.773438 686.785156 166.671875 C 683.375 161.570312 679.84375 156.554688 676.1875 151.625 C 672.53125 146.695312 668.757812 141.859375 664.863281 137.113281 C 660.972656 132.371094 656.964844 127.726562 652.84375 123.179688 C 648.722656 118.632812 644.492188 114.1875 640.152344 109.847656 C 635.8125 105.507812 631.367188 101.277344 626.820312 97.15625 C 622.273438 93.035156 617.628906 89.027344 612.886719 85.136719 C 608.140625 81.242188 603.304688 77.46875 598.375 73.8125 C 593.445312 70.15625 588.429688 66.621094 583.328125 63.214844 C 578.226562 59.804688 573.042969 56.519531 567.777344 53.367188 C 562.515625 50.210938 557.175781 47.1875 551.765625 44.292969 C 546.351562 41.398438 540.871094 38.640625 535.324219 36.015625 C 529.777344 33.394531 524.167969 30.90625 518.5 28.558594 C 512.828125 26.207031 507.105469 24 501.328125 21.933594 C 495.550781 19.863281 489.722656 17.941406 483.851562 16.15625 C 477.980469 14.375 472.066406 12.738281 466.113281 11.246094 C 460.160156 9.757812 454.175781 8.410156 448.15625 7.214844 C 442.136719 6.015625 436.09375 4.964844 430.023438 4.066406 C 423.949219 3.164062 417.863281 2.414062 411.753906 1.808594 C 405.648438 1.207031 399.527344 0.753906 393.398438 0.453125 C 387.269531 0.152344 381.136719 0 375 0 Z M 375 140.625 C 377.21875 140.625 379.433594 140.6875 381.648438 140.8125 C 383.863281 140.941406 386.074219 141.132812 388.277344 141.386719 C 390.480469 141.640625 392.675781 141.960938 394.863281 142.34375 C 397.046875 142.726562 399.21875 143.167969 401.378906 143.675781 C 403.539062 144.183594 405.683594 144.753906 407.808594 145.386719 C 409.933594 146.019531 412.042969 146.710938 414.128906 147.464844 C 416.214844 148.21875 418.277344 149.03125 420.316406 149.902344 C 422.355469 150.777344 424.371094 151.707031 426.355469 152.699219 C 428.339844 153.6875 430.296875 154.734375 432.222656 155.835938 C 434.144531 156.9375 436.039062 158.097656 437.894531 159.308594 C 439.753906 160.519531 441.574219 161.785156 443.359375 163.101562 C 445.144531 164.417969 446.890625 165.789062 448.597656 167.207031 C 450.300781 168.625 451.964844 170.089844 453.585938 171.605469 C 455.207031 173.121094 456.785156 174.679688 458.3125 176.285156 C 459.84375 177.890625 461.328125 179.539062 462.761719 181.234375 C 464.199219 182.925781 465.582031 184.65625 466.917969 186.425781 C 468.253906 188.199219 469.535156 190.007812 470.765625 191.855469 C 471.996094 193.699219 473.171875 195.582031 474.292969 197.496094 C 475.417969 199.410156 476.480469 201.355469 477.492188 203.328125 C 478.5 205.304688 479.449219 207.308594 480.34375 209.339844 C 481.238281 211.371094 482.070312 213.425781 482.84375 215.503906 C 483.621094 217.582031 484.332031 219.683594 484.984375 221.800781 C 485.636719 223.921875 486.230469 226.058594 486.757812 228.214844 C 487.289062 230.371094 487.753906 232.539062 488.15625 234.71875 C 488.5625 236.898438 488.902344 239.089844 489.179688 241.292969 C 489.453125 243.492188 489.667969 245.699219 489.816406 247.914062 C 489.964844 250.128906 490.050781 252.34375 490.070312 254.5625 C 490.09375 256.78125 490.050781 258.996094 489.941406 261.214844 C 489.835938 263.429688 489.664062 265.640625 489.425781 267.847656 C 489.191406 270.050781 488.894531 272.25 488.53125 274.4375 C 488.167969 276.628906 487.742188 278.804688 487.253906 280.96875 C 486.765625 283.132812 486.214844 285.28125 485.601562 287.410156 C 484.988281 289.542969 484.316406 291.65625 483.582031 293.75 C 482.847656 295.84375 482.050781 297.914062 481.195312 299.960938 C 480.34375 302.007812 479.429688 304.027344 478.457031 306.023438 C 477.484375 308.015625 476.457031 309.980469 475.371094 311.917969 C 474.285156 313.851562 473.144531 315.753906 471.949219 317.621094 C 470.753906 319.492188 469.507812 321.324219 468.203125 323.121094 C 466.902344 324.917969 465.550781 326.675781 464.148438 328.394531 C 462.746094 330.113281 461.292969 331.789062 459.792969 333.421875 C 458.292969 335.054688 456.746094 336.644531 455.15625 338.191406 C 453.5625 339.734375 451.925781 341.234375 450.246094 342.683594 C 448.570312 344.132812 446.851562 345.535156 445.089844 346.886719 C 443.332031 348.234375 441.53125 349.535156 439.699219 350.78125 C 437.863281 352.027344 435.992188 353.222656 434.089844 354.359375 C 432.183594 355.5 430.25 356.582031 428.28125 357.609375 C 426.316406 358.632812 424.320312 359.601562 422.300781 360.515625 C 420.277344 361.425781 418.230469 362.277344 416.15625 363.070312 C 414.085938 363.863281 411.992188 364.59375 409.878906 365.265625 C 407.761719 365.9375 405.632812 366.546875 403.480469 367.097656 C 401.332031 367.644531 399.167969 368.128906 396.988281 368.554688 C 394.8125 368.976562 392.625 369.335938 390.425781 369.632812 C 388.226562 369.929688 386.023438 370.160156 383.808594 370.332031 C 381.597656 370.5 379.382812 370.605469 377.164062 370.644531 C 374.945312 370.683594 372.730469 370.660156 370.511719 370.574219 C 368.296875 370.488281 366.082031 370.335938 363.875 370.121094 C 361.667969 369.902344 359.46875 369.625 357.273438 369.28125 C 355.082031 368.9375 352.902344 368.53125 350.734375 368.0625 C 348.566406 367.59375 346.414062 367.0625 344.277344 366.46875 C 342.136719 365.875 340.019531 365.21875 337.921875 364.503906 C 335.820312 363.789062 333.742188 363.011719 331.6875 362.175781 C 329.632812 361.339844 327.605469 360.441406 325.601562 359.488281 C 323.597656 358.535156 321.625 357.523438 319.679688 356.457031 C 317.738281 355.386719 315.824219 354.265625 313.945312 353.085938 C 217.382812 291.914062 259.21875 141.796875 375 140.625 Z M 509.882812 609.375 L 240.117188 609.375 C 238.726562 609.371094 237.335938 609.335938 235.945312 609.265625 C 234.558594 609.195312 233.171875 609.089844 231.789062 608.949219 C 230.402344 608.8125 229.023438 608.640625 227.648438 608.433594 C 226.273438 608.226562 224.902344 607.988281 223.539062 607.714844 C 222.175781 607.4375 220.820312 607.132812 219.46875 606.792969 C 218.121094 606.453125 216.78125 606.078125 215.453125 605.675781 C 214.121094 605.269531 212.800781 604.832031 211.492188 604.359375 C 210.183594 603.890625 208.886719 603.386719 207.601562 602.851562 C 206.316406 602.320312 205.046875 601.753906 203.789062 601.15625 C 202.535156 600.5625 201.292969 599.933594 200.066406 599.277344 C 198.839844 598.621094 197.632812 597.933594 196.4375 597.21875 C 195.246094 596.5 194.074219 595.757812 192.917969 594.984375 C 191.761719 594.207031 190.625 593.40625 189.507812 592.578125 C 188.390625 591.746094 187.296875 590.890625 186.222656 590.007812 C 185.148438 589.125 184.09375 588.214844 183.066406 587.28125 C 182.035156 586.34375 181.03125 585.386719 180.046875 584.402344 C 179.0625 583.417969 178.105469 582.410156 177.171875 581.378906 C 176.238281 580.347656 175.332031 579.292969 174.449219 578.21875 C 173.566406 577.144531 172.710938 576.046875 171.882812 574.929688 C 171.054688 573.8125 170.257812 572.671875 169.484375 571.515625 C 168.710938 570.359375 167.96875 569.183594 167.253906 567.992188 C 166.539062 566.796875 165.851562 565.589844 165.199219 564.363281 C 164.542969 563.132812 163.917969 561.890625 163.324219 560.636719 C 162.726562 559.378906 162.164062 558.105469 161.632812 556.820312 C 161.101562 555.535156 160.601562 554.238281 160.132812 552.929688 C 159.664062 551.617188 159.226562 550.296875 158.824219 548.96875 C 158.417969 547.636719 158.046875 546.296875 157.710938 544.949219 C 157.371094 543.597656 157.066406 542.242188 156.796875 540.878906 C 156.523438 539.511719 156.285156 538.144531 156.082031 536.765625 C 155.875 535.390625 155.707031 534.011719 155.570312 532.628906 C 155.433594 531.242188 155.328125 529.855469 155.261719 528.46875 C 155.191406 527.078125 155.15625 525.6875 155.15625 524.296875 C 155.15625 452.226562 208.242188 390 284.414062 361.992188 C 285.980469 363.316406 287.574219 364.609375 289.199219 365.863281 C 290.820312 367.117188 292.472656 368.335938 294.148438 369.519531 C 295.824219 370.703125 297.527344 371.847656 299.253906 372.957031 C 300.980469 374.066406 302.730469 375.136719 304.507812 376.167969 C 306.28125 377.199219 308.074219 378.191406 309.894531 379.144531 C 311.710938 380.097656 313.546875 381.007812 315.40625 381.878906 C 317.261719 382.75 319.140625 383.582031 321.035156 384.371094 C 322.925781 385.160156 324.835938 385.910156 326.765625 386.617188 C 328.691406 387.320312 330.632812 387.984375 332.589844 388.605469 C 334.542969 389.226562 336.511719 389.800781 338.496094 390.335938 C 340.476562 390.871094 342.46875 391.359375 344.472656 391.808594 C 346.472656 392.253906 348.484375 392.65625 350.503906 393.015625 C 352.527344 393.375 354.554688 393.6875 356.589844 393.957031 C 358.621094 394.226562 360.660156 394.449219 362.707031 394.632812 C 364.75 394.8125 366.796875 394.945312 368.847656 395.035156 C 370.898438 395.125 372.949219 395.171875 375 395.171875 C 377.050781 395.171875 379.101562 395.125 381.152344 395.035156 C 383.203125 394.945312 385.25 394.8125 387.292969 394.632812 C 389.339844 394.453125 391.378906 394.226562 393.410156 393.957031 C 395.445312 393.6875 397.472656 393.375 399.496094 393.015625 C 401.515625 392.65625 403.527344 392.253906 405.527344 391.808594 C 407.53125 391.359375 409.523438 390.871094 411.503906 390.335938 C 413.488281 389.800781 415.457031 389.226562 417.410156 388.605469 C 419.367188 387.984375 421.308594 387.320312 423.234375 386.617188 C 425.164062 385.910156 427.074219 385.160156 428.964844 384.371094 C 430.859375 383.582031 432.738281 382.75 434.59375 381.878906 C 436.453125 381.007812 438.289062 380.097656 440.105469 379.144531 C 441.925781 378.191406 443.71875 377.199219 445.492188 376.167969 C 447.269531 375.136719 449.019531 374.066406 450.746094 372.957031 C 452.472656 371.847656 454.175781 370.703125 455.851562 369.519531 C 457.527344 368.335938 459.179688 367.117188 460.800781 365.863281 C 462.425781 364.609375 464.019531 363.316406 465.585938 361.992188 C 541.757812 390 594.84375 452.226562 594.84375 524.296875 C 594.84375 525.6875 594.808594 527.078125 594.738281 528.46875 C 594.671875 529.855469 594.566406 531.242188 594.429688 532.628906 C 594.292969 534.011719 594.125 535.390625 593.917969 536.765625 C 593.714844 538.144531 593.476562 539.511719 593.203125 540.878906 C 592.933594 542.242188 592.628906 543.597656 592.289062 544.949219 C 591.953125 546.296875 591.582031 547.636719 591.175781 548.96875 C 590.773438 550.296875 590.335938 551.617188 589.867188 552.929688 C 589.398438 554.238281 588.898438 555.535156 588.367188 556.820312 C 587.835938 558.105469 587.269531 559.378906 586.675781 560.632812 C 586.082031 561.890625 585.457031 563.132812 584.800781 564.359375 C 584.148438 565.589844 583.460938 566.796875 582.746094 567.992188 C 582.03125 569.183594 581.289062 570.359375 580.515625 571.515625 C 579.742188 572.671875 578.945312 573.8125 578.117188 574.929688 C 577.289062 576.046875 576.433594 577.144531 575.550781 578.21875 C 574.667969 579.292969 573.761719 580.347656 572.828125 581.378906 C 571.894531 582.410156 570.9375 583.417969 569.953125 584.402344 C 568.96875 585.386719 567.964844 586.34375 566.933594 587.28125 C 565.90625 588.214844 564.851562 589.125 563.777344 590.007812 C 562.703125 590.890625 561.609375 591.746094 560.492188 592.578125 C 559.375 593.40625 558.238281 594.207031 557.082031 594.984375 C 555.925781 595.757812 554.753906 596.5 553.5625 597.21875 C 552.367188 597.933594 551.160156 598.621094 549.933594 599.277344 C 548.707031 599.933594 547.464844 600.5625 546.210938 601.15625 C 544.953125 601.753906 543.683594 602.320312 542.398438 602.851562 C 541.113281 603.386719 539.816406 603.890625 538.507812 604.359375 C 537.199219 604.832031 535.878906 605.269531 534.546875 605.675781 C 533.21875 606.078125 531.878906 606.453125 530.53125 606.792969 C 529.179688 607.132812 527.824219 607.4375 526.460938 607.714844 C 525.097656 607.988281 523.726562 608.226562 522.351562 608.433594 C 520.976562 608.640625 519.597656 608.8125 518.210938 608.949219 C 516.828125 609.089844 515.441406 609.195312 514.054688 609.265625 C 512.664062 609.335938 511.273438 609.371094 509.882812 609.375 Z M 509.882812 609.375 " fill-opacity="1" fill-rule="nonzero"/></svg>