<?xml version="1.0" encoding="UTF-8"?>
<svg id="Layer_1" data-name="Layer 1" xmlns="http://www.w3.org/2000/svg" viewBox="0 0 501.5 710.47">
  <defs>
    <style>
      .cls-1 {
        opacity: .44;
      }

      .cls-2 {
        opacity: .4;
      }

      .cls-3 {
        fill: #fff;
        stroke: #808285;
        stroke-miterlimit: 10;
        stroke-width: 2.99px;
      }

      .cls-4 {
        fill: #231f20;
      }
    </style>
  </defs>
  <g>
    <g class="cls-2">
      <path class="cls-4" d="m305.56,233.89v242.89c0,19.37-26.5,29.07-42,15.37h0c-4.61-4.08-7.21-9.61-7.21-15.37v-242.89c0-5.77,2.59-11.3,7.21-15.37h0c15.5-13.7,42-4,42,15.37Z"/>
      <path class="cls-4" d="m280.83,499.34c-6.5,0-12.84-2.26-17.76-6.62-4.81-4.25-7.46-9.91-7.46-15.93v-242.89c0-6.03,2.65-11.68,7.46-15.94,7.9-6.98,19.46-8.59,29.44-4.09,8.64,3.9,13.8,11.38,13.8,20.02h-.75.75v242.89c0,8.64-5.16,16.13-13.8,20.02-3.76,1.7-7.75,2.53-11.68,2.53Zm0-286.5c-6.14,0-12.12,2.13-16.77,6.24-4.48,3.96-6.95,9.22-6.95,14.81v242.89c0,5.59,2.47,10.85,6.96,14.81,7.47,6.59,18.39,8.11,27.84,3.85,8.09-3.65,12.92-10.62,12.92-18.66v-242.89c0-8.04-4.83-15.01-12.92-18.66-3.57-1.61-7.34-2.39-11.07-2.39Z"/>
    </g>
    <g class="cls-2">
      <path class="cls-4" d="m480.48,553.19h0c10.04,10.04,10.04,26.31,0,36.35l-109.06,109.06c-10.04,10.04-26.31,10.04-36.35,0L7.91,371.43c-10.04-10.04-10.04-26.31,0-36.35l199.94-199.94,36.35-36.35L335.08,7.91c10.04-10.04,26.31-10.04,36.35,0l90.88,90.88,18.18,18.18c10.04,10.04,10.04,26.31,0,36.35h0c-10.04,10.04-26.31,10.04-36.35,0l-18.18-18.18-36.35-36.35-18.18-18.18c-10.04-10.04-26.31-10.04-36.35,0l-18.18,18.18-36.35,36.35-199.94,199.94c-10.04,10.04-10.04,26.31,0,36.35l254.46,254.46c10.04,10.04,26.31,10.04,36.35,0l72.7-72.7c10.04-10.04,26.31-10.04,36.35,0Z"/>
      <path class="cls-4" d="m462.31,545.27c-6.97,0-13.52,2.71-18.45,7.64l-3.97,3.97-.28.28-.28.28-68.17,68.17c-4.78,4.78-11.14,7.42-17.9,7.42s-13.11-2.64-17.9-7.42l-1.8-1.8-.27-.27-252.39-252.39c-9.87-9.88-9.87-25.93,0-35.81l250.03-250.02.27-.28.28-.27,3.88-3.89c9.88-9.87,25.93-9.87,35.8,0l70.49,70.49,2.21,2.21c4.93,4.93,11.49,7.64,18.45,7.64s13.53-2.71,18.45-7.64c10.17-10.17,10.17-26.73,0-36.9L371.7,7.63c-10.17-10.18-26.73-10.18-36.9,0l-3.88,3.88-.27.27L7.63,334.8c-10.17,10.17-10.17,26.73,0,36.9l324.82,324.83,2.35,2.35c5.09,5.08,11.77,7.63,18.45,7.63s13.36-2.54,18.45-7.63l109.06-109.06c10.17-10.17,10.17-26.73,0-36.9-4.93-4.93-11.48-7.64-18.45-7.64Zm-126.96,153.05l-2.35-2.35L8.18,371.15c-9.87-9.88-9.87-25.93,0-35.81L330.91,12.62l.27-.28.28-.27,3.88-3.89c4.93-4.93,11.42-7.4,17.9-7.4s12.97,2.47,17.9,7.4l109.06,109.06c9.88,9.88,9.88,25.93,0,35.81-4.78,4.78-11.14,7.41-17.9,7.41s-13.11-2.63-17.9-7.41l-2.62-2.62-.28-.28-69.8-69.8c-10.17-10.18-26.73-10.18-36.9,0l-3.88,3.88-.27.27-250.31,250.31c-10.17,10.17-10.17,26.73,0,36.9l252.4,252.4.27.27,1.79,1.79c4.93,4.93,11.49,7.65,18.45,7.65s13.53-2.72,18.45-7.65l68.38-68.38.28-.28,4.04-4.04c9.87-9.87,25.93-9.87,35.8,0s9.88,25.93,0,35.81l-109.06,109.06c-9.87,9.87-25.92,9.87-35.8,0Z"/>
    </g>
    <g class="cls-1">
      <path class="cls-4" d="m481.76,451.84l-91.65,91.65c-7.8,7.8-20.46,7.8-28.26,0l-11.71-11.71c-7.8-7.8-7.8-20.46,0-28.26l51.68-51.68c7.8-7.8,7.8-20.46,0-28.26l-51.68-51.68c-7.8-7.8-7.8-20.46,0-28.26l51.68-51.68c7.8-7.8,7.8-20.46,0-28.26l-51.68-51.68c-7.8-7.8-7.8-20.46,0-28.26l11.71-11.71c7.8-7.8,20.46-7.8,28.26,0l91.65,91.65c7.8,7.8,7.8,20.46,0,28.26l-51.68,51.68c-7.8,7.8-7.8,20.46,0,28.26l51.68,51.68c7.8,7.8,7.8,20.46,0,28.26Z"/>
      <path class="cls-4" d="m375.98,550.08c-5.31,0-10.62-2.02-14.66-6.06l-11.71-11.71c-8.08-8.08-8.08-21.24,0-29.32l51.68-51.68c7.5-7.5,7.5-19.7,0-27.2l-51.68-51.68c-8.08-8.08-8.08-21.24,0-29.32l51.68-51.68c7.5-7.5,7.5-19.7,0-27.2l-51.68-51.68c-8.08-8.08-8.08-21.24,0-29.32l11.71-11.71c8.08-8.08,21.24-8.08,29.32,0l91.65,91.65c8.08,8.08,8.08,21.24,0,29.32l-51.68,51.68c-7.5,7.5-7.5,19.7,0,27.2l51.68,51.68c8.08,8.08,8.08,21.24,0,29.32l-91.65,91.65c-4.04,4.04-9.35,6.06-14.66,6.06Zm0-383.12c-4.93,0-9.85,1.88-13.6,5.63l-11.71,11.71c-7.5,7.5-7.5,19.7,0,27.2l51.68,51.68c8.08,8.08,8.08,21.24,0,29.32l-51.68,51.68c-7.5,7.5-7.5,19.7,0,27.2l51.68,51.68c8.08,8.08,8.08,21.24,0,29.32l-51.68,51.68c-7.5,7.5-7.5,19.7,0,27.2l11.71,11.71c7.5,7.5,19.71,7.5,27.21,0l91.65-91.65c7.5-7.5,7.5-19.7,0-27.2l-51.68-51.68c-8.08-8.08-8.08-21.24,0-29.32l51.68-51.68c7.5-7.5,7.5-19.7,0-27.2l-91.65-91.65c-3.75-3.75-8.68-5.63-13.6-5.63Z"/>
    </g>
  </g>
  <g>
    <path class="cls-3" d="m313.43,236.37v242.89c0,19.37-26.5,29.07-42,15.37h0c-4.61-4.08-7.21-9.61-7.21-15.37v-242.89c0-5.77,2.59-11.3,7.21-15.37h0c15.5-13.7,42-4,42,15.37Z"/>
    <g>
      <path class="cls-3" d="m488.35,555.67h0c10.04,10.04,10.04,26.31,0,36.35l-109.06,109.06c-10.04,10.04-26.31,10.04-36.35,0L15.78,373.91c-10.04-10.04-10.04-26.31,0-36.35l199.94-199.94,36.35-36.35L342.95,10.39c10.04-10.04,26.31-10.04,36.35,0l90.88,90.88,18.18,18.18c10.04,10.04,10.04,26.31,0,36.35h0c-10.04,10.04-26.31,10.04-36.35,0l-18.18-18.18-36.35-36.35-18.18-18.18c-10.04-10.04-26.31-10.04-36.35,0l-18.18,18.18-36.35,36.35-199.94,199.94c-10.04,10.04-10.04,26.31,0,36.35l254.46,254.46c10.04,10.04,26.31,10.04,36.35,0l72.7-72.7c10.04-10.04,26.31-10.04,36.35,0Z"/>
      <path class="cls-3" d="m490.82,557.89c-.08-.1-.16-.2-.24-.3-.08-.1-.16-.21-.24-.31-.54-.65-1.11-1.28-1.71-1.88-4.93-4.93-11.48-7.64-18.45-7.64s-13.52,2.72-18.45,7.64l-68.54,68.54-.27.28-3.89,3.88c-4.78,4.79-11.14,7.42-17.9,7.42s-13.11-2.63-17.9-7.42l-254.46-254.46c-9.87-9.87-9.87-25.93,0-35.8l254.46-254.46c9.88-9.87,25.93-9.87,35.8,0l2.08,2.08.27.27,70.35,70.35c4.93,4.93,11.49,7.64,18.45,7.64s13.53-2.72,18.45-7.64c1.33-1.33,2.49-2.78,3.47-4.3.08-.12.15-.23.21-.34.08-.11.15-.23.21-.33,6.05-10.03,4.75-23.29-3.89-31.92L381.92,12.46l-.27-.27-.28-.28-1.8-1.8c-10.17-10.17-26.73-10.17-36.9,0L15.5,337.28c-10.17,10.17-10.17,26.73,0,36.9l327.17,327.17c5.09,5.09,11.77,7.63,18.45,7.63s13.36-2.54,18.45-7.63l3.88-3.88.28-.28.27-.27,104.62-104.62c9.38-9.38,10.11-24.19,2.19-34.41Zm-107.64,138.75l-4.16,4.16c-9.87,9.88-25.92,9.88-35.8,0L16.05,373.63c-9.87-9.87-9.87-25.93,0-35.8L343.22,10.66c4.93-4.93,11.42-7.4,17.9-7.4s12.97,2.47,17.9,7.4l109.06,109.06c8.34,8.34,9.64,21.11,3.88,30.81-.07.12-.14.23-.22.33-.05.11-.12.23-.21.33-.97,1.53-2.12,2.98-3.46,4.32-4.78,4.79-11.14,7.42-17.9,7.42s-13.11-2.63-17.9-7.42l-72.7-72.7c-10.17-10.17-26.73-10.17-36.9,0l-254.46,254.46c-10.17,10.17-10.17,26.73,0,36.9l254.46,254.46c4.93,4.93,11.49,7.64,18.45,7.64s13.53-2.72,18.45-7.64l3.89-3.88.27-.28,68.54-68.54c9.87-9.87,25.93-9.88,35.8,0,.61.61,1.18,1.24,1.7,1.89.09.1.17.2.25.3.09.1.16.2.23.31,7.63,9.91,6.9,24.22-2.19,33.29l-104.62,104.62-.27.27Z"/>
    </g>
    <path class="cls-3" d="m494.15,449.8l-91.65,91.65c-7.8,7.8-20.46,7.8-28.26,0l-11.71-11.71c-7.8-7.8-7.8-20.46,0-28.26l51.68-51.68c7.8-7.8,7.8-20.46,0-28.26l-51.68-51.68c-7.8-7.8-7.8-20.46,0-28.26l51.68-51.68c7.8-7.8,7.8-20.46,0-28.26l-51.68-51.68c-7.8-7.8-7.8-20.46,0-28.26l11.71-11.71c7.8-7.8,20.46-7.8,28.26,0l91.65,91.65c7.8,7.8,7.8,20.46,0,28.26l-51.68,51.68c-7.8,7.8-7.8,20.46,0,28.26l51.68,51.68c7.8,7.8,7.8,20.46,0,28.26Z"/>
  </g>
</svg>