<svg xmlns="http://www.w3.org/2000/svg" xmlns:xlink="http://www.w3.org/1999/xlink" width="1000" zoomAndPan="magnify" viewBox="0 0 750 749.999995" height="1000" preserveAspectRatio="xMidYMid meet" version="1.0"><defs><clipPath id="22d585f505"><path d="M 1 114.84375 L 750 114.84375 L 750 635.34375 L 1 635.34375 Z M 1 114.84375 " clip-rule="nonzero"/></clipPath></defs><g clip-path="url(#22d585f505)"><path fill="#231f20" d="M 733.695312 302.964844 C 732.878906 304.191406 732.082031 305.5 731.296875 306.933594 C 719.132812 326.890625 712.695312 350.363281 712.695312 374.820312 C 712.695312 400 719.515625 424.179688 732.414062 444.734375 C 732.582031 444.996094 732.765625 445.257812 732.964844 445.5 C 733.191406 446.019531 733.320312 446.683594 733.320312 447.292969 C 733.320312 449.535156 731.5 451.363281 729.253906 451.363281 L 681.464844 451.363281 C 680.558594 451.234375 679.636719 451.148438 678.703125 451.148438 L 282.167969 451.148438 C 241.925781 448.339844 210.042969 415.191406 210.042969 374.820312 C 210.042969 373.285156 210.101562 371.769531 210.191406 370.265625 L 220.085938 337.230469 C 233.429688 313.988281 258.722656 298.265625 287.691406 298.265625 L 729.515625 298.265625 C 731.898438 298.265625 733.75 300.046875 733.75 302.324219 C 733.75 302.566406 733.734375 302.773438 733.695312 302.964844 Z M 682.859375 471.398438 C 682.078125 472.566406 681.324219 473.835938 680.476562 475.367188 C 668.3125 495.324219 661.882812 518.785156 661.882812 543.234375 C 661.882812 568.472656 668.699219 592.65625 681.601562 613.171875 C 681.773438 613.433594 681.945312 613.683594 682.140625 613.921875 C 682.371094 614.5 682.507812 615.15625 682.507812 615.722656 C 682.507812 618.003906 680.710938 619.792969 678.417969 619.792969 L 236.847656 619.792969 C 194.046875 619.792969 159.226562 585.449219 159.226562 543.234375 C 159.226562 501.03125 194.046875 466.695312 236.847656 466.695312 L 678.703125 466.695312 C 681.0625 466.695312 682.910156 468.480469 682.910156 470.761719 C 682.910156 470.992188 682.890625 471.207031 682.859375 471.398438 Z M 199.734375 405.1875 C 206.429688 424.0625 219.160156 440.164062 235.65625 451.175781 C 214.855469 451.4375 195.683594 458.464844 180.285156 470.132812 Z M 155.027344 499.238281 L 51.03125 468.066406 L 123.996094 224.445312 L 228.28125 255.691406 L 155.683594 498.117188 C 155.46875 498.492188 155.238281 498.855469 155.027344 499.238281 Z M 145.453125 525.417969 L 43.871094 494.964844 L 47.394531 483.203125 L 148.683594 513.5625 C 147.351562 517.410156 146.265625 521.359375 145.453125 525.417969 Z M 141.3125 546.109375 L 37.019531 514.84375 L 38.585938 509.617188 L 142.878906 540.871094 Z M 133.316406 572.757812 L 29.035156 541.5 L 32.554688 529.730469 L 136.847656 561 Z M 122.179688 609.984375 C 120.445312 615.761719 115.019531 619.792969 108.976562 619.792969 C 107.664062 619.792969 106.355469 619.59375 105.082031 619.214844 L 27.097656 595.835938 C 23.59375 594.785156 20.703125 592.417969 18.957031 589.167969 C 17.214844 585.925781 16.828125 582.230469 17.878906 578.742188 L 24.574219 556.386719 L 128.867188 587.652344 Z M 137.050781 180.832031 L 241.347656 212.101562 L 232.757812 240.804688 L 128.457031 209.554688 Z M 149.234375 140.195312 C 150.953125 134.429688 156.375 130.402344 162.421875 130.402344 C 163.742188 130.402344 165.054688 130.597656 166.324219 130.976562 L 244.316406 154.363281 C 247.796875 155.40625 250.679688 157.757812 252.425781 161.003906 C 254.171875 164.25 254.558594 167.957031 253.507812 171.460938 L 245.796875 197.207031 L 141.519531 165.945312 Z M 744.839844 314.566406 C 745.582031 313.199219 746.285156 312.054688 747.050781 310.972656 C 747.34375 310.550781 747.601562 310.09375 747.808594 309.621094 C 748.789062 307.363281 749.289062 304.90625 749.289062 302.324219 C 749.289062 291.511719 740.421875 282.714844 729.515625 282.714844 L 287.691406 282.714844 C 266.195312 282.714844 246.390625 289.96875 230.605469 302.097656 L 245.351562 252.863281 C 245.371094 252.8125 245.398438 252.761719 245.414062 252.710938 L 258.460938 209.117188 C 258.46875 209.09375 258.46875 209.070312 258.472656 209.050781 L 268.394531 175.925781 C 270.636719 168.453125 269.824219 160.53125 266.105469 153.628906 C 262.386719 146.722656 256.226562 141.699219 248.769531 139.46875 L 170.78125 116.085938 C 168.0625 115.273438 165.25 114.859375 162.421875 114.859375 C 149.558594 114.859375 138.011719 123.449219 134.34375 135.742188 L 124.429688 168.832031 C 124.421875 168.867188 124.40625 168.894531 124.394531 168.925781 L 114.347656 202.496094 L 19.917969 517.789062 C 19.910156 517.804688 19.898438 517.816406 19.898438 517.828125 L 15.007812 534.171875 L 2.996094 574.273438 C 0.753906 581.730469 1.558594 589.636719 5.273438 596.53125 C 8.992188 603.441406 15.160156 608.484375 22.636719 610.722656 L 100.617188 634.101562 C 103.339844 634.917969 106.148438 635.332031 108.976562 635.332031 C 121.824219 635.332031 133.371094 626.75 137.0625 614.453125 L 149.121094 574.199219 C 162.015625 609.792969 196.464844 635.339844 236.847656 635.339844 L 678.417969 635.339844 C 689.242188 635.339844 698.039062 626.539062 698.039062 615.722656 C 698.039062 612.898438 697.417969 610.011719 696.25 607.390625 C 696.191406 607.269531 696.039062 606.960938 695.984375 606.847656 C 695.675781 606.246094 695.207031 605.332031 694.433594 604.371094 C 683.304688 586.449219 677.421875 565.324219 677.421875 543.234375 C 677.421875 521.589844 683.097656 500.871094 693.832031 483.320312 C 693.894531 483.210938 693.957031 483.105469 694.019531 482.996094 C 694.847656 481.476562 695.507812 480.40625 696.203125 479.40625 C 696.496094 478.988281 696.746094 478.539062 696.953125 478.070312 C 697.945312 475.824219 698.449219 473.363281 698.449219 470.761719 C 698.449219 469.441406 698.3125 468.152344 698.0625 466.90625 L 729.253906 466.90625 C 740.0625 466.90625 748.859375 458.109375 748.859375 447.292969 C 748.859375 444.371094 748.21875 441.457031 747.011719 438.835938 C 746.617188 438.007812 746.085938 436.984375 745.265625 435.960938 C 734.121094 418 728.238281 396.867188 728.238281 374.820312 C 728.238281 353.164062 733.917969 332.4375 744.652344 314.886719 C 744.714844 314.78125 744.777344 314.675781 744.839844 314.566406 " fill-opacity="1" fill-rule="nonzero"/></g><path fill="#231f20" d="M 683.273438 430.175781 L 306.648438 430.175781 C 270.433594 430.175781 240.976562 406.066406 240.976562 376.417969 C 240.976562 346.78125 270.433594 322.660156 306.648438 322.660156 L 682.988281 322.660156 C 685.3125 322.660156 687.054688 324.042969 687.054688 325.289062 C 687.054688 325.757812 686.941406 325.996094 686.910156 326.03125 C 686.710938 326.257812 686.527344 326.496094 686.355469 326.742188 C 676.253906 341.414062 670.910156 358.59375 670.910156 376.417969 C 670.910156 393.320312 675.761719 409.824219 685.011719 424.253906 C 685.746094 425.363281 686.546875 426.578125 687.457031 427.785156 C 687.242188 428.835938 685.660156 430.175781 683.273438 430.175781 Z M 700.523438 419.265625 C 699.679688 418.257812 698.847656 417 698.027344 415.765625 C 690.453125 403.941406 686.445312 390.339844 686.445312 376.417969 C 686.445312 361.882812 690.769531 347.859375 698.949219 335.855469 C 701.304688 332.96875 702.589844 329.238281 702.589844 325.289062 C 702.589844 315.265625 693.796875 307.109375 682.988281 307.109375 L 306.648438 307.109375 C 261.867188 307.109375 225.4375 338.207031 225.4375 376.417969 C 225.4375 414.632812 261.867188 445.722656 306.648438 445.722656 L 683.273438 445.722656 C 694.160156 445.722656 703.019531 437.570312 703.019531 427.550781 C 703.019531 425.449219 702.589844 423.339844 701.738281 421.28125 C 701.4375 420.550781 701.027344 419.871094 700.523438 419.265625 " fill-opacity="1" fill-rule="nonzero"/><path fill="#231f20" d="M 345.550781 400.972656 L 328.613281 391.632812 C 327.445312 390.992188 326.15625 390.667969 324.863281 390.667969 C 323.570312 390.667969 322.28125 390.992188 321.113281 391.632812 L 304.175781 400.972656 L 304.175781 362.667969 L 345.550781 362.667969 Z M 353.320312 347.125 L 296.40625 347.125 C 292.113281 347.125 288.636719 350.601562 288.636719 354.894531 L 288.636719 414.125 C 288.636719 416.875 290.085938 419.421875 292.457031 420.816406 C 294.816406 422.214844 297.746094 422.261719 300.15625 420.933594 L 324.863281 407.316406 L 349.574219 420.933594 C 350.742188 421.578125 352.035156 421.898438 353.320312 421.898438 C 354.691406 421.898438 356.058594 421.539062 357.273438 420.816406 C 359.636719 419.421875 361.09375 416.875 361.09375 414.125 L 361.09375 354.894531 C 361.09375 350.601562 357.613281 347.125 353.320312 347.125 " fill-opacity="1" fill-rule="nonzero"/><path fill="#231f20" d="M 632.429688 597.757812 L 255.808594 597.757812 C 219.335938 597.757812 189.664062 573.269531 189.664062 543.171875 C 189.664062 513.085938 219.335938 488.605469 255.808594 488.605469 L 632.171875 488.605469 C 634.839844 488.605469 636.707031 490.265625 636.707031 491.761719 C 636.707031 492.320312 636.566406 492.679688 636.449219 492.816406 C 636.246094 493.042969 636.054688 493.289062 635.882812 493.539062 C 625.847656 508.238281 620.539062 525.402344 620.539062 543.171875 C 620.539062 560.089844 625.375 576.59375 634.574219 590.984375 L 634.78125 591.296875 C 635.511719 592.40625 636.269531 593.550781 637.132812 594.707031 C 637.039062 596.167969 635.058594 597.757812 632.429688 597.757812 Z M 649.347656 586.625 C 648.554688 585.667969 647.785156 584.5 646.976562 583.261719 L 646.820312 583.035156 C 639.179688 571.078125 635.140625 557.296875 635.140625 543.171875 C 635.140625 528.480469 639.488281 514.277344 647.730469 502.078125 C 650.039062 499.269531 651.304688 495.628906 651.304688 491.761719 C 651.304688 481.964844 642.71875 474 632.171875 474 L 255.808594 474 C 211.285156 474 175.066406 505.027344 175.066406 543.171875 C 175.066406 581.320312 211.285156 612.359375 255.808594 612.359375 L 632.429688 612.359375 C 643.074219 612.359375 651.734375 604.394531 651.734375 594.597656 C 651.734375 592.496094 651.296875 590.40625 650.429688 588.386719 C 650.152344 587.753906 649.789062 587.160156 649.347656 586.625 " fill-opacity="1" fill-rule="nonzero"/><path fill="#231f20" d="M 294.710938 567.703125 L 277.773438 558.367188 C 276.605469 557.722656 275.3125 557.402344 274.023438 557.402344 C 272.730469 557.402344 271.4375 557.722656 270.269531 558.367188 L 253.359375 567.699219 L 253.359375 529.398438 L 294.710938 529.398438 Z M 302.480469 513.855469 L 245.589844 513.855469 C 241.296875 513.855469 237.820312 517.335938 237.820312 521.628906 L 237.820312 580.863281 C 237.820312 583.609375 239.273438 586.152344 241.636719 587.550781 C 244.003906 588.953125 246.929688 588.996094 249.34375 587.664062 L 274.023438 574.050781 L 298.730469 587.664062 C 299.898438 588.308594 301.191406 588.632812 302.480469 588.632812 C 303.847656 588.632812 305.214844 588.273438 306.433594 587.550781 C 308.796875 586.152344 310.25 583.609375 310.25 580.863281 L 310.25 521.628906 C 310.25 517.335938 306.773438 513.855469 302.480469 513.855469 " fill-opacity="1" fill-rule="nonzero"/></svg>