<svg xmlns="http://www.w3.org/2000/svg" xmlns:xlink="http://www.w3.org/1999/xlink" width="1000" zoomAndPan="magnify" viewBox="0 0 750 749.999995" height="1000" preserveAspectRatio="xMidYMid meet" version="1.0"><defs><clipPath id="0fcae21cff"><path d="M 14.0625 1 L 736.3125 1 L 736.3125 750 L 14.0625 750 Z M 14.0625 1 " clip-rule="nonzero"/></clipPath></defs><g clip-path="url(#0fcae21cff)"><path fill="#211d1d" d="M 48.191406 470.386719 L 75.707031 497.832031 L 31.890625 514.238281 Z M 454.503906 16.917969 L 487.1875 49.59375 L 112.617188 423.976562 L 79.882812 391.347656 Z M 154.71875 465.949219 L 121.988281 433.320312 L 496.550781 58.953125 L 529.234375 91.621094 Z M 72.808594 404.15625 L 141.785156 473.097656 L 89.339844 492.730469 L 53.257812 456.746094 Z M 729.726562 736.234375 C 726.519531 736.234375 406.296875 735.59375 202.949219 680.273438 C 167.507812 670.632812 157.023438 664.699219 153.9375 662.164062 C 163.589844 655.765625 209.363281 649.664062 246.566406 644.703125 C 337.84375 632.535156 441.300781 618.757812 436.207031 574.503906 C 428.417969 506.875 171.714844 511.519531 63.613281 516.496094 L 154.253906 482.558594 C 155.929688 482.507812 157.53125 481.847656 158.726562 480.660156 L 543.285156 96.304688 C 545.863281 93.714844 545.863281 89.53125 543.285156 86.945312 L 459.179688 2.886719 C 456.695312 0.410156 452.300781 0.410156 449.816406 2.886719 L 65.257812 387.25 C 64.105469 388.40625 63.546875 389.886719 63.425781 391.390625 L 14.429688 523.210938 C 14.414062 523.242188 14.414062 523.269531 14.410156 523.300781 C 14.371094 523.40625 14.371094 523.519531 14.335938 523.625 C 14.136719 524.292969 14.054688 524.972656 14.074219 525.65625 C 14.074219 525.757812 14.019531 525.855469 14.027344 525.964844 C 14.035156 526.082031 14.105469 526.171875 14.117188 526.289062 C 14.195312 526.976562 14.375 527.640625 14.667969 528.273438 C 14.707031 528.359375 14.71875 528.460938 14.761719 528.542969 C 15.074219 529.144531 15.460938 529.710938 15.957031 530.203125 C 16.027344 530.273438 16.125 530.300781 16.195312 530.363281 C 16.414062 530.5625 16.679688 530.679688 16.925781 530.847656 C 17.402344 531.175781 17.859375 531.503906 18.394531 531.699219 C 18.628906 531.78125 18.894531 531.78125 19.144531 531.847656 C 19.636719 531.957031 20.121094 532.136719 20.636719 532.136719 C 20.714844 532.136719 20.789062 532.097656 20.875 532.09375 C 20.945312 532.09375 21.011719 532.132812 21.082031 532.125 C 173.355469 521.792969 417.125 524.566406 423.050781 576.015625 C 426.65625 607.347656 317.226562 621.929688 244.808594 631.585938 C 166.203125 642.066406 140.722656 646.679688 139.746094 661.261719 C 139.101562 670.921875 148.664062 679.222656 199.46875 693.046875 C 404.511719 748.824219 726.5 749.46875 729.726562 749.46875 C 733.386719 749.46875 736.347656 746.515625 736.347656 742.851562 C 736.347656 739.191406 733.386719 736.234375 729.726562 736.234375 " fill-opacity="1" fill-rule="nonzero"/></g></svg>