<svg xmlns="http://www.w3.org/2000/svg" xmlns:xlink="http://www.w3.org/1999/xlink" width="1000"
    zoomAndPan="magnify" viewBox="0 0 750 749.999995" height="1000"
    preserveAspectRatio="xMidYMid meet" version="1.0">
    <defs>
        <clipPath id="c6b00cee3b">
            <path d="M 111 0 L 639.375 0 L 639.375 750 L 111 750 Z M 111 0 " clip-rule="nonzero" />
        </clipPath>
    </defs>
    <g clip-path="url(#c6b00cee3b)">
        <path fill="#251f20"
            d="M 567.855469 199.355469 L 489.664062 182.125 L 523.191406 29.957031 L 601.386719 47.1875 Z M 531.703125 310.078125 L 471.316406 310.078125 L 491.371094 219.042969 L 548.96875 231.734375 Z M 572.007812 334.265625 L 572.007812 348.046875 L 214.136719 348.046875 L 214.136719 334.265625 Z M 214.136719 372.234375 L 572.007812 372.234375 L 572.007812 725.847656 L 214.136719 725.847656 Z M 260.65625 310.078125 C 261.769531 308.148438 262.078125 305.769531 261.242188 303.515625 C 259.75 299.488281 255.28125 297.429688 251.253906 298.921875 L 225.910156 308.300781 L 221.046875 295.15625 L 261.929688 280.019531 C 265.960938 278.53125 268.011719 274.058594 266.527344 270.03125 C 265.027344 266 260.5625 263.949219 256.53125 265.441406 L 215.648438 280.570312 L 210.78125 267.425781 L 236.960938 257.734375 C 240.988281 256.242188 243.039062 251.773438 241.550781 247.746094 C 240.058594 243.714844 235.589844 241.65625 231.5625 243.148438 L 205.382812 252.847656 L 200.515625 239.691406 L 226.695312 230 C 230.722656 228.515625 232.777344 224.042969 231.285156 220.011719 C 229.800781 215.984375 225.324219 213.933594 221.296875 215.425781 L 195.117188 225.117188 L 190.242188 211.96875 L 216.429688 202.277344 C 220.457031 200.785156 222.511719 196.3125 221.019531 192.28125 C 219.527344 188.261719 215.058594 186.203125 211.03125 187.691406 L 184.84375 197.382812 L 179.980469 184.238281 L 220.871094 169.101562 C 224.894531 167.609375 226.953125 163.140625 225.460938 159.113281 C 223.96875 155.082031 219.5 153.023438 215.472656 154.515625 L 174.585938 169.652344 L 169.714844 156.507812 L 195.898438 146.816406 C 199.921875 145.324219 201.980469 140.847656 200.488281 136.828125 C 198.996094 132.796875 194.523438 130.738281 190.5 132.230469 L 164.316406 141.921875 L 159.449219 128.773438 L 185.628906 119.082031 C 189.65625 117.59375 191.714844 113.125 190.222656 109.09375 C 188.730469 105.066406 184.257812 103.007812 180.230469 104.5 L 154.050781 114.199219 L 149.183594 101.042969 L 175.363281 91.351562 C 179.390625 89.867188 181.449219 85.394531 179.957031 81.363281 C 178.46875 77.335938 173.992188 75.285156 169.96875 76.773438 L 143.785156 86.464844 L 138.917969 73.320312 L 179.804688 58.183594 C 183.832031 56.691406 185.890625 52.214844 184.398438 48.195312 C 182.90625 44.164062 178.433594 42.105469 174.40625 43.597656 L 133.519531 58.734375 L 129.660156 48.308594 L 211.4375 18.03125 L 319.546875 310.078125 Z M 365.875 84.003906 L 388.5 84.015625 L 415.285156 84.023438 L 430.417969 116.695312 L 415.359375 142.535156 L 397.183594 113.011719 C 395.769531 110.707031 393.277344 109.3125 390.578125 109.3125 C 387.871094 109.304688 385.375 110.695312 383.957031 112.988281 L 365.675781 142.515625 L 350.710938 116.667969 Z M 423.316406 159.765625 L 431.386719 145.910156 L 431.320312 310.078125 L 423.25 310.078125 Z M 373.535156 159.355469 L 390.542969 131.886719 L 407.765625 159.859375 L 407.699219 310.078125 L 373.46875 310.078125 Z M 349.71875 145.984375 L 357.988281 160.265625 L 357.921875 310.078125 L 349.644531 310.078125 Z M 561.242188 218.515625 L 485.332031 201.792969 L 486.316406 197.308594 L 562.230469 214.039062 Z M 628.914062 54.835938 L 625.109375 72.105469 L 612.433594 69.3125 L 618.246094 42.9375 C 618.683594 40.9375 618.304688 38.804688 617.207031 37.078125 C 616.097656 35.355469 614.324219 34.117188 612.324219 33.671875 L 518.949219 13.097656 C 514.757812 12.175781 510.605469 14.828125 509.683594 19.019531 L 472.804688 186.378906 L 468.472656 206.035156 C 467.546875 210.226562 470.199219 214.378906 474.390625 215.300781 L 476.195312 215.699219 L 455.394531 310.078125 L 446.871094 310.078125 L 446.949219 117.105469 C 446.949219 117.066406 446.9375 117.019531 446.9375 116.976562 C 446.9375 116.804688 446.910156 116.632812 446.898438 116.457031 C 446.871094 116.15625 446.835938 115.84375 446.769531 115.535156 C 446.742188 115.371094 446.695312 115.21875 446.652344 115.0625 C 446.558594 114.730469 446.453125 114.398438 446.308594 114.078125 C 446.277344 113.996094 446.261719 113.914062 446.230469 113.839844 L 397.664062 8.984375 C 396.394531 6.234375 393.636719 4.480469 390.613281 4.472656 C 387.589844 4.472656 384.835938 6.234375 383.558594 8.976562 L 334.90625 113.792969 C 334.867188 113.875 334.851562 113.960938 334.820312 114.042969 C 334.683594 114.359375 334.574219 114.675781 334.488281 115 C 334.441406 115.164062 334.394531 115.324219 334.359375 115.492188 C 334.300781 115.796875 334.265625 116.101562 334.238281 116.40625 C 334.21875 116.582031 334.199219 116.75 334.191406 116.929688 C 334.191406 116.972656 334.183594 117.019531 334.183594 117.058594 L 334.101562 304.605469 L 223.3125 5.34375 C 222.605469 3.429688 221.132812 1.835938 219.269531 0.980469 C 217.414062 0.128906 215.25 0.0390625 213.324219 0.757812 L 116.972656 36.429688 C 112.941406 37.914062 110.890625 42.390625 112.382812 46.417969 L 121.636719 71.421875 C 121.636719 71.421875 121.636719 71.429688 121.636719 71.429688 L 162.703125 182.339844 L 162.703125 182.347656 L 193.496094 265.535156 L 209.984375 310.078125 L 202.042969 310.078125 C 198.855469 310.078125 195.738281 311.367188 193.492188 313.621094 C 191.234375 315.867188 189.945312 318.984375 189.945312 322.171875 L 189.945312 728.109375 C 189.941406 731.113281 190.566406 734.027344 191.683594 736.652344 C 193.363281 740.601562 196.121094 743.910156 199.605469 746.269531 C 203.074219 748.632812 207.359375 750.035156 211.875 750.035156 L 574.269531 750.035156 C 577.273438 750.035156 580.1875 749.414062 582.8125 748.296875 C 586.761719 746.613281 590.066406 743.859375 592.429688 740.371094 C 594.792969 736.902344 596.195312 732.625 596.195312 728.109375 L 596.195312 322.171875 C 596.195312 318.984375 594.898438 315.867188 592.652344 313.621094 C 590.398438 311.367188 587.289062 310.078125 584.101562 310.078125 L 547.625 310.078125 L 564.152344 235.078125 L 565.488281 235.375 C 567.484375 235.8125 569.617188 235.433594 571.347656 234.335938 C 573.074219 233.226562 574.316406 231.453125 574.753906 229.457031 L 577.894531 215.207031 C 577.914062 215.195312 577.941406 215.1875 577.960938 215.175781 C 579.6875 214.066406 580.929688 212.292969 581.367188 210.296875 L 600.664062 122.722656 L 613.339844 125.515625 L 594.949219 208.980469 L 593.90625 213.695312 C 593.726562 214.519531 594.253906 215.351562 595.074219 215.53125 L 602.445312 217.152344 C 603.277344 217.335938 604.097656 216.808594 604.28125 215.984375 L 605.40625 210.839844 L 639.28125 57.121094 L 628.914062 54.835938 "
            fill-opacity="1" fill-rule="nonzero" />
    </g>
</svg>