<svg xmlns="http://www.w3.org/2000/svg" xmlns:xlink="http://www.w3.org/1999/xlink" width="1000" zoomAndPan="magnify" viewBox="0 0 750 749.999995" height="1000" preserveAspectRatio="xMidYMid meet" version="1.0"><defs><clipPath id="a5f50e2c66"><path d="M 442 307 L 750 307 L 750 615.28125 L 442 615.28125 Z M 442 307 " clip-rule="nonzero"/></clipPath><clipPath id="068c5f04c9"><path d="M 0 307 L 308 307 L 308 615.28125 L 0 615.28125 Z M 0 307 " clip-rule="nonzero"/></clipPath><clipPath id="53850ac000"><path d="M 393 134.53125 L 612 134.53125 L 612 478 L 393 478 Z M 393 134.53125 " clip-rule="nonzero"/></clipPath></defs><g clip-path="url(#a5f50e2c66)"><path fill="#000000" d="M 595.960938 338.898438 C 528.285156 338.898438 473.242188 393.925781 473.242188 461.570312 C 473.242188 529.207031 528.285156 584.238281 595.960938 584.238281 C 663.621094 584.238281 718.675781 529.207031 718.675781 461.570312 C 718.675781 393.925781 663.621094 338.898438 595.960938 338.898438 Z M 595.960938 615.277344 C 511.167969 615.277344 442.1875 546.320312 442.1875 461.570312 C 442.1875 376.816406 511.167969 307.863281 595.960938 307.863281 C 680.746094 307.863281 749.722656 376.816406 749.722656 461.570312 C 749.722656 546.320312 680.746094 615.277344 595.960938 615.277344 " fill-opacity="1" fill-rule="nonzero"/></g><g clip-path="url(#068c5f04c9)"><path fill="#000000" d="M 154.039062 338.898438 C 86.375 338.898438 31.324219 393.921875 31.324219 461.566406 C 31.324219 529.207031 86.375 584.238281 154.039062 584.238281 C 221.707031 584.238281 276.757812 529.207031 276.757812 461.566406 C 276.757812 393.921875 221.707031 338.898438 154.039062 338.898438 Z M 154.039062 615.277344 C 69.25 615.277344 0.269531 546.320312 0.269531 461.566406 C 0.269531 376.808594 69.25 307.855469 154.039062 307.855469 C 238.828125 307.855469 307.808594 376.808594 307.808594 461.566406 C 307.808594 546.320312 238.828125 615.277344 154.039062 615.277344 " fill-opacity="1" fill-rule="nonzero"/></g><g clip-path="url(#53850ac000)"><path fill="#000000" d="M 595.960938 477.09375 C 589.664062 477.09375 583.746094 473.234375 581.417969 466.996094 L 468.875 165.574219 L 409.078125 165.574219 C 400.503906 165.574219 393.554688 158.625 393.554688 150.054688 C 393.554688 141.480469 400.503906 134.535156 409.078125 134.535156 L 479.648438 134.535156 C 486.132812 134.535156 491.929688 138.558594 494.195312 144.628906 L 610.507812 456.140625 C 613.503906 464.167969 609.417969 473.109375 601.390625 476.109375 C 599.601562 476.777344 597.765625 477.09375 595.960938 477.09375 " fill-opacity="1" fill-rule="nonzero"/></g><path fill="#000000" d="M 179.59375 446.050781 L 358.996094 446.050781 L 266.464844 278.785156 Z M 385.320312 477.085938 L 154.039062 477.085938 C 148.617188 477.085938 143.589844 474.257812 140.773438 469.628906 C 137.953125 464.996094 137.761719 459.230469 140.261719 454.414062 L 252.230469 238.832031 C 252.246094 238.796875 252.257812 238.773438 252.273438 238.746094 L 263.464844 217.199219 L 233.746094 217.199219 C 225.171875 217.199219 218.222656 210.253906 218.222656 201.683594 C 218.222656 193.109375 225.171875 186.164062 233.746094 186.164062 L 289.015625 186.164062 C 294.441406 186.164062 299.46875 188.992188 302.285156 193.625 C 305.101562 198.257812 305.292969 204.023438 302.792969 208.832031 L 291.585938 230.414062 L 504.957031 230.414062 C 513.53125 230.414062 520.484375 237.363281 520.484375 245.9375 C 520.484375 254.503906 513.53125 261.453125 504.957031 261.453125 L 292.359375 261.453125 L 398.90625 454.054688 C 401.566406 458.867188 401.480469 464.71875 398.695312 469.449219 C 395.898438 474.179688 390.8125 477.085938 385.320312 477.085938 " fill-opacity="1" fill-rule="nonzero"/><path fill="#000000" d="M 385.304688 477.085938 C 382.554688 477.085938 379.761719 476.351562 377.242188 474.820312 C 369.917969 470.359375 367.601562 460.808594 372.0625 453.488281 L 502.703125 239.226562 C 507.167969 231.90625 516.71875 229.589844 524.039062 234.046875 C 531.363281 238.507812 533.683594 248.0625 529.214844 255.375 L 398.574219 469.644531 C 395.652344 474.4375 390.542969 477.085938 385.304688 477.085938 " fill-opacity="1" fill-rule="nonzero"/><path fill="#000000" d="M 421.890625 461.566406 C 421.890625 481.753906 405.519531 498.125 385.320312 498.125 C 365.125 498.125 348.753906 481.753906 348.753906 461.566406 C 348.753906 441.378906 365.125 425.015625 385.320312 425.015625 C 405.519531 425.015625 421.890625 441.378906 421.890625 461.566406 " fill-opacity="1" fill-rule="nonzero"/><path fill="#000000" d="M 402.128906 539.558594 L 374.027344 539.558594 C 368.726562 539.558594 364.429688 535.257812 364.429688 529.964844 C 364.429688 524.671875 368.726562 520.371094 374.027344 520.371094 L 375.726562 520.371094 L 375.726562 461.566406 C 375.726562 456.269531 380.019531 451.972656 385.320312 451.972656 C 390.621094 451.972656 394.914062 456.269531 394.914062 461.566406 L 394.914062 520.371094 L 402.128906 520.371094 C 407.429688 520.371094 411.722656 524.671875 411.722656 529.964844 C 411.722656 535.257812 407.429688 539.558594 402.128906 539.558594 " fill-opacity="1" fill-rule="nonzero"/></svg>