<?xml version="1.0" encoding="UTF-8"?>
<svg id="Layer_1" data-name="Layer 1" xmlns="http://www.w3.org/2000/svg" viewBox="0 0 492.84 745.67">
  <defs>
    <style>
      .cls-1 {
        fill: #231f20;
        stroke: #fff;
        stroke-miterlimit: 10;
      }

      .cls-2 {
        fill: #58595b;
      }
    </style>
  </defs>
  <g>
    <path class="cls-2" d="m474.69,162.31c-5.29,5.29-12.22,7.93-19.15,7.93s-13.87-2.64-19.16-7.93l-2.4-2.4-.6-.6c.08-.11.15-.23.23-.35,6.06-10.23,4.7-23.68-4.09-32.48L317.04,14.01l-.29-.29.3-.29.29-.3,4.09-4.09c10.58-10.58,27.73-10.58,38.32,0l95.79,95.79,19.15,19.15c10.58,10.58,10.58,27.73,0,38.32Z"/>
    <path class="cls-2" d="m319.25,658.82l-4.1,4.09c-5.2,5.19-12.11,8.06-19.45,8.06s-14.26-2.86-19.45-8.06L8.04,394.7c-10.72-10.72-10.72-28.18,0-38.9L276.25,87.59c10.72-10.72,28.17-10.72,38.9,0l2.18,2.18-.29.3h0l-.29.29-14.48,14.49-38.32,38.32L53.21,353.89c-10.58,10.58-10.58,27.73,0,38.32l266.33,266.33-.29.29Z"/>
    <path class="cls-2" d="m474.69,622.1l-114.95,114.95c-10.58,10.58-27.73,10.58-38.32,0l-1.89-1.89-.3-.3-.29-.29.29-.3,110.27-110.27c9.56-9.56,10.34-24.64,2.31-35.09-.07-.11-.16-.22-.25-.33l.3-.3,4.51-4.51c10.58-10.58,27.73-10.58,38.32,0,10.58,10.58,10.58,27.73,0,38.32Z"/>
    <path class="cls-2" d="m432.11,588.62s0,0-.02-.02c0-.02,0-.03-.03-.04-.04-.06-.08-.12-.14-.18-.02-.02-.03-.06-.06-.08l-.3.3c.1.11.18.21.25.33l.29-.29s0,0,0,0h0Zm-112.86,69.62l-.29.29.3.3.29-.29-.3-.3Zm0,76.05l-.29.3.29.29.29-.29-.29-.3Zm-2.2-644.8l-.29.3.28.29h0l.29-.3-.29-.29Zm115.06,499.13s0,0-.02-.02c0-.02,0-.03-.03-.04-.04-.06-.08-.12-.14-.18-.02-.02-.03-.06-.06-.08l-.3.3c.1.11.18.21.25.33l.29-.29s0,0,0,0h0Zm-112.86,145.67l-.29.3.29.29.29-.29-.29-.3Zm-2.2-644.8l-.29.3.28.29h0l.29-.3-.29-.29Zm2.2,568.17L53.5,391.92c-10.4-10.41-10.4-27.33,0-37.74L317.04,90.64l.3-.29.29-.3-.29-.29-.29-.29-.29.3-.3.29L52.93,353.6c-10.72,10.72-10.72,28.17,0,38.89l265.74,265.74.29.29.3.3.29-.29.29-.3-.58-.58Zm155.74-74.15c-5.2-5.2-12.11-8.06-19.45-8.06s-14.26,2.85-19.45,8.06l-4.18,4.18-.3.3-.3.3c.09.11.18.21.25.32.1.11.18.21.25.33l.29-.29s0,0,0,0l4.55-4.55c10.4-10.4,27.32-10.4,37.73,0,10.4,10.41,10.4,27.33,0,37.74l-114.95,114.95c-10.4,10.4-27.33,10.4-37.73,0l-1.89-1.89-.29-.29h0l-.29-.3-.29.3-.3.29.3.29h0s2.18,2.19,2.18,2.19c5.36,5.36,12.4,8.04,19.45,8.04s14.08-2.68,19.45-8.04l114.95-114.96c10.72-10.72,10.72-28.17,0-38.89Zm0-459.79L360.04,8.76c-10.73-10.73-28.18-10.73-38.9,0l-4.09,4.09-.29.3-.3.29.29.29.29.29.3-.29.29-.3,4.1-4.09c5.2-5.2,12.03-7.8,18.87-7.8s13.67,2.6,18.87,7.8l114.95,114.95c10.4,10.41,10.4,27.33,0,37.74-5.04,5.04-11.74,7.81-18.87,7.81s-13.83-2.77-18.87-7.81l-3.06-3.06c-.08.12-.15.24-.23.35-.07.11-.14.24-.22.35l.3.3.3.3,2.33,2.33c5.19,5.2,12.1,8.06,19.45,8.06s14.25-2.85,19.45-8.06c10.72-10.72,10.72-28.17,0-38.89Zm-157.94-34.22l-.29.3.28.29h0l.29-.3-.29-.29Zm2.2,644.8l-.29.3.29.29.29-.29-.29-.3Zm112.86-145.67s0,0-.02-.02c0-.02,0-.03-.03-.04-.04-.06-.08-.12-.14-.18-.02-.02-.03-.06-.06-.08l-.3.3c.1.11.18.21.25.33l.29-.29s0,0,0,0h0Z"/>
    <g>
      <path class="cls-2" d="m441.54,442.41c8.23,8.23,8.23,21.57,0,29.79l-96.6,96.6c-8.23,8.23-21.57,8.23-29.79,0l-6.44-6.44,87.94-87.95c8.23-8.23,8.23-21.57,0-29.79l-54.47-54.47c-8.23-8.23-8.23-21.57,0-29.79l54.47-54.47c8.23-8.23,8.23-21.57,0-29.79l-90.15-90.15,8.65-8.65c8.23-8.23,21.57-8.23,29.79,0l96.6,96.6c8.23,8.23,8.23,21.57,0,29.79l-54.47,54.47c-8.23,8.23-8.23,21.57,0,29.79l54.47,54.47Z"/>
      <path class="cls-2" d="m295.31,393.36v107.7c0,20.42-27.94,30.64-44.27,16.21-1.26-1.12-2.38-2.33-3.34-3.63,1.73-3.03,2.72-6.52,2.72-10.38V247.24c0-4.82-1.56-9.08-4.16-12.58,1.21-2.13,2.82-4.1,4.77-5.82,5.28-4.67,11.78-6.76,18.15-6.76,13.34,0,26.13,9.15,26.13,22.96v148.32Z"/>
      <g>
        <path class="cls-2" d="m429.81,126.19L316.76,13.15l-.3.29.29.29.29.29,112.48,112.48c8.79,8.79,10.16,22.25,4.09,32.48-.08.12-.15.24-.23.35-.07.11-.14.24-.22.35l.3.3c.09-.11.16-.23.22-.35.09-.11.16-.23.23-.35,6.23-10.4,4.86-24.1-4.1-33.07Zm-110.27,531.75l-.29.3-4.39,4.39c-10.58,10.57-27.73,10.57-38.32,0L8.33,394.4c-10.58-10.57-10.58-27.73,0-38.32l210.74-210.73,38.32-38.32,19.15-19.16c10.58-10.57,27.73-10.57,38.32,0l1.9,1.9.28.29h0l.29.29.29-.3-.29-.29-2.18-2.18c-10.73-10.72-28.18-10.72-38.9,0L8.04,355.8c-10.72,10.72-10.72,28.18,0,38.9l268.21,268.21c5.19,5.19,12.1,8.06,19.45,8.06s14.25-2.86,19.45-8.06l4.1-4.09.29-.29.29-.3-.3-.3Zm112.58-69.31s0,0,0,0h0s0-.02-.02-.02c0-.02,0-.03-.03-.04-.04-.06-.08-.12-.14-.18-.02-.02-.03-.06-.06-.08-.08-.11-.17-.21-.25-.32l-.3.3c.09.11.18.21.25.32.1.11.18.21.25.33,8.03,10.45,7.26,25.53-2.31,35.09l-110.27,110.27-.29.3-.3.29.3.29.29-.29.29-.29h0l110.26-110.27c9.74-9.74,10.52-25.05,2.31-35.67Z"/>
        <path class="cls-2" d="m319.53,657.94l-.29.3.3.3.29-.3-.3-.3Zm0,0l-.29.3-.29.29.3.3.29-.29.29-.3-.3-.3Zm-.29.3l-.29.29.3.3.29-.29-.3-.3ZM430.1,125.9L317.62,13.42l-.29-.29-.29-.29-.29.3-.3.29.29.29.29.29,112.48,112.48c8.79,8.79,10.16,22.25,4.09,32.48-.08.12-.15.24-.23.35-.07.11-.14.24-.22.35l.3.3.3.3c.08-.11.16-.23.22-.35.08-.11.16-.24.22-.36,6.37-10.57,5-24.54-4.1-33.65Zm2.31,462.43c-.08-.11-.16-.22-.25-.33-.08-.11-.17-.21-.25-.32l-.3.3-.3.3c.09.11.18.21.25.32.1.11.18.21.25.33,8.03,10.45,7.26,25.53-2.31,35.09l-110.27,110.27-.29.3-.3.29.3.29h0s.29.3.29.3l.3-.29.29-.3,110.27-110.27c9.88-9.88,10.66-25.49,2.31-36.27Zm-113.17,69.32l-.29.3-.29.29-4.1,4.09c-5.04,5.04-11.74,7.82-18.87,7.82s-13.83-2.77-18.87-7.82L8.62,394.12c-10.4-10.4-10.4-27.33,0-37.73L276.84,88.17c10.4-10.41,27.33-10.41,37.73,0l2.47,2.47.3-.29.29-.3-.29-.29-2.18-2.18c-10.73-10.72-28.18-10.72-38.9,0L8.04,355.8c-10.72,10.72-10.72,28.18,0,38.9l268.21,268.21c5.19,5.19,12.1,8.06,19.45,8.06s14.25-2.86,19.45-8.06l4.1-4.09.29-.29.29-.3-.58-.58Zm0,.58l-.29.29.3.3.29-.29-.3-.3Zm.29-.3l-.29.3-.29.29.3.3.29-.29.29-.3-.3-.3Z"/>
      </g>
    </g>
  </g>
  <g>
    <path class="cls-1" d="m484,162.1c-5.29,5.29-12.22,7.93-19.15,7.93s-13.87-2.64-19.16-7.93l-2.4-2.4-.6-.6c.08-.11.15-.23.23-.35,6.06-10.23,4.7-23.68-4.09-32.48L326.35,13.8l-.29-.29.3-.29.29-.3,4.09-4.09c10.58-10.58,27.73-10.58,38.32,0l95.79,95.79,19.15,19.15c10.58,10.58,10.58,27.73,0,38.32Z"/>
    <path class="cls-1" d="m328.56,658.61l-4.1,4.09c-5.2,5.19-12.11,8.06-19.45,8.06s-14.26-2.86-19.45-8.06L17.35,394.49c-10.72-10.72-10.72-28.18,0-38.9L285.56,87.38c10.72-10.72,28.17-10.72,38.9,0l2.18,2.18-.29.3h0l-.29.29-14.48,14.49-38.32,38.32L62.52,353.68c-10.58,10.58-10.58,27.73,0,38.32l266.33,266.33-.29.29Z"/>
    <path class="cls-1" d="m484,621.89l-114.95,114.95c-10.58,10.58-27.73,10.58-38.32,0l-1.89-1.89-.3-.3-.29-.29.29-.3,110.27-110.27c9.56-9.56,10.34-24.64,2.31-35.09-.07-.11-.16-.22-.25-.33l.3-.3,4.51-4.51c10.58-10.58,27.73-10.58,38.32,0,10.58,10.58,10.58,27.73,0,38.32Z"/>
    <path class="cls-1" d="m441.42,588.41s0,0-.02-.02c0-.02,0-.03-.03-.04-.04-.06-.08-.12-.14-.18-.02-.02-.03-.06-.06-.08l-.3.3c.1.11.18.21.25.33l.29-.29s0,0,0,0h0Zm-112.86,69.62l-.29.29.3.3.29-.29-.3-.3Zm0,76.05l-.29.3.29.29.29-.29-.29-.3Zm-2.2-644.8l-.29.3.28.29h0l.29-.3-.29-.29Zm115.06,499.13s0,0-.02-.02c0-.02,0-.03-.03-.04-.04-.06-.08-.12-.14-.18-.02-.02-.03-.06-.06-.08l-.3.3c.1.11.18.21.25.33l.29-.29s0,0,0,0h0Zm-112.86,145.67l-.29.3.29.29.29-.29-.29-.3Zm-2.2-644.8l-.29.3.28.29h0l.29-.3-.29-.29Zm2.2,568.17L62.81,391.71c-10.4-10.41-10.4-27.33,0-37.74L326.35,90.43l.3-.29.29-.3-.29-.29-.29-.29-.29.3-.3.29L62.24,353.39c-10.72,10.72-10.72,28.17,0,38.89l265.74,265.74.29.29.3.3.29-.29.29-.3-.58-.58Zm155.74-74.15c-5.2-5.2-12.11-8.06-19.45-8.06s-14.26,2.85-19.45,8.06l-4.18,4.18-.3.3-.3.3c.09.11.18.21.25.32.1.11.18.21.25.33l.29-.29s0,0,0,0l4.55-4.55c10.4-10.4,27.32-10.4,37.73,0,10.4,10.41,10.4,27.33,0,37.74l-114.95,114.95c-10.4,10.4-27.33,10.4-37.73,0l-1.89-1.89-.29-.29h0l-.29-.3-.29.3-.3.29.3.29h0s2.18,2.19,2.18,2.19c5.36,5.36,12.4,8.04,19.45,8.04s14.08-2.68,19.45-8.04l114.95-114.96c10.72-10.72,10.72-28.17,0-38.89Zm0-459.79L369.35,8.55c-10.73-10.73-28.18-10.73-38.9,0l-4.09,4.09-.29.3-.3.29.29.29.29.29.3-.29.29-.3,4.1-4.09c5.2-5.2,12.03-7.8,18.87-7.8s13.67,2.6,18.87,7.8l114.95,114.95c10.4,10.41,10.4,27.33,0,37.74-5.04,5.04-11.74,7.81-18.87,7.81s-13.83-2.77-18.87-7.81l-3.06-3.06c-.08.12-.15.24-.23.35-.07.11-.14.24-.22.35l.3.3.3.3,2.33,2.33c5.19,5.2,12.1,8.06,19.45,8.06s14.25-2.85,19.45-8.06c10.72-10.72,10.72-28.17,0-38.89Zm-157.94-34.22l-.29.3.28.29h0l.29-.3-.29-.29Zm2.2,644.8l-.29.3.29.29.29-.29-.29-.3Zm112.86-145.67s0,0-.02-.02c0-.02,0-.03-.03-.04-.04-.06-.08-.12-.14-.18-.02-.02-.03-.06-.06-.08l-.3.3c.1.11.18.21.25.33l.29-.29s0,0,0,0h0Z"/>
    <g>
      <path class="cls-1" d="m450.84,442.2c8.23,8.23,8.23,21.57,0,29.79l-96.6,96.6c-8.23,8.23-21.57,8.23-29.79,0l-6.44-6.44,87.94-87.95c8.23-8.23,8.23-21.57,0-29.79l-54.47-54.47c-8.23-8.23-8.23-21.57,0-29.79l54.47-54.47c8.23-8.23,8.23-21.57,0-29.79l-90.15-90.15,8.65-8.65c8.23-8.23,21.57-8.23,29.79,0l96.6,96.6c8.23,8.23,8.23,21.57,0,29.79l-54.47,54.47c-8.23,8.23-8.23,21.57,0,29.79l54.47,54.47Z"/>
      <path class="cls-1" d="m304.61,393.15v107.7c0,20.42-27.94,30.64-44.27,16.21-1.26-1.12-2.38-2.33-3.34-3.63,1.73-3.03,2.72-6.52,2.72-10.38V247.03c0-4.82-1.56-9.08-4.16-12.58,1.21-2.13,2.82-4.1,4.77-5.82,5.28-4.67,11.78-6.76,18.15-6.76,13.34,0,26.13,9.15,26.13,22.96v148.32Z"/>
      <g>
        <path class="cls-1" d="m439.11,125.98L326.07,12.94l-.3.29.29.29.29.29,112.48,112.48c8.79,8.79,10.16,22.25,4.09,32.48-.08.12-.15.24-.23.35-.07.11-.14.24-.22.35l.3.3c.09-.11.16-.23.22-.35.09-.11.16-.23.23-.35,6.23-10.4,4.86-24.1-4.1-33.07Zm-110.27,531.75l-.29.3-4.39,4.39c-10.58,10.57-27.73,10.57-38.32,0L17.64,394.19c-10.58-10.57-10.58-27.73,0-38.32l210.74-210.73,38.32-38.32,19.15-19.16c10.58-10.57,27.73-10.57,38.32,0l1.9,1.9.28.29h0l.29.29.29-.3-.29-.29-2.18-2.18c-10.73-10.72-28.18-10.72-38.9,0L17.35,355.59c-10.72,10.72-10.72,28.18,0,38.9l268.21,268.21c5.19,5.19,12.1,8.06,19.45,8.06s14.25-2.86,19.45-8.06l4.1-4.09.29-.29.29-.3-.3-.3Zm112.58-69.31s0,0,0,0h0s0-.02-.02-.02c0-.02,0-.03-.03-.04-.04-.06-.08-.12-.14-.18-.02-.02-.03-.06-.06-.08-.08-.11-.17-.21-.25-.32l-.3.3c.09.11.18.21.25.32.1.11.18.21.25.33,8.03,10.45,7.26,25.53-2.31,35.09l-110.27,110.27-.29.3-.3.29.3.29.29-.29.29-.29h0l110.26-110.27c9.74-9.74,10.52-25.05,2.31-35.67Z"/>
        <path class="cls-1" d="m328.84,657.73l-.29.3.3.3.29-.3-.3-.3Zm0,0l-.29.3-.29.29.3.3.29-.29.29-.3-.3-.3Zm-.29.3l-.29.29.3.3.29-.29-.3-.3ZM439.41,125.69L326.93,13.21l-.29-.29-.29-.29-.29.3-.3.29.29.29.29.29,112.48,112.48c8.79,8.79,10.16,22.25,4.09,32.48-.08.12-.15.24-.23.35-.07.11-.14.24-.22.35l.3.3.3.3c.08-.11.16-.23.22-.35.08-.11.16-.24.22-.36,6.37-10.57,5-24.54-4.1-33.65Zm2.31,462.43c-.08-.11-.16-.22-.25-.33-.08-.11-.17-.21-.25-.32l-.3.3-.3.3c.09.11.18.21.25.32.1.11.18.21.25.33,8.03,10.45,7.26,25.53-2.31,35.09l-110.27,110.27-.29.3-.3.29.3.29h0s.29.3.29.3l.3-.29.29-.3,110.27-110.27c9.88-9.88,10.66-25.49,2.31-36.27Zm-113.17,69.32l-.29.3-.29.29-4.1,4.09c-5.04,5.04-11.74,7.82-18.87,7.82s-13.83-2.77-18.87-7.82L17.92,393.91c-10.4-10.4-10.4-27.33,0-37.73L286.14,87.96c10.4-10.41,27.33-10.41,37.73,0l2.47,2.47.3-.29.29-.3-.29-.29-2.18-2.18c-10.73-10.72-28.18-10.72-38.9,0L17.35,355.59c-10.72,10.72-10.72,28.18,0,38.9l268.21,268.21c5.19,5.19,12.1,8.06,19.45,8.06s14.25-2.86,19.45-8.06l4.1-4.09.29-.29.29-.3-.58-.58Zm0,.58l-.29.29.3.3.29-.29-.3-.3Zm.29-.3l-.29.3-.29.29.3.3.29-.29.29-.3-.3-.3Z"/>
      </g>
    </g>
  </g>
</svg>