<?xml version="1.0" encoding="UTF-8"?>
<svg id="Layer_1" data-name="Layer 1" xmlns="http://www.w3.org/2000/svg" viewBox="0 0 501.02 747.91">
  <defs>
    <style>
      .cls-1 {
        fill: #4e4e50;
      }

      .cls-1, .cls-2, .cls-3, .cls-4, .cls-5, .cls-6, .cls-7, .cls-8, .cls-9, .cls-10, .cls-11, .cls-12, .cls-13, .cls-14, .cls-15, .cls-16, .cls-17, .cls-18, .cls-19, .cls-20, .cls-21, .cls-22, .cls-23 {
        stroke: #fff;
        stroke-miterlimit: 10;
      }

      .cls-1, .cls-21 {
        stroke-width: 1.41px;
      }

      .cls-2 {
        fill: #959597;
      }

      .cls-2, .cls-5 {
        stroke-width: 1.19px;
      }

      .cls-3 {
        fill: #b3b4b4;
      }

      .cls-3, .cls-11 {
        stroke-width: .97px;
      }

      .cls-4 {
        fill: #312f30;
      }

      .cls-4, .cls-12 {
        stroke-width: .74px;
      }

      .cls-5 {
        fill: #454446;
      }

      .cls-6 {
        fill: #403f40;
      }

      .cls-6, .cls-16 {
        stroke-width: 1.08px;
      }

      .cls-7 {
        fill: #f0f0f0;
      }

      .cls-7, .cls-20 {
        stroke-width: .52px;
      }

      .cls-8 {
        fill: #e1e1e1;
      }

      .cls-8, .cls-23 {
        stroke-width: .63px;
      }

      .cls-9 {
        fill: #fff;
      }

      .cls-9, .cls-17 {
        stroke-width: .41px;
      }

      .cls-10 {
        fill: #868688;
      }

      .cls-10, .cls-22 {
        stroke-width: 1.3px;
      }

      .cls-11 {
        fill: #3b393b;
      }

      .cls-12 {
        fill: #d1d2d2;
      }

      .cls-13 {
        fill: #58595b;
        stroke-width: 1.64px;
      }

      .cls-14 {
        fill: #363435;
      }

      .cls-14, .cls-19 {
        stroke-width: .86px;
      }

      .cls-15 {
        fill: #67686a;
      }

      .cls-15, .cls-18 {
        stroke-width: 1.53px;
      }

      .cls-16 {
        fill: #a4a4a6;
      }

      .cls-17 {
        fill: #231f20;
      }

      .cls-18 {
        fill: #535456;
      }

      .cls-19 {
        fill: #c2c3c3;
      }

      .cls-20 {
        fill: #282425;
      }

      .cls-21 {
        fill: #767779;
      }

      .cls-22 {
        fill: #4a494b;
      }

      .cls-23 {
        fill: #2d2a2b;
      }
    </style>
  </defs>
  <g>
    <path class="cls-13" d="m491.87,164.01c-5.29,5.29-12.22,7.93-19.15,7.93s-13.87-2.64-19.16-7.93l-2.4-2.4-.6-.6c.08-.11.15-.23.23-.35,6.06-10.23,4.7-23.68-4.09-32.48L334.22,15.71l-.29-.29.3-.29.29-.3,4.09-4.09c10.58-10.58,27.73-10.58,38.32,0l95.79,95.79,19.15,19.15c10.58,10.58,10.58,27.73,0,38.32Z"/>
    <path class="cls-13" d="m336.43,660.52l-4.1,4.09c-5.2,5.19-12.11,8.06-19.45,8.06s-14.26-2.86-19.45-8.06L25.22,396.4c-10.72-10.72-10.72-28.18,0-38.9L293.43,89.29c10.72-10.72,28.17-10.72,38.9,0l2.18,2.18-.29.3h0l-.29.29-14.48,14.49-38.32,38.32-210.74,210.73c-10.58,10.58-10.58,27.73,0,38.32l266.33,266.33-.29.29Z"/>
    <path class="cls-13" d="m491.87,623.81l-114.95,114.95c-10.58,10.58-27.73,10.58-38.32,0l-1.89-1.89-.3-.3-.29-.29.29-.3,110.27-110.27c9.56-9.56,10.34-24.64,2.31-35.09-.07-.11-.16-.22-.25-.33l.3-.3,4.51-4.51c10.58-10.58,27.73-10.58,38.32,0,10.58,10.58,10.58,27.73,0,38.32Z"/>
    <path class="cls-13" d="m449.29,590.32s0,0-.02-.02c0-.02,0-.03-.03-.04-.04-.06-.08-.12-.14-.18-.02-.02-.03-.06-.06-.08l-.3.3c.1.11.18.21.25.33l.29-.29s0,0,0,0h0Zm0,0s0,0-.02-.02c0-.02,0-.03-.03-.04-.04-.06-.08-.12-.14-.18-.02-.02-.03-.06-.06-.08l-.3.3c.1.11.18.21.25.33l.29-.29s0,0,0,0h0Zm0,0s0,0-.02-.02c0-.02,0-.03-.03-.04-.04-.06-.08-.12-.14-.18-.02-.02-.03-.06-.06-.08l-.3.3c.1.11.18.21.25.33l.29-.29s0,0,0,0h0Zm-112.86,69.62l-.29.29.3.3.29-.29-.3-.3Zm0,76.05l-.29.3.29.29.29-.29-.29-.3Zm-2.2-644.8l-.29.3.28.29h0l.29-.3-.29-.29Zm2.2,644.8l-.29.3.29.29.29-.29-.29-.3Zm-2.2-644.8l-.29.3.28.29h0l.29-.3-.29-.29Zm2.2,568.17L70.68,393.62c-10.4-10.41-10.4-27.33,0-37.74L334.22,92.34l.3-.29.29-.3-.29-.29-.29-.29-.29.3-.3.29L70.1,355.31c-10.72,10.72-10.72,28.17,0,38.89l265.74,265.74.29.29.3.3.29-.29.29-.3-.58-.58Zm155.74-74.15c-5.2-5.2-12.11-8.06-19.45-8.06s-14.26,2.85-19.45,8.06l-4.18,4.18-.3.3-.3.3c.09.11.18.21.25.32.1.11.18.21.25.33l.29-.29s0,0,0,0l4.55-4.55c10.4-10.4,27.32-10.4,37.73,0,10.4,10.41,10.4,27.33,0,37.74l-114.95,114.95c-10.4,10.4-27.33,10.4-37.73,0l-1.89-1.89-.29-.29h0l-.29-.3-.29.3-.3.29.3.29h0s2.18,2.19,2.18,2.19c5.36,5.36,12.4,8.04,19.45,8.04s14.08-2.68,19.45-8.04l114.95-114.96c10.72-10.72,10.72-28.17,0-38.89Zm0-459.79L377.22,10.46c-10.73-10.73-28.18-10.73-38.9,0l-4.09,4.09-.29.3-.3.29.29.29.29.29.3-.29.29-.3,4.1-4.09c5.2-5.2,12.03-7.8,18.87-7.8s13.67,2.6,18.87,7.8l114.95,114.95c10.4,10.41,10.4,27.33,0,37.74-5.04,5.04-11.74,7.81-18.87,7.81s-13.83-2.77-18.87-7.81l-3.06-3.06c-.08.12-.15.24-.23.35-.07.11-.14.24-.22.35l.3.3.3.3,2.33,2.33c5.19,5.2,12.1,8.06,19.45,8.06s14.25-2.85,19.45-8.06c10.72-10.72,10.72-28.17,0-38.89Zm-157.94-34.22l-.29.3.28.29h0l.29-.3-.29-.29Zm2.2,644.8l-.29.3.29.29.29-.29-.29-.3Z"/>
    <g>
      <path class="cls-13" d="m458.71,444.11c8.23,8.23,8.23,21.57,0,29.79l-96.6,96.6c-8.23,8.23-21.57,8.23-29.79,0l-6.44-6.44,87.94-87.95c8.23-8.23,8.23-21.57,0-29.79l-54.47-54.47c-8.23-8.23-8.23-21.57,0-29.79l54.47-54.47c8.23-8.23,8.23-21.57,0-29.79l-90.15-90.15,8.65-8.65c8.23-8.23,21.57-8.23,29.79,0l96.6,96.6c8.23,8.23,8.23,21.57,0,29.79l-54.47,54.47c-8.23,8.23-8.23,21.57,0,29.79l54.47,54.47Z"/>
      <path class="cls-13" d="m312.48,395.06v107.7c0,20.42-27.94,30.64-44.27,16.21-1.26-1.12-2.38-2.33-3.34-3.63,1.73-3.03,2.72-6.52,2.72-10.38V248.94c0-4.82-1.56-9.08-4.16-12.58,1.21-2.13,2.82-4.1,4.77-5.82,5.28-4.67,11.78-6.76,18.15-6.76,13.34,0,26.13,9.15,26.13,22.96v148.32Z"/>
      <g>
        <path class="cls-13" d="m449.29,590.34s0,0,0,0h0s0-.02-.02-.02c0-.02,0-.03-.03-.04-.04-.06-.08-.12-.14-.18-.02-.02-.03-.06-.06-.08-.08-.11-.17-.21-.25-.32l-.3.3c.09.11.18.21.25.32.1.11.18.21.25.33,8.03,10.45,7.26,25.53-2.31,35.09l-110.27,110.27-.29.3-.3.29.3.29.29-.29.29-.29h0l110.26-110.27c9.74-9.74,10.52-25.05,2.31-35.67Zm-2.31-462.44L333.94,14.85l-.3.29.29.29.29.29,112.48,112.48c8.79,8.79,10.16,22.25,4.09,32.48-.08.12-.15.24-.23.35-.07.11-.14.24-.22.35l.3.3c.09-.11.16-.23.22-.35.09-.11.16-.23.23-.35,6.23-10.4,4.86-24.1-4.1-33.07Zm-110.27,531.75l-.29.3-4.39,4.39c-10.58,10.57-27.73,10.57-38.32,0L25.5,396.11c-10.58-10.57-10.58-27.73,0-38.32l210.74-210.73,38.32-38.32,19.15-19.16c10.58-10.57,27.73-10.57,38.32,0l1.9,1.9.28.29h0l.29.29.29-.3-.29-.29-2.18-2.18c-10.73-10.72-28.18-10.72-38.9,0L25.22,357.5c-10.72,10.72-10.72,28.18,0,38.9l268.21,268.21c5.19,5.19,12.1,8.06,19.45,8.06s14.25-2.86,19.45-8.06l4.1-4.09.29-.29.29-.3-.3-.3Z"/>
        <path class="cls-13" d="m336.71,659.65l-.29.3.3.3.29-.3-.3-.3Zm0,0l-.29.3-.29.29.3.3.29-.29.29-.3-.3-.3Zm0,0l-.29.3-.29.29.3.3.29-.29.29-.3-.3-.3Zm-.29.3l-.29.29.3.3.29-.29-.3-.3ZM447.28,127.61L334.8,15.13l-.29-.29-.29-.29-.29.3-.3.29.29.29.29.29,112.48,112.48c8.79,8.79,10.16,22.25,4.09,32.48-.08.12-.15.24-.23.35-.07.11-.14.24-.22.35l.3.3.3.3c.08-.11.16-.23.22-.35.08-.11.16-.24.22-.36,6.37-10.57,5-24.54-4.1-33.65Zm2.31,462.43c-.08-.11-.16-.22-.25-.33-.08-.11-.17-.21-.25-.32l-.3.3-.3.3c.09.11.18.21.25.32.1.11.18.21.25.33,8.03,10.45,7.26,25.53-2.31,35.09l-110.27,110.27-.29.3-.3.29.3.29h0s.29.3.29.3l.3-.29.29-.3,110.27-110.27c9.88-9.88,10.66-25.49,2.31-36.27Zm-113.17,69.32l-.29.3-.29.29-4.1,4.09c-5.04,5.04-11.74,7.82-18.87,7.82s-13.83-2.77-18.87-7.82L25.79,395.82c-10.4-10.4-10.4-27.33,0-37.73L294.01,89.87c10.4-10.41,27.33-10.41,37.73,0l2.47,2.47.3-.29.29-.3-.29-.29-2.18-2.18c-10.73-10.72-28.18-10.72-38.9,0L25.22,357.5c-10.72,10.72-10.72,28.18,0,38.9l268.21,268.21c5.19,5.19,12.1,8.06,19.45,8.06s14.25-2.86,19.45-8.06l4.1-4.09.29-.29.29-.3-.58-.58Zm0,.58l-.29.29.3.3.29-.29-.3-.3Z"/>
      </g>
    </g>
  </g>
  <g>
    <path class="cls-18" d="m490.33,163.81c-5.29,5.29-12.22,7.93-19.15,7.93s-13.87-2.64-19.16-7.93l-2.4-2.4-.6-.6c.08-.11.15-.23.23-.35,6.06-10.23,4.7-23.68-4.09-32.48L332.67,15.51l-.29-.29.3-.29.29-.3,4.09-4.09c10.58-10.58,27.73-10.58,38.32,0l95.79,95.79,19.15,19.15c10.58,10.58,10.58,27.73,0,38.32Z"/>
    <path class="cls-18" d="m334.89,660.32l-4.1,4.09c-5.2,5.19-12.11,8.06-19.45,8.06s-14.26-2.86-19.45-8.06L23.67,396.2c-10.72-10.72-10.72-28.18,0-38.9L291.89,89.09c10.72-10.72,28.17-10.72,38.9,0l2.18,2.18-.29.3h0l-.29.29-14.48,14.49-38.32,38.32-210.74,210.73c-10.58,10.58-10.58,27.73,0,38.32l266.33,266.33-.29.29Z"/>
    <path class="cls-18" d="m490.33,623.61l-114.95,114.95c-10.58,10.58-27.73,10.58-38.32,0l-1.89-1.89-.3-.3-.29-.29.29-.3,110.27-110.27c9.56-9.56,10.34-24.64,2.31-35.09-.07-.11-.16-.22-.25-.33l.3-.3,4.51-4.51c10.58-10.58,27.73-10.58,38.32,0,10.58,10.58,10.58,27.73,0,38.32Z"/>
    <path class="cls-18" d="m447.74,590.12s0,0-.02-.02c0-.02,0-.03-.03-.04-.04-.06-.08-.12-.14-.18-.02-.02-.03-.06-.06-.08l-.3.3c.1.11.18.21.25.33l.29-.29s0,0,0,0h0Zm0,0s0,0-.02-.02c0-.02,0-.03-.03-.04-.04-.06-.08-.12-.14-.18-.02-.02-.03-.06-.06-.08l-.3.3c.1.11.18.21.25.33l.29-.29s0,0,0,0h0Zm0,0s0,0-.02-.02c0-.02,0-.03-.03-.04-.04-.06-.08-.12-.14-.18-.02-.02-.03-.06-.06-.08l-.3.3c.1.11.18.21.25.33l.29-.29s0,0,0,0h0Zm-112.86,69.62l-.29.29.3.3.29-.29-.3-.3Zm0,76.05l-.29.3.29.29.29-.29-.29-.3Zm-2.2-644.8l-.29.3.28.29h0l.29-.3-.29-.29Zm2.2,644.8l-.29.3.29.29.29-.29-.29-.3Zm-2.2-644.8l-.29.3.28.29h0l.29-.3-.29-.29Zm2.2,568.17L69.14,393.42c-10.4-10.41-10.4-27.33,0-37.74L332.67,92.14l.3-.29.29-.3-.29-.29-.29-.29-.29.3-.3.29L68.56,355.11c-10.72,10.72-10.72,28.17,0,38.89l265.74,265.74.29.29.3.3.29-.29.29-.3-.58-.58Zm155.74-74.15c-5.2-5.2-12.11-8.06-19.45-8.06s-14.26,2.85-19.45,8.06l-4.18,4.18-.3.3-.3.3c.09.11.18.21.25.32.1.11.18.21.25.33l.29-.29s0,0,0,0l4.55-4.55c10.4-10.4,27.32-10.4,37.73,0,10.4,10.41,10.4,27.33,0,37.74l-114.95,114.95c-10.4,10.4-27.33,10.4-37.73,0l-1.89-1.89-.29-.29h0l-.29-.3-.29.3-.3.29.3.29h0s2.18,2.19,2.18,2.19c5.36,5.36,12.4,8.04,19.45,8.04s14.08-2.68,19.45-8.04l114.95-114.96c10.72-10.72,10.72-28.17,0-38.89Zm0-459.79L375.67,10.26c-10.73-10.73-28.18-10.73-38.9,0l-4.09,4.09-.29.3-.3.29.29.29.29.29.3-.29.29-.3,4.1-4.09c5.2-5.2,12.03-7.8,18.87-7.8s13.67,2.6,18.87,7.8l114.95,114.95c10.4,10.41,10.4,27.33,0,37.74-5.04,5.04-11.74,7.81-18.87,7.81s-13.83-2.77-18.87-7.81l-3.06-3.06c-.08.12-.15.24-.23.35-.07.11-.14.24-.22.35l.3.3.3.3,2.33,2.33c5.19,5.2,12.1,8.06,19.45,8.06s14.25-2.85,19.45-8.06c10.72-10.72,10.72-28.17,0-38.89Zm-157.94-34.22l-.29.3.28.29h0l.29-.3-.29-.29Zm2.2,644.8l-.29.3.29.29.29-.29-.29-.3Z"/>
    <g>
      <path class="cls-18" d="m457.17,443.91c8.23,8.23,8.23,21.57,0,29.79l-96.6,96.6c-8.23,8.23-21.57,8.23-29.79,0l-6.44-6.44,87.94-87.95c8.23-8.23,8.23-21.57,0-29.79l-54.47-54.47c-8.23-8.23-8.23-21.57,0-29.79l54.47-54.47c8.23-8.23,8.23-21.57,0-29.79l-90.15-90.15,8.65-8.65c8.23-8.23,21.57-8.23,29.79,0l96.6,96.6c8.23,8.23,8.23,21.57,0,29.79l-54.47,54.47c-8.23,8.23-8.23,21.57,0,29.79l54.47,54.47Z"/>
      <path class="cls-18" d="m310.94,394.86v107.7c0,20.42-27.94,30.64-44.27,16.21-1.26-1.12-2.38-2.33-3.34-3.63,1.73-3.03,2.72-6.52,2.72-10.38V248.74c0-4.82-1.56-9.08-4.16-12.58,1.21-2.13,2.82-4.1,4.77-5.82,5.28-4.67,11.78-6.76,18.15-6.76,13.34,0,26.13,9.15,26.13,22.96v148.32Z"/>
      <g>
        <path class="cls-15" d="m447.74,590.14s0,0,0,0h0s0-.02-.02-.02c0-.02,0-.03-.03-.04-.04-.06-.08-.12-.14-.18-.02-.02-.03-.06-.06-.08-.08-.11-.17-.21-.25-.32l-.3.3c.09.11.18.21.25.32.1.11.18.21.25.33,8.03,10.45,7.26,25.53-2.31,35.09l-110.27,110.27-.29.3-.3.29.3.29.29-.29.29-.29h0l110.26-110.27c9.74-9.74,10.52-25.05,2.31-35.67Zm-2.31-462.44L332.39,14.65l-.3.29.29.29.29.29,112.48,112.48c8.79,8.79,10.16,22.25,4.09,32.48-.08.12-.15.24-.23.35-.07.11-.14.24-.22.35l.3.3c.09-.11.16-.23.22-.35.09-.11.16-.23.23-.35,6.23-10.4,4.86-24.1-4.1-33.07Zm-110.27,531.75l-.29.3-4.39,4.39c-10.58,10.57-27.73,10.57-38.32,0L23.96,395.91c-10.58-10.57-10.58-27.73,0-38.32l210.74-210.73,38.32-38.32,19.15-19.16c10.58-10.57,27.73-10.57,38.32,0l1.9,1.9.28.29h0l.29.29.29-.3-.29-.29-2.18-2.18c-10.73-10.72-28.18-10.72-38.9,0L23.67,357.3c-10.72,10.72-10.72,28.18,0,38.9l268.21,268.21c5.19,5.19,12.1,8.06,19.45,8.06s14.25-2.86,19.45-8.06l4.1-4.09.29-.29.29-.3-.3-.3Z"/>
        <path class="cls-15" d="m335.17,659.44l-.29.3.3.3.29-.3-.3-.3Zm0,0l-.29.3-.29.29.3.3.29-.29.29-.3-.3-.3Zm0,0l-.29.3-.29.29.3.3.29-.29.29-.3-.3-.3Zm-.29.3l-.29.29.3.3.29-.29-.3-.3ZM445.73,127.41L333.25,14.93l-.29-.29-.29-.29-.29.3-.3.29.29.29.29.29,112.48,112.48c8.79,8.79,10.16,22.25,4.09,32.48-.08.12-.15.24-.23.35-.07.11-.14.24-.22.35l.3.3.3.3c.08-.11.16-.23.22-.35.08-.11.16-.24.22-.36,6.37-10.57,5-24.54-4.1-33.65Zm2.31,462.43c-.08-.11-.16-.22-.25-.33-.08-.11-.17-.21-.25-.32l-.3.3-.3.3c.09.11.18.21.25.32.1.11.18.21.25.33,8.03,10.45,7.26,25.53-2.31,35.09l-110.27,110.27-.29.3-.3.29.3.29h0s.29.3.29.3l.3-.29.29-.3,110.27-110.27c9.88-9.88,10.66-25.49,2.31-36.27Zm-113.17,69.32l-.29.3-.29.29-4.1,4.09c-5.04,5.04-11.74,7.82-18.87,7.82s-13.83-2.77-18.87-7.82L24.25,395.62c-10.4-10.4-10.4-27.33,0-37.73L292.47,89.67c10.4-10.41,27.33-10.41,37.73,0l2.47,2.47.3-.29.29-.3-.29-.29-2.18-2.18c-10.73-10.72-28.18-10.72-38.9,0L23.67,357.3c-10.72,10.72-10.72,28.18,0,38.9l268.21,268.21c5.19,5.19,12.1,8.06,19.45,8.06s14.25-2.86,19.45-8.06l4.1-4.09.29-.29.29-.3-.58-.58Zm0,.58l-.29.29.3.3.29-.29-.3-.3Z"/>
      </g>
    </g>
  </g>
  <g>
    <path class="cls-1" d="m488.78,163.61c-5.29,5.29-12.22,7.93-19.15,7.93s-13.87-2.64-19.16-7.93l-2.4-2.4-.6-.6c.08-.11.15-.23.23-.35,6.06-10.23,4.7-23.68-4.09-32.48L331.13,15.31l-.29-.29.3-.29.29-.3,4.09-4.09c10.58-10.58,27.73-10.58,38.32,0l95.79,95.79,19.15,19.15c10.58,10.58,10.58,27.73,0,38.32Z"/>
    <path class="cls-1" d="m333.34,660.12l-4.1,4.09c-5.2,5.19-12.11,8.06-19.45,8.06s-14.26-2.86-19.45-8.06L22.13,396c-10.72-10.72-10.72-28.18,0-38.9L290.34,88.89c10.72-10.72,28.17-10.72,38.9,0l2.18,2.18-.29.3h0l-.29.29-14.48,14.49-38.32,38.32-210.74,210.73c-10.58,10.58-10.58,27.73,0,38.32l266.33,266.33-.29.29Z"/>
    <path class="cls-1" d="m488.78,623.4l-114.95,114.95c-10.58,10.58-27.73,10.58-38.32,0l-1.89-1.89-.3-.3-.29-.29.29-.3,110.27-110.27c9.56-9.56,10.34-24.64,2.31-35.09-.07-.11-.16-.22-.25-.33l.3-.3,4.51-4.51c10.58-10.58,27.73-10.58,38.32,0,10.58,10.58,10.58,27.73,0,38.32Z"/>
    <path class="cls-1" d="m446.2,589.92s0,0-.02-.02c0-.02,0-.03-.03-.04-.04-.06-.08-.12-.14-.18-.02-.02-.03-.06-.06-.08l-.3.3c.1.11.18.21.25.33l.29-.29s0,0,0,0h0Zm0,0s0,0-.02-.02c0-.02,0-.03-.03-.04-.04-.06-.08-.12-.14-.18-.02-.02-.03-.06-.06-.08l-.3.3c.1.11.18.21.25.33l.29-.29s0,0,0,0h0Zm0,0s0,0-.02-.02c0-.02,0-.03-.03-.04-.04-.06-.08-.12-.14-.18-.02-.02-.03-.06-.06-.08l-.3.3c.1.11.18.21.25.33l.29-.29s0,0,0,0h0Zm-112.86,69.62l-.29.29.3.3.29-.29-.3-.3Zm0,76.05l-.29.3.29.29.29-.29-.29-.3Zm-2.2-644.8l-.29.3.28.29h0l.29-.3-.29-.29Zm2.2,644.8l-.29.3.29.29.29-.29-.29-.3Zm-2.2-644.8l-.29.3.28.29h0l.29-.3-.29-.29Zm2.2,568.17L67.59,393.22c-10.4-10.41-10.4-27.33,0-37.74L331.13,91.94l.3-.29.29-.3-.29-.29-.29-.29-.29.3-.3.29L67.02,354.9c-10.72,10.72-10.72,28.17,0,38.89l265.74,265.74.29.29.3.3.29-.29.29-.3-.58-.58Zm155.74-74.15c-5.2-5.2-12.11-8.06-19.45-8.06s-14.26,2.85-19.45,8.06l-4.18,4.18-.3.3-.3.3c.09.11.18.21.25.32.1.11.18.21.25.33l.29-.29s0,0,0,0l4.55-4.55c10.4-10.4,27.32-10.4,37.73,0,10.4,10.41,10.4,27.33,0,37.74l-114.95,114.95c-10.4,10.4-27.33,10.4-37.73,0l-1.89-1.89-.29-.29h0l-.29-.3-.29.3-.3.29.3.29h0s2.18,2.19,2.18,2.19c5.36,5.36,12.4,8.04,19.45,8.04s14.08-2.68,19.45-8.04l114.95-114.96c10.72-10.72,10.72-28.17,0-38.89Zm0-459.79L374.13,10.06c-10.73-10.73-28.18-10.73-38.9,0l-4.09,4.09-.29.3-.3.29.29.29.29.29.3-.29.29-.3,4.1-4.09c5.2-5.2,12.03-7.8,18.87-7.8s13.67,2.6,18.87,7.8l114.95,114.95c10.4,10.41,10.4,27.33,0,37.74-5.04,5.04-11.74,7.81-18.87,7.81s-13.83-2.77-18.87-7.81l-3.06-3.06c-.08.12-.15.24-.23.35-.07.11-.14.24-.22.35l.3.3.3.3,2.33,2.33c5.19,5.2,12.1,8.06,19.45,8.06s14.25-2.85,19.45-8.06c10.72-10.72,10.72-28.17,0-38.89Zm-157.94-34.22l-.29.3.28.29h0l.29-.3-.29-.29Zm2.2,644.8l-.29.3.29.29.29-.29-.29-.3Z"/>
    <g>
      <path class="cls-1" d="m455.63,443.71c8.23,8.23,8.23,21.57,0,29.79l-96.6,96.6c-8.23,8.23-21.57,8.23-29.79,0l-6.44-6.44,87.94-87.95c8.23-8.23,8.23-21.57,0-29.79l-54.47-54.47c-8.23-8.23-8.23-21.57,0-29.79l54.47-54.47c8.23-8.23,8.23-21.57,0-29.79l-90.15-90.15,8.65-8.65c8.23-8.23,21.57-8.23,29.79,0l96.6,96.6c8.23,8.23,8.23,21.57,0,29.79l-54.47,54.47c-8.23,8.23-8.23,21.57,0,29.79l54.47,54.47Z"/>
      <path class="cls-1" d="m309.4,394.66v107.7c0,20.42-27.94,30.64-44.27,16.21-1.26-1.12-2.38-2.33-3.34-3.63,1.73-3.03,2.72-6.52,2.72-10.38V248.54c0-4.82-1.56-9.08-4.16-12.58,1.21-2.13,2.82-4.1,4.77-5.82,5.28-4.67,11.78-6.76,18.15-6.76,13.34,0,26.13,9.15,26.13,22.96v148.32Z"/>
      <g>
        <path class="cls-21" d="m446.2,589.94s0,0,0,0h0s0-.02-.02-.02c0-.02,0-.03-.03-.04-.04-.06-.08-.12-.14-.18-.02-.02-.03-.06-.06-.08-.08-.11-.17-.21-.25-.32l-.3.3c.09.11.18.21.25.32.1.11.18.21.25.33,8.03,10.45,7.26,25.53-2.31,35.09l-110.27,110.27-.29.3-.3.29.3.29.29-.29.29-.29h0l110.26-110.27c9.74-9.74,10.52-25.05,2.31-35.67Zm-2.31-462.44L330.85,14.45l-.3.29.29.29.29.29,112.48,112.48c8.79,8.79,10.16,22.25,4.09,32.48-.08.12-.15.24-.23.35-.07.11-.14.24-.22.35l.3.3c.09-.11.16-.23.22-.35.09-.11.16-.23.23-.35,6.23-10.4,4.86-24.1-4.1-33.07Zm-110.27,531.75l-.29.3-4.39,4.39c-10.58,10.57-27.73,10.57-38.32,0L22.42,395.71c-10.58-10.57-10.58-27.73,0-38.32l210.74-210.73,38.32-38.32,19.15-19.16c10.58-10.57,27.73-10.57,38.32,0l1.9,1.9.28.29h0l.29.29.29-.3-.29-.29-2.18-2.18c-10.73-10.72-28.18-10.72-38.9,0L22.13,357.1c-10.72,10.72-10.72,28.18,0,38.9l268.21,268.21c5.19,5.19,12.1,8.06,19.45,8.06s14.25-2.86,19.45-8.06l4.1-4.09.29-.29.29-.3-.3-.3Z"/>
        <path class="cls-21" d="m333.62,659.24l-.29.3.3.3.29-.3-.3-.3Zm0,0l-.29.3-.29.29.3.3.29-.29.29-.3-.3-.3Zm0,0l-.29.3-.29.29.3.3.29-.29.29-.3-.3-.3Zm-.29.3l-.29.29.3.3.29-.29-.3-.3ZM444.19,127.21L331.71,14.73l-.29-.29-.29-.29-.29.3-.3.29.29.29.29.29,112.48,112.48c8.79,8.79,10.16,22.25,4.09,32.48-.08.12-.15.24-.23.35-.07.11-.14.24-.22.35l.3.3.3.3c.08-.11.16-.23.22-.35.08-.11.16-.24.22-.36,6.37-10.57,5-24.54-4.1-33.65Zm2.31,462.43c-.08-.11-.16-.22-.25-.33-.08-.11-.17-.21-.25-.32l-.3.3-.3.3c.09.11.18.21.25.32.1.11.18.21.25.33,8.03,10.45,7.26,25.53-2.31,35.09l-110.27,110.27-.29.3-.3.29.3.29h0s.29.3.29.3l.3-.29.29-.3,110.27-110.27c9.88-9.88,10.66-25.49,2.31-36.27Zm-113.17,69.32l-.29.3-.29.29-4.1,4.09c-5.04,5.04-11.74,7.82-18.87,7.82s-13.83-2.77-18.87-7.82L22.71,395.42c-10.4-10.4-10.4-27.33,0-37.73L290.93,89.47c10.4-10.41,27.33-10.41,37.73,0l2.47,2.47.3-.29.29-.3-.29-.29-2.18-2.18c-10.73-10.72-28.18-10.72-38.9,0L22.13,357.1c-10.72,10.72-10.72,28.18,0,38.9l268.21,268.21c5.19,5.19,12.1,8.06,19.45,8.06s14.25-2.86,19.45-8.06l4.1-4.09.29-.29.29-.3-.58-.58Zm0,.58l-.29.29.3.3.29-.29-.3-.3Z"/>
      </g>
    </g>
  </g>
  <g>
    <path class="cls-22" d="m487.24,163.41c-5.29,5.29-12.22,7.93-19.15,7.93s-13.87-2.64-19.16-7.93l-2.4-2.4-.6-.6c.08-.11.15-.23.23-.35,6.06-10.23,4.7-23.68-4.09-32.48L329.59,15.11l-.29-.29.3-.29.29-.3,4.09-4.09c10.58-10.58,27.73-10.58,38.32,0l95.79,95.79,19.15,19.15c10.58,10.58,10.58,27.73,0,38.32Z"/>
    <path class="cls-22" d="m331.8,659.92l-4.1,4.09c-5.2,5.19-12.11,8.06-19.45,8.06s-14.26-2.86-19.45-8.06L20.59,395.8c-10.72-10.72-10.72-28.18,0-38.9L288.8,88.69c10.72-10.72,28.17-10.72,38.9,0l2.18,2.18-.29.3h0l-.29.29-14.48,14.49-38.32,38.32-210.74,210.73c-10.58,10.58-10.58,27.73,0,38.32l266.33,266.33-.29.29Z"/>
    <path class="cls-22" d="m487.24,623.2l-114.95,114.95c-10.58,10.58-27.73,10.58-38.32,0l-1.89-1.89-.3-.3-.29-.29.29-.3,110.27-110.27c9.56-9.56,10.34-24.64,2.31-35.09-.07-.11-.16-.22-.25-.33l.3-.3,4.51-4.51c10.58-10.58,27.73-10.58,38.32,0s10.58,27.73,0,38.32Z"/>
    <path class="cls-22" d="m444.66,589.72s0,0-.02-.02c0-.02,0-.03-.03-.04-.04-.06-.08-.12-.14-.18-.02-.02-.03-.06-.06-.08l-.3.3c.1.11.18.21.25.33l.29-.29s0,0,0,0h0Zm0,0s0,0-.02-.02c0-.02,0-.03-.03-.04-.04-.06-.08-.12-.14-.18-.02-.02-.03-.06-.06-.08l-.3.3c.1.11.18.21.25.33l.29-.29s0,0,0,0h0Zm0,0s0,0-.02-.02c0-.02,0-.03-.03-.04-.04-.06-.08-.12-.14-.18-.02-.02-.03-.06-.06-.08l-.3.3c.1.11.18.21.25.33l.29-.29s0,0,0,0h0Zm-112.86,69.62l-.29.29.3.3.29-.29-.3-.3Zm0,76.05l-.29.3.29.29.29-.29-.29-.3Zm-2.2-644.8l-.29.3.28.29h0l.29-.3-.29-.29Zm2.2,644.8l-.29.3.29.29.29-.29-.29-.3Zm-2.2-644.8l-.29.3.28.29h0l.29-.3-.29-.29Zm2.2,568.17L66.05,393.02c-10.4-10.41-10.4-27.33,0-37.74L329.59,91.74l.3-.29.29-.3-.29-.29-.29-.29-.29.3-.3.29L65.48,354.7c-10.72,10.72-10.72,28.17,0,38.89l265.74,265.74.29.29.3.3.29-.29.29-.3-.58-.58Zm155.74-74.15c-5.2-5.2-12.11-8.06-19.45-8.06s-14.26,2.85-19.45,8.06l-4.18,4.18-.3.3-.3.3c.09.11.18.21.25.32.1.11.18.21.25.33l.29-.29s0,0,0,0l4.55-4.55c10.4-10.4,27.32-10.4,37.73,0,10.4,10.41,10.4,27.33,0,37.74l-114.95,114.95c-10.4,10.4-27.33,10.4-37.73,0l-1.89-1.89-.29-.29h0l-.29-.3-.29.3-.3.29.3.29h0s2.18,2.19,2.18,2.19c5.36,5.36,12.4,8.04,19.45,8.04s14.08-2.68,19.45-8.04l114.95-114.96c10.72-10.72,10.72-28.17,0-38.89Zm0-459.79L372.59,9.86c-10.73-10.73-28.18-10.73-38.9,0l-4.09,4.09-.29.3-.3.29.29.29.29.29.3-.29.29-.3,4.1-4.09c5.2-5.2,12.03-7.8,18.87-7.8s13.67,2.6,18.87,7.8l114.95,114.95c10.4,10.41,10.4,27.33,0,37.74-5.04,5.04-11.74,7.81-18.87,7.81s-13.83-2.77-18.87-7.81l-3.06-3.06c-.08.12-.15.24-.23.35-.07.11-.14.24-.22.35l.3.3.3.3,2.33,2.33c5.19,5.2,12.1,8.06,19.45,8.06s14.25-2.85,19.45-8.06c10.72-10.72,10.72-28.17,0-38.89Zm-157.94-34.22l-.29.3.28.29h0l.29-.3-.29-.29Zm2.2,644.8l-.29.3.29.29.29-.29-.29-.3Z"/>
    <g>
      <path class="cls-22" d="m454.08,443.51c8.23,8.23,8.23,21.57,0,29.79l-96.6,96.6c-8.23,8.23-21.57,8.23-29.79,0l-6.44-6.44,87.94-87.95c8.23-8.23,8.23-21.57,0-29.79l-54.47-54.47c-8.23-8.23-8.23-21.57,0-29.79l54.47-54.47c8.23-8.23,8.23-21.57,0-29.79l-90.15-90.15,8.65-8.65c8.23-8.23,21.57-8.23,29.79,0l96.6,96.6c8.23,8.23,8.23,21.57,0,29.79l-54.47,54.47c-8.23,8.23-8.23,21.57,0,29.79l54.47,54.47Z"/>
      <path class="cls-22" d="m307.85,394.46v107.7c0,20.42-27.94,30.64-44.27,16.21-1.26-1.12-2.38-2.33-3.34-3.63,1.73-3.03,2.72-6.52,2.72-10.38V248.34c0-4.82-1.56-9.08-4.16-12.58,1.21-2.13,2.82-4.1,4.77-5.82,5.28-4.67,11.78-6.76,18.15-6.76,13.34,0,26.13,9.15,26.13,22.96v148.32Z"/>
      <g>
        <path class="cls-10" d="m444.66,589.74s0,0,0,0h0s0-.02-.02-.02c0-.02,0-.03-.03-.04-.04-.06-.08-.12-.14-.18-.02-.02-.03-.06-.06-.08-.08-.11-.17-.21-.25-.32l-.3.3c.09.11.18.21.25.32.1.11.18.21.25.33,8.03,10.45,7.26,25.53-2.31,35.09l-110.27,110.27-.29.3-.3.29.3.29.29-.29.29-.29h0l110.26-110.27c9.74-9.74,10.52-25.05,2.31-35.67Zm-2.31-462.44L329.31,14.25l-.3.29.29.29.29.29,112.48,112.48c8.79,8.79,10.16,22.25,4.09,32.48-.08.12-.15.24-.23.35-.07.11-.14.24-.22.35l.3.3c.09-.11.16-.23.22-.35.09-.11.16-.23.23-.35,6.23-10.4,4.86-24.1-4.1-33.07Zm-110.27,531.75l-.29.3-4.39,4.39c-10.58,10.57-27.73,10.57-38.32,0L20.88,395.51c-10.58-10.57-10.58-27.73,0-38.32l210.74-210.73,38.32-38.32,19.15-19.16c10.58-10.57,27.73-10.57,38.32,0l1.9,1.9.28.29h0l.29.29.29-.3-.29-.29-2.18-2.18c-10.73-10.72-28.18-10.72-38.9,0L20.59,356.9c-10.72,10.72-10.72,28.18,0,38.9l268.21,268.21c5.19,5.19,12.1,8.06,19.45,8.06s14.25-2.86,19.45-8.06l4.1-4.09.29-.29.29-.3-.3-.3Z"/>
        <path class="cls-10" d="m332.08,659.04l-.29.3.3.3.29-.3-.3-.3Zm0,0l-.29.3-.29.29.3.3.29-.29.29-.3-.3-.3Zm0,0l-.29.3-.29.29.3.3.29-.29.29-.3-.3-.3Zm-.29.3l-.29.29.3.3.29-.29-.3-.3ZM442.65,127.01L330.17,14.53l-.29-.29-.29-.29-.29.3-.3.29.29.29.29.29,112.48,112.48c8.79,8.79,10.16,22.25,4.09,32.48-.08.12-.15.24-.23.35-.07.11-.14.24-.22.35l.3.3.3.3c.08-.11.16-.23.22-.35.08-.11.16-.24.22-.36,6.37-10.57,5-24.54-4.1-33.65Zm2.31,462.43c-.08-.11-.16-.22-.25-.33-.08-.11-.17-.21-.25-.32l-.3.3-.3.3c.09.11.18.21.25.32.1.11.18.21.25.33,8.03,10.45,7.26,25.53-2.31,35.09l-110.27,110.27-.29.3-.3.29.3.29h0s.29.3.29.3l.3-.29.29-.3,110.27-110.27c9.88-9.88,10.66-25.49,2.31-36.27Zm-113.17,69.32l-.29.3-.29.29-4.1,4.09c-5.04,5.04-11.74,7.82-18.87,7.82s-13.83-2.77-18.87-7.82L21.16,395.22c-10.4-10.4-10.4-27.33,0-37.73L289.38,89.27c10.4-10.41,27.33-10.41,37.73,0l2.47,2.47.3-.29.29-.3-.29-.29-2.18-2.18c-10.73-10.72-28.18-10.72-38.9,0L20.59,356.9c-10.72,10.72-10.72,28.18,0,38.9l268.21,268.21c5.19,5.19,12.1,8.06,19.45,8.06s14.25-2.86,19.45-8.06l4.1-4.09.29-.29.29-.3-.58-.58Zm0,.58l-.29.29.3.3.29-.29-.3-.3Z"/>
      </g>
    </g>
  </g>
  <g>
    <path class="cls-5" d="m485.7,163.21c-5.29,5.29-12.22,7.93-19.15,7.93s-13.87-2.64-19.16-7.93l-2.4-2.4-.6-.6c.08-.11.15-.23.23-.35,6.06-10.23,4.7-23.68-4.09-32.48L328.04,14.91l-.29-.29.3-.29.29-.3,4.09-4.09c10.58-10.58,27.73-10.58,38.32,0l95.79,95.79,19.15,19.15c10.58,10.58,10.58,27.73,0,38.32Z"/>
    <path class="cls-5" d="m330.26,659.72l-4.1,4.09c-5.2,5.19-12.11,8.06-19.45,8.06s-14.26-2.86-19.45-8.06L19.05,395.6c-10.72-10.72-10.72-28.18,0-38.9L287.26,88.49c10.72-10.72,28.17-10.72,38.9,0l2.18,2.18-.29.3h0l-.29.29-14.48,14.49-38.32,38.32-210.74,210.73c-10.58,10.58-10.58,27.73,0,38.32l266.33,266.33-.29.29Z"/>
    <path class="cls-5" d="m485.7,623l-114.95,114.95c-10.58,10.58-27.73,10.58-38.32,0l-1.89-1.89-.3-.3-.29-.29.29-.3,110.27-110.27c9.56-9.56,10.34-24.64,2.31-35.09-.07-.11-.16-.22-.25-.33l.3-.3,4.51-4.51c10.58-10.58,27.73-10.58,38.32,0,10.58,10.58,10.58,27.73,0,38.32Z"/>
    <path class="cls-5" d="m443.12,589.52s0,0-.02-.02c0-.02,0-.03-.03-.04-.04-.06-.08-.12-.14-.18-.02-.02-.03-.06-.06-.08l-.3.3c.1.11.18.21.25.33l.29-.29s0,0,0,0h0Zm0,0s0,0-.02-.02c0-.02,0-.03-.03-.04-.04-.06-.08-.12-.14-.18-.02-.02-.03-.06-.06-.08l-.3.3c.1.11.18.21.25.33l.29-.29s0,0,0,0h0Zm0,0s0,0-.02-.02c0-.02,0-.03-.03-.04-.04-.06-.08-.12-.14-.18-.02-.02-.03-.06-.06-.08l-.3.3c.1.11.18.21.25.33l.29-.29s0,0,0,0h0Zm-112.86,69.62l-.29.29.3.3.29-.29-.3-.3Zm0,76.05l-.29.3.29.29.29-.29-.29-.3Zm-2.2-644.8l-.29.3.28.29h0l.29-.3-.29-.29Zm2.2,644.8l-.29.3.29.29.29-.29-.29-.3Zm-2.2-644.8l-.29.3.28.29h0l.29-.3-.29-.29Zm2.2,568.17L64.51,392.82c-10.4-10.41-10.4-27.33,0-37.74L328.04,91.54l.3-.29.29-.3-.29-.29-.29-.29-.29.3-.3.29L63.93,354.5c-10.72,10.72-10.72,28.17,0,38.89l265.74,265.74.29.29.3.3.29-.29.29-.3-.58-.58Zm155.74-74.15c-5.2-5.2-12.11-8.06-19.45-8.06s-14.26,2.85-19.45,8.06l-4.18,4.18-.3.3-.3.3c.09.11.18.21.25.32.1.11.18.21.25.33l.29-.29s0,0,0,0l4.55-4.55c10.4-10.4,27.32-10.4,37.73,0,10.4,10.41,10.4,27.33,0,37.74l-114.95,114.95c-10.4,10.4-27.33,10.4-37.73,0l-1.89-1.89-.29-.29h0l-.29-.3-.29.3-.3.29.3.29h0s2.18,2.19,2.18,2.19c5.36,5.36,12.4,8.04,19.45,8.04s14.08-2.68,19.45-8.04l114.95-114.96c10.72-10.72,10.72-28.17,0-38.89Zm0-459.79L371.04,9.66c-10.73-10.73-28.18-10.73-38.9,0l-4.09,4.09-.29.3-.3.29.29.29.29.29.3-.29.29-.3,4.1-4.09c5.2-5.2,12.03-7.8,18.87-7.8s13.67,2.6,18.87,7.8l114.95,114.95c10.4,10.41,10.4,27.33,0,37.74-5.04,5.04-11.74,7.81-18.87,7.81s-13.83-2.77-18.87-7.81l-3.06-3.06c-.08.12-.15.24-.23.35-.07.11-.14.24-.22.35l.3.3.3.3,2.33,2.33c5.19,5.2,12.1,8.06,19.45,8.06s14.25-2.85,19.45-8.06c10.72-10.72,10.72-28.17,0-38.89Zm-157.94-34.22l-.29.3.28.29h0l.29-.3-.29-.29Zm2.2,644.8l-.29.3.29.29.29-.29-.29-.3Z"/>
    <g>
      <path class="cls-5" d="m452.54,443.31c8.23,8.23,8.23,21.57,0,29.79l-96.6,96.6c-8.23,8.23-21.57,8.23-29.79,0l-6.44-6.44,87.94-87.95c8.23-8.23,8.23-21.57,0-29.79l-54.47-54.47c-8.23-8.23-8.23-21.57,0-29.79l54.47-54.47c8.23-8.23,8.23-21.57,0-29.79l-90.15-90.15,8.65-8.65c8.23-8.23,21.57-8.23,29.79,0l96.6,96.6c8.23,8.23,8.23,21.57,0,29.79l-54.47,54.47c-8.23,8.23-8.23,21.57,0,29.79l54.47,54.47Z"/>
      <path class="cls-5" d="m306.31,394.26v107.7c0,20.42-27.94,30.64-44.27,16.21-1.26-1.12-2.38-2.33-3.34-3.63,1.73-3.03,2.72-6.52,2.72-10.38V248.14c0-4.82-1.56-9.08-4.16-12.58,1.21-2.13,2.82-4.1,4.77-5.82,5.28-4.67,11.78-6.76,18.15-6.76,13.34,0,26.13,9.15,26.13,22.96v148.32Z"/>
      <g>
        <path class="cls-2" d="m443.12,589.53s0,0,0,0h0s0-.02-.02-.02c0-.02,0-.03-.03-.04-.04-.06-.08-.12-.14-.18-.02-.02-.03-.06-.06-.08-.08-.11-.17-.21-.25-.32l-.3.3c.09.11.18.21.25.32.1.11.18.21.25.33,8.03,10.45,7.26,25.53-2.31,35.09l-110.27,110.27-.29.3-.3.29.3.29.29-.29.29-.29h0l110.26-110.27c9.74-9.74,10.52-25.05,2.31-35.67Zm-2.31-462.44L327.77,14.05l-.3.29.29.29.29.29,112.48,112.48c8.79,8.79,10.16,22.25,4.09,32.48-.08.12-.15.24-.23.35-.07.11-.14.24-.22.35l.3.3c.09-.11.16-.23.22-.35.09-.11.16-.23.23-.35,6.23-10.4,4.86-24.1-4.1-33.07Zm-110.27,531.75l-.29.3-4.39,4.39c-10.58,10.57-27.73,10.57-38.32,0L19.33,395.3c-10.58-10.57-10.58-27.73,0-38.32l210.74-210.73,38.32-38.32,19.15-19.16c10.58-10.57,27.73-10.57,38.32,0l1.9,1.9.28.29h0l.29.29.29-.3-.29-.29-2.18-2.18c-10.73-10.72-28.18-10.72-38.9,0L19.05,356.7c-10.72,10.72-10.72,28.18,0,38.9l268.21,268.21c5.19,5.19,12.1,8.06,19.45,8.06s14.25-2.86,19.45-8.06l4.1-4.09.29-.29.29-.3-.3-.3Z"/>
        <path class="cls-2" d="m330.54,658.84l-.29.3.3.3.29-.3-.3-.3Zm0,0l-.29.3-.29.29.3.3.29-.29.29-.3-.3-.3Zm0,0l-.29.3-.29.29.3.3.29-.29.29-.3-.3-.3Zm-.29.3l-.29.29.3.3.29-.29-.3-.3ZM441.11,126.8L328.63,14.33l-.29-.29-.29-.29-.29.3-.3.29.29.29.29.29,112.48,112.48c8.79,8.79,10.16,22.25,4.09,32.48-.08.12-.15.24-.23.35-.07.11-.14.24-.22.35l.3.3.3.3c.08-.11.16-.23.22-.35.08-.11.16-.24.22-.36,6.37-10.57,5-24.54-4.1-33.65Zm2.31,462.43c-.08-.11-.16-.22-.25-.33-.08-.11-.17-.21-.25-.32l-.3.3-.3.3c.09.11.18.21.25.32.1.11.18.21.25.33,8.03,10.45,7.26,25.53-2.31,35.09l-110.27,110.27-.29.3-.3.29.3.29h0s.29.3.29.3l.3-.29.29-.3,110.27-110.27c9.88-9.88,10.66-25.49,2.31-36.27Zm-113.17,69.32l-.29.3-.29.29-4.1,4.09c-5.04,5.04-11.74,7.82-18.87,7.82s-13.83-2.77-18.87-7.82L19.62,395.02c-10.4-10.4-10.4-27.33,0-37.73L287.84,89.07c10.4-10.41,27.33-10.41,37.73,0l2.47,2.47.3-.29.29-.3-.29-.29-2.18-2.18c-10.73-10.72-28.18-10.72-38.9,0L19.05,356.7c-10.72,10.72-10.72,28.18,0,38.9l268.21,268.21c5.19,5.19,12.1,8.06,19.45,8.06s14.25-2.86,19.45-8.06l4.1-4.09.29-.29.29-.3-.58-.58Zm0,.58l-.29.29.3.3.29-.29-.3-.3Z"/>
      </g>
    </g>
  </g>
  <g>
    <path class="cls-6" d="m484.15,163.01c-5.29,5.29-12.22,7.93-19.15,7.93s-13.87-2.64-19.16-7.93l-2.4-2.4-.6-.6c.08-.11.15-.23.23-.35,6.06-10.23,4.7-23.68-4.09-32.48L326.5,14.71l-.29-.29.3-.29.29-.3,4.09-4.09c10.58-10.58,27.73-10.58,38.32,0l95.79,95.79,19.15,19.15c10.58,10.58,10.58,27.73,0,38.32Z"/>
    <path class="cls-6" d="m328.72,659.52l-4.1,4.09c-5.2,5.19-12.11,8.06-19.45,8.06s-14.26-2.86-19.45-8.06L17.5,395.4c-10.72-10.72-10.72-28.18,0-38.9L285.72,88.29c10.72-10.72,28.17-10.72,38.9,0l2.18,2.18-.29.3h0l-.29.29-14.48,14.49-38.32,38.32L62.68,354.59c-10.58,10.58-10.58,27.73,0,38.32l266.33,266.33-.29.29Z"/>
    <path class="cls-6" d="m484.15,622.8l-114.95,114.95c-10.58,10.58-27.73,10.58-38.32,0l-1.89-1.89-.3-.3-.29-.29.29-.3,110.27-110.27c9.56-9.56,10.34-24.64,2.31-35.09-.07-.11-.16-.22-.25-.33l.3-.3,4.51-4.51c10.58-10.58,27.73-10.58,38.32,0,10.58,10.58,10.58,27.73,0,38.32Z"/>
    <path class="cls-6" d="m441.57,589.32s0,0-.02-.02c0-.02,0-.03-.03-.04-.04-.06-.08-.12-.14-.18-.02-.02-.03-.06-.06-.08l-.3.3c.1.11.18.21.25.33l.29-.29s0,0,0,0h0Zm0,0s0,0-.02-.02c0-.02,0-.03-.03-.04-.04-.06-.08-.12-.14-.18-.02-.02-.03-.06-.06-.08l-.3.3c.1.11.18.21.25.33l.29-.29s0,0,0,0h0Zm0,0s0,0-.02-.02c0-.02,0-.03-.03-.04-.04-.06-.08-.12-.14-.18-.02-.02-.03-.06-.06-.08l-.3.3c.1.11.18.21.25.33l.29-.29s0,0,0,0h0Zm-112.86,69.62l-.29.29.3.3.29-.29-.3-.3Zm0,76.05l-.29.3.29.29.29-.29-.29-.3Zm-2.2-644.8l-.29.3.28.29h0l.29-.3-.29-.29Zm2.2,644.8l-.29.3.29.29.29-.29-.29-.3Zm-2.2-644.8l-.29.3.28.29h0l.29-.3-.29-.29Zm2.2,568.17L62.96,392.62c-10.4-10.41-10.4-27.33,0-37.74L326.5,91.34l.3-.29.29-.3-.29-.29-.29-.29-.29.3-.3.29L62.39,354.3c-10.72,10.72-10.72,28.17,0,38.89l265.74,265.74.29.29.3.3.29-.29.29-.3-.58-.58Zm155.74-74.15c-5.2-5.2-12.11-8.06-19.45-8.06s-14.26,2.85-19.45,8.06l-4.18,4.18-.3.3-.3.3c.09.11.18.21.25.32.1.11.18.21.25.33l.29-.29s0,0,0,0l4.55-4.55c10.4-10.4,27.32-10.4,37.73,0,10.4,10.41,10.4,27.33,0,37.74l-114.95,114.95c-10.4,10.4-27.33,10.4-37.73,0l-1.89-1.89-.29-.29h0l-.29-.3-.29.3-.3.29.3.29h0s2.18,2.19,2.18,2.19c5.36,5.36,12.4,8.04,19.45,8.04s14.08-2.68,19.45-8.04l114.95-114.96c10.72-10.72,10.72-28.17,0-38.89Zm0-459.79L369.5,9.46c-10.73-10.73-28.18-10.73-38.9,0l-4.09,4.09-.29.3-.3.29.29.29.29.29.3-.29.29-.3,4.1-4.09c5.2-5.2,12.03-7.8,18.87-7.8s13.67,2.6,18.87,7.8l114.95,114.95c10.4,10.41,10.4,27.33,0,37.74-5.04,5.04-11.74,7.81-18.87,7.81s-13.83-2.77-18.87-7.81l-3.06-3.06c-.08.12-.15.24-.23.35-.07.11-.14.24-.22.35l.3.3.3.3,2.33,2.33c5.19,5.2,12.1,8.06,19.45,8.06s14.25-2.85,19.45-8.06c10.72-10.72,10.72-28.17,0-38.89Zm-157.94-34.22l-.29.3.28.29h0l.29-.3-.29-.29Zm2.2,644.8l-.29.3.29.29.29-.29-.29-.3Z"/>
    <g>
      <path class="cls-6" d="m451,443.11c8.23,8.23,8.23,21.57,0,29.79l-96.6,96.6c-8.23,8.23-21.57,8.23-29.79,0l-6.44-6.44,87.94-87.95c8.23-8.23,8.23-21.57,0-29.79l-54.47-54.47c-8.23-8.23-8.23-21.57,0-29.79l54.47-54.47c8.23-8.23,8.23-21.57,0-29.79l-90.15-90.15,8.65-8.65c8.23-8.23,21.57-8.23,29.79,0l96.6,96.6c8.23,8.23,8.23,21.57,0,29.79l-54.47,54.47c-8.23,8.23-8.23,21.57,0,29.79l54.47,54.47Z"/>
      <path class="cls-6" d="m304.77,394.06v107.7c0,20.42-27.94,30.64-44.27,16.21-1.26-1.12-2.38-2.33-3.34-3.63,1.73-3.03,2.72-6.52,2.72-10.38V247.94c0-4.82-1.56-9.08-4.16-12.58,1.21-2.13,2.82-4.1,4.77-5.82,5.28-4.67,11.78-6.76,18.15-6.76,13.34,0,26.13,9.15,26.13,22.96v148.32Z"/>
      <g>
        <path class="cls-16" d="m441.57,589.33s0,0,0,0h0s0-.02-.02-.02c0-.02,0-.03-.03-.04-.04-.06-.08-.12-.14-.18-.02-.02-.03-.06-.06-.08-.08-.11-.17-.21-.25-.32l-.3.3c.09.11.18.21.25.32.1.11.18.21.25.33,8.03,10.45,7.26,25.53-2.31,35.09l-110.27,110.27-.29.3-.3.29.3.29.29-.29.29-.29h0l110.26-110.27c9.74-9.74,10.52-25.05,2.31-35.67Zm-2.31-462.44L326.22,13.85l-.3.29.29.29.29.29,112.48,112.48c8.79,8.79,10.16,22.25,4.09,32.48-.08.12-.15.24-.23.35-.07.11-.14.24-.22.35l.3.3c.09-.11.16-.23.22-.35.09-.11.16-.23.23-.35,6.23-10.4,4.86-24.1-4.1-33.07Zm-110.27,531.75l-.29.3-4.39,4.39c-10.58,10.57-27.73,10.57-38.32,0L17.79,395.1c-10.58-10.57-10.58-27.73,0-38.32l210.74-210.73,38.32-38.32,19.15-19.16c10.58-10.57,27.73-10.57,38.32,0l1.9,1.9.28.29h0l.29.29.29-.3-.29-.29-2.18-2.18c-10.73-10.72-28.18-10.72-38.9,0L17.5,356.5c-10.72,10.72-10.72,28.18,0,38.9l268.21,268.21c5.19,5.19,12.1,8.06,19.45,8.06s14.25-2.86,19.45-8.06l4.1-4.09.29-.29.29-.3-.3-.3Z"/>
        <path class="cls-16" d="m328.99,658.64l-.29.3.3.3.29-.3-.3-.3Zm0,0l-.29.3-.29.29.3.3.29-.29.29-.3-.3-.3Zm0,0l-.29.3-.29.29.3.3.29-.29.29-.3-.3-.3Zm-.29.3l-.29.29.3.3.29-.29-.3-.3ZM439.56,126.6L327.08,14.12l-.29-.29-.29-.29-.29.3-.3.29.29.29.29.29,112.48,112.48c8.79,8.79,10.16,22.25,4.09,32.48-.08.12-.15.24-.23.35-.07.11-.14.24-.22.35l.3.3.3.3c.08-.11.16-.23.22-.35.08-.11.16-.24.22-.36,6.37-10.57,5-24.54-4.1-33.65Zm2.31,462.43c-.08-.11-.16-.22-.25-.33-.08-.11-.17-.21-.25-.32l-.3.3-.3.3c.09.11.18.21.25.32.1.11.18.21.25.33,8.03,10.45,7.26,25.53-2.31,35.09l-110.27,110.27-.29.3-.3.29.3.29h0s.29.3.29.3l.3-.29.29-.3,110.27-110.27c9.88-9.88,10.66-25.49,2.31-36.27Zm-113.17,69.32l-.29.3-.29.29-4.1,4.09c-5.04,5.04-11.74,7.82-18.87,7.82s-13.83-2.77-18.87-7.82L18.08,394.82c-10.4-10.4-10.4-27.33,0-37.73L286.3,88.87c10.4-10.41,27.33-10.41,37.73,0l2.47,2.47.3-.29.29-.3-.29-.29-2.18-2.18c-10.73-10.72-28.18-10.72-38.9,0L17.5,356.5c-10.72,10.72-10.72,28.18,0,38.9l268.21,268.21c5.19,5.19,12.1,8.06,19.45,8.06s14.25-2.86,19.45-8.06l4.1-4.09.29-.29.29-.3-.58-.58Zm0,.58l-.29.29.3.3.29-.29-.3-.3Z"/>
      </g>
    </g>
  </g>
  <g>
    <path class="cls-11" d="m482.61,162.81c-5.29,5.29-12.22,7.93-19.15,7.93s-13.87-2.64-19.16-7.93l-2.4-2.4-.6-.6c.08-.11.15-.23.23-.35,6.06-10.23,4.7-23.68-4.09-32.48L324.96,14.51l-.29-.29.3-.29.29-.3,4.09-4.09c10.58-10.58,27.73-10.58,38.32,0l95.79,95.79,19.15,19.15c10.58,10.58,10.58,27.73,0,38.32Z"/>
    <path class="cls-11" d="m327.17,659.32l-4.1,4.09c-5.2,5.19-12.11,8.06-19.45,8.06s-14.26-2.86-19.45-8.06L15.96,395.2c-10.72-10.72-10.72-28.18,0-38.9L284.17,88.09c10.72-10.72,28.17-10.72,38.9,0l2.18,2.18-.29.3h0l-.29.29-14.48,14.49-38.32,38.32L61.13,354.39c-10.58,10.58-10.58,27.73,0,38.32l266.33,266.33-.29.29Z"/>
    <path class="cls-11" d="m482.61,622.6l-114.95,114.95c-10.58,10.58-27.73,10.58-38.32,0l-1.89-1.89-.3-.3-.29-.29.29-.3,110.27-110.27c9.56-9.56,10.34-24.64,2.31-35.09-.07-.11-.16-.22-.25-.33l.3-.3,4.51-4.51c10.58-10.58,27.73-10.58,38.32,0,10.58,10.58,10.58,27.73,0,38.32Z"/>
    <path class="cls-11" d="m440.03,589.12s0,0-.02-.02c0-.02,0-.03-.03-.04-.04-.06-.08-.12-.14-.18-.02-.02-.03-.06-.06-.08l-.3.3c.1.11.18.21.25.33l.29-.29s0,0,0,0h0Zm0,0s0,0-.02-.02c0-.02,0-.03-.03-.04-.04-.06-.08-.12-.14-.18-.02-.02-.03-.06-.06-.08l-.3.3c.1.11.18.21.25.33l.29-.29s0,0,0,0h0Zm0,0s0,0-.02-.02c0-.02,0-.03-.03-.04-.04-.06-.08-.12-.14-.18-.02-.02-.03-.06-.06-.08l-.3.3c.1.11.18.21.25.33l.29-.29s0,0,0,0h0Zm-112.86,69.62l-.29.29.3.3.29-.29-.3-.3Zm0,76.05l-.29.3.29.29.29-.29-.29-.3Zm-2.2-644.8l-.29.3.28.29h0l.29-.3-.29-.29Zm2.2,644.8l-.29.3.29.29.29-.29-.29-.3Zm-2.2-644.8l-.29.3.28.29h0l.29-.3-.29-.29Zm2.2,568.17L61.42,392.42c-10.4-10.41-10.4-27.33,0-37.74L324.96,91.14l.3-.29.29-.3-.29-.29-.29-.29-.29.3-.3.29L60.85,354.1c-10.72,10.72-10.72,28.17,0,38.89l265.74,265.74.29.29.3.3.29-.29.29-.3-.58-.58Zm155.74-74.15c-5.2-5.2-12.11-8.06-19.45-8.06s-14.26,2.85-19.45,8.06l-4.18,4.18-.3.3-.3.3c.09.11.18.21.25.32.1.11.18.21.25.33l.29-.29s0,0,0,0l4.55-4.55c10.4-10.4,27.32-10.4,37.73,0,10.4,10.41,10.4,27.33,0,37.74l-114.95,114.95c-10.4,10.4-27.33,10.4-37.73,0l-1.89-1.89-.29-.29h0l-.29-.3-.29.3-.3.29.3.29h0s2.18,2.19,2.18,2.19c5.36,5.36,12.4,8.04,19.45,8.04s14.08-2.68,19.45-8.04l114.95-114.96c10.72-10.72,10.72-28.17,0-38.89Zm0-459.79L367.96,9.26c-10.73-10.73-28.18-10.73-38.9,0l-4.09,4.09-.29.3-.3.29.29.29.29.29.3-.29.29-.3,4.1-4.09c5.2-5.2,12.03-7.8,18.87-7.8s13.67,2.6,18.87,7.8l114.95,114.95c10.4,10.41,10.4,27.33,0,37.74-5.04,5.04-11.74,7.81-18.87,7.81s-13.83-2.77-18.87-7.81l-3.06-3.06c-.08.12-.15.24-.23.35-.07.11-.14.24-.22.35l.3.3.3.3,2.33,2.33c5.19,5.2,12.1,8.06,19.45,8.06s14.25-2.85,19.45-8.06c10.72-10.72,10.72-28.17,0-38.89Zm-157.94-34.22l-.29.3.28.29h0l.29-.3-.29-.29Zm2.2,644.8l-.29.3.29.29.29-.29-.29-.3Z"/>
    <g>
      <path class="cls-11" d="m449.46,442.91c8.23,8.23,8.23,21.57,0,29.79l-96.6,96.6c-8.23,8.23-21.57,8.23-29.79,0l-6.44-6.44,87.94-87.95c8.23-8.23,8.23-21.57,0-29.79l-54.47-54.47c-8.23-8.23-8.23-21.57,0-29.79l54.47-54.47c8.23-8.23,8.23-21.57,0-29.79l-90.15-90.15,8.65-8.65c8.23-8.23,21.57-8.23,29.79,0l96.6,96.6c8.23,8.23,8.23,21.57,0,29.79l-54.47,54.47c-8.23,8.23-8.23,21.57,0,29.79l54.47,54.47Z"/>
      <path class="cls-11" d="m303.22,393.86v107.7c0,20.42-27.94,30.64-44.27,16.21-1.26-1.12-2.38-2.33-3.34-3.63,1.73-3.03,2.72-6.52,2.72-10.38V247.74c0-4.82-1.56-9.08-4.16-12.58,1.21-2.13,2.82-4.1,4.77-5.82,5.28-4.67,11.78-6.76,18.15-6.76,13.34,0,26.13,9.15,26.13,22.96v148.32Z"/>
      <g>
        <path class="cls-3" d="m440.03,589.13s0,0,0,0h0s0-.02-.02-.02c0-.02,0-.03-.03-.04-.04-.06-.08-.12-.14-.18-.02-.02-.03-.06-.06-.08-.08-.11-.17-.21-.25-.32l-.3.3c.09.11.18.21.25.32.1.11.18.21.25.33,8.03,10.45,7.26,25.53-2.31,35.09l-110.27,110.27-.29.3-.3.29.3.29.29-.29.29-.29h0l110.26-110.27c9.74-9.74,10.52-25.05,2.31-35.67Zm-2.31-462.44L324.68,13.64l-.3.29.29.29.29.29,112.48,112.48c8.79,8.79,10.16,22.25,4.09,32.48-.08.12-.15.24-.23.35-.07.11-.14.24-.22.35l.3.3c.09-.11.16-.23.22-.35.09-.11.16-.23.23-.35,6.23-10.4,4.86-24.1-4.1-33.07Zm-110.27,531.75l-.29.3-4.39,4.39c-10.58,10.57-27.73,10.57-38.32,0L16.25,394.9c-10.58-10.57-10.58-27.73,0-38.32l210.74-210.73,38.32-38.32,19.15-19.16c10.58-10.57,27.73-10.57,38.32,0l1.9,1.9.28.29h0l.29.29.29-.3-.29-.29-2.18-2.18c-10.73-10.72-28.18-10.72-38.9,0L15.96,356.3c-10.72,10.72-10.72,28.18,0,38.9l268.21,268.21c5.19,5.19,12.1,8.06,19.45,8.06s14.25-2.86,19.45-8.06l4.1-4.09.29-.29.29-.3-.3-.3Z"/>
        <path class="cls-3" d="m327.45,658.44l-.29.3.3.3.29-.3-.3-.3Zm0,0l-.29.3-.29.29.3.3.29-.29.29-.3-.3-.3Zm0,0l-.29.3-.29.29.3.3.29-.29.29-.3-.3-.3Zm-.29.3l-.29.29.3.3.29-.29-.3-.3ZM438.02,126.4L325.54,13.92l-.29-.29-.29-.29-.29.3-.3.29.29.29.29.29,112.48,112.48c8.79,8.79,10.16,22.25,4.09,32.48-.08.12-.15.24-.23.35-.07.11-.14.24-.22.35l.3.3.3.3c.08-.11.16-.23.22-.35.08-.11.16-.24.22-.36,6.37-10.57,5-24.54-4.1-33.65Zm2.31,462.43c-.08-.11-.16-.22-.25-.33-.08-.11-.17-.21-.25-.32l-.3.3-.3.3c.09.11.18.21.25.32.1.11.18.21.25.33,8.03,10.45,7.26,25.53-2.31,35.09l-110.27,110.27-.29.3-.3.29.3.29h0s.29.3.29.3l.3-.29.29-.3,110.27-110.27c9.88-9.88,10.66-25.49,2.31-36.27Zm-113.17,69.32l-.29.3-.29.29-4.1,4.09c-5.04,5.04-11.74,7.82-18.87,7.82s-13.83-2.77-18.87-7.82L16.53,394.62c-10.4-10.4-10.4-27.33,0-37.73L284.76,88.67c10.4-10.41,27.33-10.41,37.73,0l2.47,2.47.3-.29.29-.3-.29-.29-2.18-2.18c-10.73-10.72-28.18-10.72-38.9,0L15.96,356.3c-10.72,10.72-10.72,28.18,0,38.9l268.21,268.21c5.19,5.19,12.1,8.06,19.45,8.06s14.25-2.86,19.45-8.06l4.1-4.09.29-.29.29-.3-.58-.58Zm0,.58l-.29.29.3.3.29-.29-.3-.3Z"/>
      </g>
    </g>
  </g>
  <g>
    <path class="cls-14" d="m481.07,162.61c-5.29,5.29-12.22,7.93-19.15,7.93s-13.87-2.64-19.16-7.93l-2.4-2.4-.6-.6c.08-.11.15-.23.23-.35,6.06-10.23,4.7-23.68-4.09-32.48L323.42,14.31l-.29-.29.3-.29.29-.3,4.09-4.09c10.58-10.58,27.73-10.58,38.32,0l95.79,95.79,19.15,19.15c10.58,10.58,10.58,27.73,0,38.32Z"/>
    <path class="cls-14" d="m325.63,659.12l-4.1,4.09c-5.2,5.19-12.11,8.06-19.45,8.06s-14.26-2.86-19.45-8.06L14.42,395c-10.72-10.72-10.72-28.18,0-38.9L282.63,87.89c10.72-10.72,28.17-10.72,38.9,0l2.18,2.18-.29.3h0l-.29.29-14.48,14.49-38.32,38.32L59.59,354.19c-10.58,10.58-10.58,27.73,0,38.32l266.33,266.33-.29.29Z"/>
    <path class="cls-14" d="m481.07,622.4l-114.95,114.95c-10.58,10.58-27.73,10.58-38.32,0l-1.89-1.89-.3-.3-.29-.29.29-.3,110.27-110.27c9.56-9.56,10.34-24.64,2.31-35.09-.07-.11-.16-.22-.25-.33l.3-.3,4.51-4.51c10.58-10.58,27.73-10.58,38.32,0,10.58,10.58,10.58,27.73,0,38.32Z"/>
    <path class="cls-14" d="m438.49,588.92s0,0-.02-.02c0-.02,0-.03-.03-.04-.04-.06-.08-.12-.14-.18-.02-.02-.03-.06-.06-.08l-.3.3c.1.11.18.21.25.33l.29-.29s0,0,0,0h0Zm0,0s0,0-.02-.02c0-.02,0-.03-.03-.04-.04-.06-.08-.12-.14-.18-.02-.02-.03-.06-.06-.08l-.3.3c.1.11.18.21.25.33l.29-.29s0,0,0,0h0Zm0,0s0,0-.02-.02c0-.02,0-.03-.03-.04-.04-.06-.08-.12-.14-.18-.02-.02-.03-.06-.06-.08l-.3.3c.1.11.18.21.25.33l.29-.29s0,0,0,0h0Zm-112.86,69.62l-.29.29.3.3.29-.29-.3-.3Zm0,76.05l-.29.3.29.29.29-.29-.29-.3Zm-2.2-644.8l-.29.3.28.29h0l.29-.3-.29-.29Zm2.2,644.8l-.29.3.29.29.29-.29-.29-.3Zm-2.2-644.8l-.29.3.28.29h0l.29-.3-.29-.29Zm2.2,568.17L59.88,392.22c-10.4-10.41-10.4-27.33,0-37.74L323.42,90.94l.3-.29.29-.3-.29-.29-.29-.29-.29.3-.3.29L59.3,353.9c-10.72,10.72-10.72,28.17,0,38.89l265.74,265.74.29.29.3.3.29-.29.29-.3-.58-.58Zm155.74-74.15c-5.2-5.2-12.11-8.06-19.45-8.06s-14.26,2.85-19.45,8.06l-4.18,4.18-.3.3-.3.3c.09.11.18.21.25.32.1.11.18.21.25.33l.29-.29s0,0,0,0l4.55-4.55c10.4-10.4,27.32-10.4,37.73,0,10.4,10.41,10.4,27.33,0,37.74l-114.95,114.95c-10.4,10.4-27.33,10.4-37.73,0l-1.89-1.89-.29-.29h0l-.29-.3-.29.3-.3.29.3.29h0s2.18,2.19,2.18,2.19c5.36,5.36,12.4,8.04,19.45,8.04s14.08-2.68,19.45-8.04l114.95-114.96c10.72-10.72,10.72-28.17,0-38.89Zm0-459.79L366.42,9.06c-10.73-10.73-28.18-10.73-38.9,0l-4.09,4.09-.29.3-.3.29.29.29.29.29.3-.29.29-.3,4.1-4.09c5.2-5.2,12.03-7.8,18.87-7.8s13.67,2.6,18.87,7.8l114.95,114.95c10.4,10.41,10.4,27.33,0,37.74-5.04,5.04-11.74,7.81-18.87,7.81s-13.83-2.77-18.87-7.81l-3.06-3.06c-.08.12-.15.24-.23.35-.07.11-.14.24-.22.35l.3.3.3.3,2.33,2.33c5.19,5.2,12.1,8.06,19.45,8.06s14.25-2.85,19.45-8.06c10.72-10.72,10.72-28.17,0-38.89Zm-157.94-34.22l-.29.3.28.29h0l.29-.3-.29-.29Zm2.2,644.8l-.29.3.29.29.29-.29-.29-.3Z"/>
    <g>
      <path class="cls-14" d="m447.91,442.71c8.23,8.23,8.23,21.57,0,29.79l-96.6,96.6c-8.23,8.23-21.57,8.23-29.79,0l-6.44-6.44,87.94-87.95c8.23-8.23,8.23-21.57,0-29.79l-54.47-54.47c-8.23-8.23-8.23-21.57,0-29.79l54.47-54.47c8.23-8.23,8.23-21.57,0-29.79l-90.15-90.15,8.65-8.65c8.23-8.23,21.57-8.23,29.79,0l96.6,96.6c8.23,8.23,8.23,21.57,0,29.79l-54.47,54.47c-8.23,8.23-8.23,21.57,0,29.79l54.47,54.47Z"/>
      <path class="cls-14" d="m301.68,393.65v107.7c0,20.42-27.94,30.64-44.27,16.21-1.26-1.12-2.38-2.33-3.34-3.63,1.73-3.03,2.72-6.52,2.72-10.38V247.54c0-4.82-1.56-9.08-4.16-12.58,1.21-2.13,2.82-4.1,4.77-5.82,5.28-4.67,11.78-6.76,18.15-6.76,13.34,0,26.13,9.15,26.13,22.96v148.32Z"/>
      <g>
        <path class="cls-19" d="m438.49,588.93s0,0,0,0h0s0-.02-.02-.02c0-.02,0-.03-.03-.04-.04-.06-.08-.12-.14-.18-.02-.02-.03-.06-.06-.08-.08-.11-.17-.21-.25-.32l-.3.3c.09.11.18.21.25.32.1.11.18.21.25.33,8.03,10.45,7.26,25.53-2.31,35.09l-110.27,110.27-.29.3-.3.29.3.29.29-.29.29-.29h0l110.26-110.27c9.74-9.74,10.52-25.05,2.31-35.67Zm-2.31-462.44L323.14,13.44l-.3.29.29.29.29.29,112.48,112.48c8.79,8.79,10.16,22.25,4.09,32.48-.08.12-.15.24-.23.35-.07.11-.14.24-.22.35l.3.3c.09-.11.16-.23.22-.35.09-.11.16-.23.23-.35,6.23-10.4,4.86-24.1-4.1-33.07Zm-110.27,531.75l-.29.3-4.39,4.39c-10.58,10.57-27.73,10.57-38.32,0L14.7,394.7c-10.58-10.57-10.58-27.73,0-38.32l210.74-210.73,38.32-38.32,19.15-19.16c10.58-10.57,27.73-10.57,38.32,0l1.9,1.9.28.29h0l.29.29.29-.3-.29-.29-2.18-2.18c-10.73-10.72-28.18-10.72-38.9,0L14.42,356.1c-10.72,10.72-10.72,28.18,0,38.9l268.21,268.21c5.19,5.19,12.1,8.06,19.45,8.06s14.25-2.86,19.45-8.06l4.1-4.09.29-.29.29-.3-.3-.3Z"/>
        <path class="cls-19" d="m325.91,658.24l-.29.3.3.3.29-.3-.3-.3Zm0,0l-.29.3-.29.29.3.3.29-.29.29-.3-.3-.3Zm0,0l-.29.3-.29.29.3.3.29-.29.29-.3-.3-.3Zm-.29.3l-.29.29.3.3.29-.29-.3-.3ZM436.48,126.2L324,13.72l-.29-.29-.29-.29-.29.3-.3.29.29.29.29.29,112.48,112.48c8.79,8.79,10.16,22.25,4.09,32.48-.08.12-.15.24-.23.35-.07.11-.14.24-.22.35l.3.3.3.3c.08-.11.16-.23.22-.35.08-.11.16-.24.22-.36,6.37-10.57,5-24.54-4.1-33.65Zm2.31,462.43c-.08-.11-.16-.22-.25-.33-.08-.11-.17-.21-.25-.32l-.3.3-.3.3c.09.11.18.21.25.32.1.11.18.21.25.33,8.03,10.45,7.26,25.53-2.31,35.09l-110.27,110.27-.29.3-.3.29.3.29h0s.29.3.29.3l.3-.29.29-.3,110.27-110.27c9.88-9.88,10.66-25.49,2.31-36.27Zm-113.17,69.32l-.29.3-.29.29-4.1,4.09c-5.04,5.04-11.74,7.82-18.87,7.82s-13.83-2.77-18.87-7.82L14.99,394.41c-10.4-10.4-10.4-27.33,0-37.73L283.21,88.47c10.4-10.41,27.33-10.41,37.73,0l2.47,2.47.3-.29.29-.3-.29-.29-2.18-2.18c-10.73-10.72-28.18-10.72-38.9,0L14.42,356.1c-10.72,10.72-10.72,28.18,0,38.9l268.21,268.21c5.19,5.19,12.1,8.06,19.45,8.06s14.25-2.86,19.45-8.06l4.1-4.09.29-.29.29-.3-.58-.58Zm0,.58l-.29.29.3.3.29-.29-.3-.3Z"/>
      </g>
    </g>
  </g>
  <g>
    <path class="cls-4" d="m479.53,162.41c-5.29,5.29-12.22,7.93-19.15,7.93s-13.87-2.64-19.16-7.93l-2.4-2.4-.6-.6c.08-.11.15-.23.23-.35,6.06-10.23,4.7-23.68-4.09-32.48L321.87,14.1l-.29-.29.3-.29.29-.3,4.09-4.09c10.58-10.58,27.73-10.58,38.32,0l95.79,95.79,19.15,19.15c10.58,10.58,10.58,27.73,0,38.32Z"/>
    <path class="cls-4" d="m324.09,658.92l-4.1,4.09c-5.2,5.19-12.11,8.06-19.45,8.06s-14.26-2.86-19.45-8.06L12.87,394.8c-10.72-10.72-10.72-28.18,0-38.9L281.09,87.69c10.72-10.72,28.17-10.72,38.9,0l2.18,2.18-.29.3h0l-.29.29-14.48,14.49-38.32,38.32L58.05,353.99c-10.58,10.58-10.58,27.73,0,38.32l266.33,266.33-.29.29Z"/>
    <path class="cls-4" d="m479.53,622.2l-114.95,114.95c-10.58,10.58-27.73,10.58-38.32,0l-1.89-1.89-.3-.3-.29-.29.29-.3,110.27-110.27c9.56-9.56,10.34-24.64,2.31-35.09-.07-.11-.16-.22-.25-.33l.3-.3,4.51-4.51c10.58-10.58,27.73-10.58,38.32,0,10.58,10.58,10.58,27.73,0,38.32Z"/>
    <path class="cls-4" d="m436.94,588.71s0,0-.02-.02c0-.02,0-.03-.03-.04-.04-.06-.08-.12-.14-.18-.02-.02-.03-.06-.06-.08l-.3.3c.1.11.18.21.25.33l.29-.29s0,0,0,0h0Zm0,0s0,0-.02-.02c0-.02,0-.03-.03-.04-.04-.06-.08-.12-.14-.18-.02-.02-.03-.06-.06-.08l-.3.3c.1.11.18.21.25.33l.29-.29s0,0,0,0h0Zm0,0s0,0-.02-.02c0-.02,0-.03-.03-.04-.04-.06-.08-.12-.14-.18-.02-.02-.03-.06-.06-.08l-.3.3c.1.11.18.21.25.33l.29-.29s0,0,0,0h0Zm-112.86,69.62l-.29.29.3.3.29-.29-.3-.3Zm0,76.05l-.29.3.29.29.29-.29-.29-.3Zm-2.2-644.8l-.29.3.28.29h0l.29-.3-.29-.29Zm2.2,644.8l-.29.3.29.29.29-.29-.29-.3Zm-2.2-644.8l-.29.3.28.29h0l.29-.3-.29-.29Zm2.2,568.17L58.34,392.02c-10.4-10.41-10.4-27.33,0-37.74L321.87,90.74l.3-.29.29-.3-.29-.29-.29-.29-.29.3-.3.29L57.76,353.7c-10.72,10.72-10.72,28.17,0,38.89l265.74,265.74.29.29.3.3.29-.29.29-.3-.58-.58Zm155.74-74.15c-5.2-5.2-12.11-8.06-19.45-8.06s-14.26,2.85-19.45,8.06l-4.18,4.18-.3.3-.3.3c.09.11.18.21.25.32.1.11.18.21.25.33l.29-.29s0,0,0,0l4.55-4.55c10.4-10.4,27.32-10.4,37.73,0,10.4,10.41,10.4,27.33,0,37.74l-114.95,114.95c-10.4,10.4-27.33,10.4-37.73,0l-1.89-1.89-.29-.29h0l-.29-.3-.29.3-.3.29.3.29h0s2.18,2.19,2.18,2.19c5.36,5.36,12.4,8.04,19.45,8.04s14.08-2.68,19.45-8.04l114.95-114.96c10.72-10.72,10.72-28.17,0-38.89Zm0-459.79L364.87,8.85c-10.73-10.73-28.18-10.73-38.9,0l-4.09,4.09-.29.3-.3.29.29.29.29.29.3-.29.29-.3,4.1-4.09c5.2-5.2,12.03-7.8,18.87-7.8s13.67,2.6,18.87,7.8l114.95,114.95c10.4,10.41,10.4,27.33,0,37.74-5.04,5.04-11.74,7.81-18.87,7.81s-13.83-2.77-18.87-7.81l-3.06-3.06c-.08.12-.15.24-.23.35-.07.11-.14.24-.22.35l.3.3.3.3,2.33,2.33c5.19,5.2,12.1,8.06,19.45,8.06s14.25-2.85,19.45-8.06c10.72-10.72,10.72-28.17,0-38.89Zm-157.94-34.22l-.29.3.28.29h0l.29-.3-.29-.29Zm2.2,644.8l-.29.3.29.29.29-.29-.29-.3Z"/>
    <g>
      <path class="cls-4" d="m446.37,442.5c8.23,8.23,8.23,21.57,0,29.79l-96.6,96.6c-8.23,8.23-21.57,8.23-29.79,0l-6.44-6.44,87.94-87.95c8.23-8.23,8.23-21.57,0-29.79l-54.47-54.47c-8.23-8.23-8.23-21.57,0-29.79l54.47-54.47c8.23-8.23,8.23-21.57,0-29.79l-90.15-90.15,8.65-8.65c8.23-8.23,21.57-8.23,29.79,0l96.6,96.6c8.23,8.23,8.23,21.57,0,29.79l-54.47,54.47c-8.23,8.23-8.23,21.57,0,29.79l54.47,54.47Z"/>
      <path class="cls-4" d="m300.14,393.45v107.7c0,20.42-27.94,30.64-44.27,16.21-1.26-1.12-2.38-2.33-3.34-3.63,1.73-3.03,2.72-6.52,2.72-10.38V247.33c0-4.82-1.56-9.08-4.16-12.58,1.21-2.13,2.82-4.1,4.77-5.82,5.28-4.67,11.78-6.76,18.15-6.76,13.34,0,26.13,9.15,26.13,22.96v148.32Z"/>
      <g>
        <path class="cls-12" d="m436.94,588.73s0,0,0,0h0s0-.02-.02-.02c0-.02,0-.03-.03-.04-.04-.06-.08-.12-.14-.18-.02-.02-.03-.06-.06-.08-.08-.11-.17-.21-.25-.32l-.3.3c.09.11.18.21.25.32.1.11.18.21.25.33,8.03,10.45,7.26,25.53-2.31,35.09l-110.27,110.27-.29.3-.3.29.3.29.29-.29.29-.29h0l110.26-110.27c9.74-9.74,10.52-25.05,2.31-35.67Zm-2.31-462.44L321.59,13.24l-.3.29.29.29.29.29,112.48,112.48c8.79,8.79,10.16,22.25,4.09,32.48-.08.12-.15.24-.23.35-.07.11-.14.24-.22.35l.3.3c.09-.11.16-.23.22-.35.09-.11.16-.23.23-.35,6.23-10.4,4.86-24.1-4.1-33.07Zm-110.27,531.75l-.29.3-4.39,4.39c-10.58,10.57-27.73,10.57-38.32,0L13.16,394.5c-10.58-10.57-10.58-27.73,0-38.32l210.74-210.73,38.32-38.32,19.15-19.16c10.58-10.57,27.73-10.57,38.32,0l1.9,1.9.28.29h0l.29.29.29-.3-.29-.29-2.18-2.18c-10.73-10.72-28.18-10.72-38.9,0L12.87,355.9c-10.72,10.72-10.72,28.18,0,38.9l268.21,268.21c5.19,5.19,12.1,8.06,19.45,8.06s14.25-2.86,19.45-8.06l4.1-4.09.29-.29.29-.3-.3-.3Z"/>
        <path class="cls-12" d="m324.37,658.04l-.29.3.3.3.29-.3-.3-.3Zm0,0l-.29.3-.29.29.3.3.29-.29.29-.3-.3-.3Zm0,0l-.29.3-.29.29.3.3.29-.29.29-.3-.3-.3Zm-.29.3l-.29.29.3.3.29-.29-.3-.3ZM434.93,126L322.45,13.52l-.29-.29-.29-.29-.29.3-.3.29.29.29.29.29,112.48,112.48c8.79,8.79,10.16,22.25,4.09,32.48-.08.12-.15.24-.23.35-.07.11-.14.24-.22.35l.3.3.3.3c.08-.11.16-.23.22-.35.08-.11.16-.24.22-.36,6.37-10.57,5-24.54-4.1-33.65Zm2.31,462.43c-.08-.11-.16-.22-.25-.33-.08-.11-.17-.21-.25-.32l-.3.3-.3.3c.09.11.18.21.25.32.1.11.18.21.25.33,8.03,10.45,7.26,25.53-2.31,35.09l-110.27,110.27-.29.3-.3.29.3.29h0s.29.3.29.3l.3-.29.29-.3,110.27-110.27c9.88-9.88,10.66-25.49,2.31-36.27Zm-113.17,69.32l-.29.3-.29.29-4.1,4.09c-5.04,5.04-11.74,7.82-18.87,7.82s-13.83-2.77-18.87-7.82L13.45,394.21c-10.4-10.4-10.4-27.33,0-37.73L281.67,88.27c10.4-10.41,27.33-10.41,37.73,0l2.47,2.47.3-.29.29-.3-.29-.29-2.18-2.18c-10.73-10.72-28.18-10.72-38.9,0L12.87,355.9c-10.72,10.72-10.72,28.18,0,38.9l268.21,268.21c5.19,5.19,12.1,8.06,19.45,8.06s14.25-2.86,19.45-8.06l4.1-4.09.29-.29.29-.3-.58-.58Zm0,.58l-.29.29.3.3.29-.29-.3-.3Z"/>
      </g>
    </g>
  </g>
  <g>
    <path class="cls-23" d="m477.98,162.21c-5.29,5.29-12.22,7.93-19.15,7.93s-13.87-2.64-19.16-7.93l-2.4-2.4-.6-.6c.08-.11.15-.23.23-.35,6.06-10.23,4.7-23.68-4.09-32.48L320.33,13.9l-.29-.29.3-.29.29-.3,4.09-4.09c10.58-10.58,27.73-10.58,38.32,0l95.79,95.79,19.15,19.15c10.58,10.58,10.58,27.73,0,38.32Z"/>
    <path class="cls-23" d="m322.54,658.72l-4.1,4.09c-5.2,5.19-12.11,8.06-19.45,8.06s-14.26-2.86-19.45-8.06L11.33,394.6c-10.72-10.72-10.72-28.18,0-38.9L279.54,87.48c10.72-10.72,28.17-10.72,38.9,0l2.18,2.18-.29.3h0l-.29.29-14.48,14.49-38.32,38.32L56.51,353.79c-10.58,10.58-10.58,27.73,0,38.32l266.33,266.33-.29.29Z"/>
    <path class="cls-23" d="m477.98,622l-114.95,114.95c-10.58,10.58-27.73,10.58-38.32,0l-1.89-1.89-.3-.3-.29-.29.29-.3,110.27-110.27c9.56-9.56,10.34-24.64,2.31-35.09-.07-.11-.16-.22-.25-.33l.3-.3,4.51-4.51c10.58-10.58,27.73-10.58,38.32,0,10.58,10.58,10.58,27.73,0,38.32Z"/>
    <path class="cls-23" d="m435.4,588.51s0,0-.02-.02c0-.02,0-.03-.03-.04-.04-.06-.08-.12-.14-.18-.02-.02-.03-.06-.06-.08l-.3.3c.1.11.18.21.25.33l.29-.29s0,0,0,0h0Zm0,0s0,0-.02-.02c0-.02,0-.03-.03-.04-.04-.06-.08-.12-.14-.18-.02-.02-.03-.06-.06-.08l-.3.3c.1.11.18.21.25.33l.29-.29s0,0,0,0h0Zm0,0s0,0-.02-.02c0-.02,0-.03-.03-.04-.04-.06-.08-.12-.14-.18-.02-.02-.03-.06-.06-.08l-.3.3c.1.11.18.21.25.33l.29-.29s0,0,0,0h0Zm-112.86,69.62l-.29.29.3.3.29-.29-.3-.3Zm0,76.05l-.29.3.29.29.29-.29-.29-.3Zm-2.2-644.8l-.29.3.28.29h0l.29-.3-.29-.29Zm2.2,644.8l-.29.3.29.29.29-.29-.29-.3Zm-2.2-644.8l-.29.3.28.29h0l.29-.3-.29-.29Zm2.2,568.17L56.79,391.81c-10.4-10.41-10.4-27.33,0-37.74L320.33,90.54l.3-.29.29-.3-.29-.29-.29-.29-.29.3-.3.29L56.22,353.5c-10.72,10.72-10.72,28.17,0,38.89l265.74,265.74.29.29.3.3.29-.29.29-.3-.58-.58Zm155.74-74.15c-5.2-5.2-12.11-8.06-19.45-8.06s-14.26,2.85-19.45,8.06l-4.18,4.18-.3.3-.3.3c.09.11.18.21.25.32.1.11.18.21.25.33l.29-.29s0,0,0,0l4.55-4.55c10.4-10.4,27.32-10.4,37.73,0,10.4,10.41,10.4,27.33,0,37.74l-114.95,114.95c-10.4,10.4-27.33,10.4-37.73,0l-1.89-1.89-.29-.29h0l-.29-.3-.29.3-.3.29.3.29h0s2.18,2.19,2.18,2.19c5.36,5.36,12.4,8.04,19.45,8.04s14.08-2.68,19.45-8.04l114.95-114.96c10.72-10.72,10.72-28.17,0-38.89Zm0-459.79L363.33,8.65c-10.73-10.73-28.18-10.73-38.9,0l-4.09,4.09-.29.3-.3.29.29.29.29.29.3-.29.29-.3,4.1-4.09c5.2-5.2,12.03-7.8,18.87-7.8s13.67,2.6,18.87,7.8l114.95,114.95c10.4,10.41,10.4,27.33,0,37.74-5.04,5.04-11.74,7.81-18.87,7.81s-13.83-2.77-18.87-7.81l-3.06-3.06c-.08.12-.15.24-.23.35-.07.11-.14.24-.22.35l.3.3.3.3,2.33,2.33c5.19,5.2,12.1,8.06,19.45,8.06s14.25-2.85,19.45-8.06c10.72-10.72,10.72-28.17,0-38.89Zm-157.94-34.22l-.29.3.28.29h0l.29-.3-.29-.29Zm2.2,644.8l-.29.3.29.29.29-.29-.29-.3Z"/>
    <g>
      <path class="cls-23" d="m444.83,442.3c8.23,8.23,8.23,21.57,0,29.79l-96.6,96.6c-8.23,8.23-21.57,8.23-29.79,0l-6.44-6.44,87.94-87.95c8.23-8.23,8.23-21.57,0-29.79l-54.47-54.47c-8.23-8.23-8.23-21.57,0-29.79l54.47-54.47c8.23-8.23,8.23-21.57,0-29.79l-90.15-90.15,8.65-8.65c8.23-8.23,21.57-8.23,29.79,0l96.6,96.6c8.23,8.23,8.23,21.57,0,29.79l-54.47,54.47c-8.23,8.23-8.23,21.57,0,29.79l54.47,54.47Z"/>
      <path class="cls-23" d="m298.6,393.25v107.7c0,20.42-27.94,30.64-44.27,16.21-1.26-1.12-2.38-2.33-3.34-3.63,1.73-3.03,2.72-6.52,2.72-10.38V247.13c0-4.82-1.56-9.08-4.16-12.58,1.21-2.13,2.82-4.1,4.77-5.82,5.28-4.67,11.78-6.76,18.15-6.76,13.34,0,26.13,9.15,26.13,22.96v148.32Z"/>
      <g>
        <path class="cls-8" d="m435.4,588.53s0,0,0,0h0s0-.02-.02-.02c0-.02,0-.03-.03-.04-.04-.06-.08-.12-.14-.18-.02-.02-.03-.06-.06-.08-.08-.11-.17-.21-.25-.32l-.3.3c.09.11.18.21.25.32.1.11.18.21.25.33,8.03,10.45,7.26,25.53-2.31,35.09l-110.27,110.27-.29.3-.3.29.3.29.29-.29.29-.29h0l110.26-110.27c9.74-9.74,10.52-25.05,2.31-35.67Zm-2.31-462.44L320.05,13.04l-.3.29.29.29.29.29,112.48,112.48c8.79,8.79,10.16,22.25,4.09,32.48-.08.12-.15.24-.23.35-.07.11-.14.24-.22.35l.3.3c.09-.11.16-.23.22-.35.09-.11.16-.23.23-.35,6.23-10.4,4.86-24.1-4.1-33.07Zm-110.27,531.75l-.29.3-4.39,4.39c-10.58,10.57-27.73,10.57-38.32,0L11.62,394.3c-10.58-10.57-10.58-27.73,0-38.32l210.74-210.73,38.32-38.32,19.15-19.16c10.58-10.57,27.73-10.57,38.32,0l1.9,1.9.28.29h0l.29.29.29-.3-.29-.29-2.18-2.18c-10.73-10.72-28.18-10.72-38.9,0L11.33,355.7c-10.72,10.72-10.72,28.18,0,38.9l268.21,268.21c5.19,5.19,12.1,8.06,19.45,8.06s14.25-2.86,19.45-8.06l4.1-4.09.29-.29.29-.3-.3-.3Z"/>
        <path class="cls-8" d="m322.82,657.84l-.29.3.3.3.29-.3-.3-.3Zm0,0l-.29.3-.29.29.3.3.29-.29.29-.3-.3-.3Zm0,0l-.29.3-.29.29.3.3.29-.29.29-.3-.3-.3Zm-.29.3l-.29.29.3.3.29-.29-.3-.3ZM433.39,125.8L320.91,13.32l-.29-.29-.29-.29-.29.3-.3.29.29.29.29.29,112.48,112.48c8.79,8.79,10.16,22.25,4.09,32.48-.08.12-.15.24-.23.35-.07.11-.14.24-.22.35l.3.3.3.3c.08-.11.16-.23.22-.35.08-.11.16-.24.22-.36,6.37-10.57,5-24.54-4.1-33.65Zm2.31,462.43c-.08-.11-.16-.22-.25-.33-.08-.11-.17-.21-.25-.32l-.3.3-.3.3c.09.11.18.21.25.32.1.11.18.21.25.33,8.03,10.45,7.26,25.53-2.31,35.09l-110.27,110.27-.29.3-.3.29.3.29h0s.29.3.29.3l.3-.29.29-.3,110.27-110.27c9.88-9.88,10.66-25.49,2.31-36.27Zm-113.17,69.32l-.29.3-.29.29-4.1,4.09c-5.04,5.04-11.74,7.82-18.87,7.82s-13.83-2.77-18.87-7.82L11.91,394.01c-10.4-10.4-10.4-27.33,0-37.73L280.13,88.07c10.4-10.41,27.33-10.41,37.73,0l2.47,2.47.3-.29.29-.3-.29-.29-2.18-2.18c-10.73-10.72-28.18-10.72-38.9,0L11.33,355.7c-10.72,10.72-10.72,28.18,0,38.9l268.21,268.21c5.19,5.19,12.1,8.06,19.45,8.06s14.25-2.86,19.45-8.06l4.1-4.09.29-.29.29-.3-.58-.58Zm0,.58l-.29.29.3.3.29-.29-.3-.3Z"/>
      </g>
    </g>
  </g>
  <g>
    <path class="cls-20" d="m476.44,162c-5.29,5.29-12.22,7.93-19.15,7.93s-13.87-2.64-19.16-7.93l-2.4-2.4-.6-.6c.08-.11.15-.23.23-.35,6.06-10.23,4.7-23.68-4.09-32.48L318.79,13.7l-.29-.29.3-.29.29-.3,4.09-4.09c10.58-10.58,27.73-10.58,38.32,0l95.79,95.79,19.15,19.15c10.58,10.58,10.58,27.73,0,38.32Z"/>
    <path class="cls-20" d="m321,658.51l-4.1,4.09c-5.2,5.19-12.11,8.06-19.45,8.06s-14.26-2.86-19.45-8.06L9.79,394.39c-10.72-10.72-10.72-28.18,0-38.9L278,87.28c10.72-10.72,28.17-10.72,38.9,0l2.18,2.18-.29.3h0l-.29.29-14.48,14.49-38.32,38.32L54.96,353.58c-10.58,10.58-10.58,27.73,0,38.32l266.33,266.33-.29.29Z"/>
    <path class="cls-20" d="m476.44,621.8l-114.95,114.95c-10.58,10.58-27.73,10.58-38.32,0l-1.89-1.89-.3-.3-.29-.29.29-.3,110.27-110.27c9.56-9.56,10.34-24.64,2.31-35.09-.07-.11-.16-.22-.25-.33l.3-.3,4.51-4.51c10.58-10.58,27.73-10.58,38.32,0,10.58,10.58,10.58,27.73,0,38.32Z"/>
    <path class="cls-20" d="m433.86,588.31s0,0-.02-.02c0-.02,0-.03-.03-.04-.04-.06-.08-.12-.14-.18-.02-.02-.03-.06-.06-.08l-.3.3c.1.11.18.21.25.33l.29-.29s0,0,0,0h0Zm0,0s0,0-.02-.02c0-.02,0-.03-.03-.04-.04-.06-.08-.12-.14-.18-.02-.02-.03-.06-.06-.08l-.3.3c.1.11.18.21.25.33l.29-.29s0,0,0,0h0Zm0,0s0,0-.02-.02c0-.02,0-.03-.03-.04-.04-.06-.08-.12-.14-.18-.02-.02-.03-.06-.06-.08l-.3.3c.1.11.18.21.25.33l.29-.29s0,0,0,0h0Zm-112.86,69.62l-.29.29.3.3.29-.29-.3-.3Zm0,76.05l-.29.3.29.29.29-.29-.29-.3Zm-2.2-644.8l-.29.3.28.29h0l.29-.3-.29-.29Zm2.2,644.8l-.29.3.29.29.29-.29-.29-.3Zm-2.2-644.8l-.29.3.28.29h0l.29-.3-.29-.29Zm2.2,568.17L55.25,391.61c-10.4-10.41-10.4-27.33,0-37.74L318.79,90.33l.3-.29.29-.3-.29-.29-.29-.29-.29.3-.3.29L54.68,353.3c-10.72,10.72-10.72,28.17,0,38.89l265.74,265.74.29.29.3.3.29-.29.29-.3-.58-.58Zm155.74-74.15c-5.2-5.2-12.11-8.06-19.45-8.06s-14.26,2.85-19.45,8.06l-4.18,4.18-.3.3-.3.3c.09.11.18.21.25.32.1.11.18.21.25.33l.29-.29s0,0,0,0l4.55-4.55c10.4-10.4,27.32-10.4,37.73,0,10.4,10.41,10.4,27.33,0,37.74l-114.95,114.95c-10.4,10.4-27.33,10.4-37.73,0l-1.89-1.89-.29-.29h0l-.29-.3-.29.3-.3.29.3.29h0s2.18,2.19,2.18,2.19c5.36,5.36,12.4,8.04,19.45,8.04s14.08-2.68,19.45-8.04l114.95-114.96c10.72-10.72,10.72-28.17,0-38.89Zm0-459.79L361.79,8.45c-10.73-10.73-28.18-10.73-38.9,0l-4.09,4.09-.29.3-.3.29.29.29.29.29.3-.29.29-.3,4.1-4.09c5.2-5.2,12.03-7.8,18.87-7.8s13.67,2.6,18.87,7.8l114.95,114.95c10.4,10.41,10.4,27.33,0,37.74-5.04,5.04-11.74,7.81-18.87,7.81s-13.83-2.77-18.87-7.81l-3.06-3.06c-.08.12-.15.24-.23.35-.07.11-.14.24-.22.35l.3.3.3.3,2.33,2.33c5.19,5.2,12.1,8.06,19.45,8.06s14.25-2.85,19.45-8.06c10.72-10.72,10.72-28.17,0-38.89Zm-157.94-34.22l-.29.3.28.29h0l.29-.3-.29-.29Zm2.2,644.8l-.29.3.29.29.29-.29-.29-.3Z"/>
    <g>
      <path class="cls-20" d="m443.28,442.1c8.23,8.23,8.23,21.57,0,29.79l-96.6,96.6c-8.23,8.23-21.57,8.23-29.79,0l-6.44-6.44,87.94-87.95c8.23-8.23,8.23-21.57,0-29.79l-54.47-54.47c-8.23-8.23-8.23-21.57,0-29.79l54.47-54.47c8.23-8.23,8.23-21.57,0-29.79l-90.15-90.15,8.65-8.65c8.23-8.23,21.57-8.23,29.79,0l96.6,96.6c8.23,8.23,8.23,21.57,0,29.79l-54.47,54.47c-8.23,8.23-8.23,21.57,0,29.79l54.47,54.47Z"/>
      <path class="cls-20" d="m297.05,393.05v107.7c0,20.42-27.94,30.64-44.27,16.21-1.26-1.12-2.38-2.33-3.34-3.63,1.73-3.03,2.72-6.52,2.72-10.38V246.93c0-4.82-1.56-9.08-4.16-12.58,1.21-2.13,2.82-4.1,4.77-5.82,5.28-4.67,11.78-6.76,18.15-6.76,13.34,0,26.13,9.15,26.13,22.96v148.32Z"/>
      <g>
        <path class="cls-7" d="m433.86,588.33s0,0,0,0h0s0-.02-.02-.02c0-.02,0-.03-.03-.04-.04-.06-.08-.12-.14-.18-.02-.02-.03-.06-.06-.08-.08-.11-.17-.21-.25-.32l-.3.3c.09.11.18.21.25.32.1.11.18.21.25.33,8.03,10.45,7.26,25.53-2.31,35.09l-110.27,110.27-.29.3-.3.29.3.29.29-.29.29-.29h0l110.26-110.27c9.74-9.74,10.52-25.05,2.31-35.67Zm-2.31-462.44L318.51,12.84l-.3.29.29.29.29.29,112.48,112.48c8.79,8.79,10.16,22.25,4.09,32.48-.08.12-.15.24-.23.35-.07.11-.14.24-.22.35l.3.3c.09-.11.16-.23.22-.35.09-.11.16-.23.23-.35,6.23-10.4,4.86-24.1-4.1-33.07Zm-110.27,531.75l-.29.3-4.39,4.39c-10.58,10.57-27.73,10.57-38.32,0L10.08,394.1c-10.58-10.57-10.58-27.73,0-38.32l210.74-210.73,38.32-38.32,19.15-19.16c10.58-10.57,27.73-10.57,38.32,0l1.9,1.9.28.29h0l.29.29.29-.3-.29-.29-2.18-2.18c-10.73-10.72-28.18-10.72-38.9,0L9.79,355.5c-10.72,10.72-10.72,28.18,0,38.9l268.21,268.21c5.19,5.19,12.1,8.06,19.45,8.06s14.25-2.86,19.45-8.06l4.1-4.09.29-.29.29-.3-.3-.3Z"/>
        <path class="cls-7" d="m321.28,657.64l-.29.3.3.3.29-.3-.3-.3Zm0,0l-.29.3-.29.29.3.3.29-.29.29-.3-.3-.3Zm0,0l-.29.3-.29.29.3.3.29-.29.29-.3-.3-.3Zm-.29.3l-.29.29.3.3.29-.29-.3-.3ZM431.85,125.6L319.37,13.12l-.29-.29-.29-.29-.29.3-.3.29.29.29.29.29,112.48,112.48c8.79,8.79,10.16,22.25,4.09,32.48-.08.12-.15.24-.23.35-.07.11-.14.24-.22.35l.3.3.3.3c.08-.11.16-.23.22-.35.08-.11.16-.24.22-.36,6.37-10.57,5-24.54-4.1-33.65Zm2.31,462.43c-.08-.11-.16-.22-.25-.33-.08-.11-.17-.21-.25-.32l-.3.3-.3.3c.09.11.18.21.25.32.1.11.18.21.25.33,8.03,10.45,7.26,25.53-2.31,35.09l-110.27,110.27-.29.3-.3.29.3.29h0s.29.3.29.3l.3-.29.29-.3,110.27-110.27c9.88-9.88,10.66-25.49,2.31-36.27Zm-113.17,69.32l-.29.3-.29.29-4.1,4.09c-5.04,5.04-11.74,7.82-18.87,7.82s-13.83-2.77-18.87-7.82L10.36,393.81c-10.4-10.4-10.4-27.33,0-37.73L278.58,87.87c10.4-10.41,27.33-10.41,37.73,0l2.47,2.47.3-.29.29-.3-.29-.29-2.18-2.18c-10.73-10.72-28.18-10.72-38.9,0L9.79,355.5c-10.72,10.72-10.72,28.18,0,38.9l268.21,268.21c5.19,5.19,12.1,8.06,19.45,8.06s14.25-2.86,19.45-8.06l4.1-4.09.29-.29.29-.3-.58-.58Zm0,.58l-.29.29.3.3.29-.29-.3-.3Z"/>
      </g>
    </g>
  </g>
  <g>
    <path class="cls-17" d="m474.9,161.8c-5.29,5.29-12.22,7.93-19.15,7.93s-13.87-2.64-19.16-7.93l-2.4-2.4-.6-.6c.08-.11.15-.23.23-.35,6.06-10.23,4.7-23.68-4.09-32.48L317.24,13.5l-.29-.29.3-.29.29-.3,4.09-4.09c10.58-10.58,27.73-10.58,38.32,0l95.79,95.79,19.15,19.15c10.58,10.58,10.58,27.73,0,38.32Z"/>
    <path class="cls-17" d="m319.46,658.31l-4.1,4.09c-5.2,5.19-12.11,8.06-19.45,8.06s-14.26-2.86-19.45-8.06L8.25,394.19c-10.72-10.72-10.72-28.18,0-38.9L276.46,87.08c10.72-10.72,28.17-10.72,38.9,0l2.18,2.18-.29.3h0l-.29.29-14.48,14.49-38.32,38.32L53.42,353.38c-10.58,10.58-10.58,27.73,0,38.32l266.33,266.33-.29.29Z"/>
    <path class="cls-17" d="m474.9,621.6l-114.95,114.95c-10.58,10.58-27.73,10.58-38.32,0l-1.89-1.89-.3-.3-.29-.29.29-.3,110.27-110.27c9.56-9.56,10.34-24.64,2.31-35.09-.07-.11-.16-.22-.25-.33l.3-.3,4.51-4.51c10.58-10.58,27.73-10.58,38.32,0,10.58,10.58,10.58,27.73,0,38.32Z"/>
    <path class="cls-17" d="m432.32,588.11s0,0-.02-.02c0-.02,0-.03-.03-.04-.04-.06-.08-.12-.14-.18-.02-.02-.03-.06-.06-.08l-.3.3c.1.11.18.21.25.33l.29-.29s0,0,0,0h0Zm0,0s0,0-.02-.02c0-.02,0-.03-.03-.04-.04-.06-.08-.12-.14-.18-.02-.02-.03-.06-.06-.08l-.3.3c.1.11.18.21.25.33l.29-.29s0,0,0,0h0Zm0,0s0,0-.02-.02c0-.02,0-.03-.03-.04-.04-.06-.08-.12-.14-.18-.02-.02-.03-.06-.06-.08l-.3.3c.1.11.18.21.25.33l.29-.29s0,0,0,0h0Zm-112.86,69.62l-.29.29.3.3.29-.29-.3-.3Zm0,76.05l-.29.3.29.29.29-.29-.29-.3Zm-2.2-644.8l-.29.3.28.29h0l.29-.3-.29-.29Zm2.2,644.8l-.29.3.29.29.29-.29-.29-.3Zm-2.2-644.8l-.29.3.28.29h0l.29-.3-.29-.29Zm2.2,568.17L53.71,391.41c-10.4-10.41-10.4-27.33,0-37.74L317.24,90.13l.3-.29.29-.3-.29-.29-.29-.29-.29.3-.3.29L53.13,353.1c-10.72,10.72-10.72,28.17,0,38.89l265.74,265.74.29.29.3.3.29-.29.29-.3-.58-.58Zm155.74-74.15c-5.2-5.2-12.11-8.06-19.45-8.06s-14.26,2.85-19.45,8.06l-4.18,4.18-.3.3-.3.3c.09.11.18.21.25.32.1.11.18.21.25.33l.29-.29s0,0,0,0l4.55-4.55c10.4-10.4,27.32-10.4,37.73,0,10.4,10.41,10.4,27.33,0,37.74l-114.95,114.95c-10.4,10.4-27.33,10.4-37.73,0l-1.89-1.89-.29-.29h0l-.29-.3-.29.3-.3.29.3.29h0s2.18,2.19,2.18,2.19c5.36,5.36,12.4,8.04,19.45,8.04s14.08-2.68,19.45-8.04l114.95-114.96c10.72-10.72,10.72-28.17,0-38.89Zm0-459.79L360.24,8.25c-10.73-10.73-28.18-10.73-38.9,0l-4.09,4.09-.29.3-.3.29.29.29.29.29.3-.29.29-.3,4.1-4.09c5.2-5.2,12.03-7.8,18.87-7.8s13.67,2.6,18.87,7.8l114.95,114.95c10.4,10.41,10.4,27.33,0,37.74-5.04,5.04-11.74,7.81-18.87,7.81s-13.83-2.77-18.87-7.81l-3.06-3.06c-.08.12-.15.24-.23.35-.07.11-.14.24-.22.35l.3.3.3.3,2.33,2.33c5.19,5.2,12.1,8.06,19.45,8.06s14.25-2.85,19.45-8.06c10.72-10.72,10.72-28.17,0-38.89Zm-157.94-34.22l-.29.3.28.29h0l.29-.3-.29-.29Zm2.2,644.8l-.29.3.29.29.29-.29-.29-.3Z"/>
    <g>
      <path class="cls-17" d="m441.74,441.9c8.23,8.23,8.23,21.57,0,29.79l-96.6,96.6c-8.23,8.23-21.57,8.23-29.79,0l-6.44-6.44,87.94-87.95c8.23-8.23,8.23-21.57,0-29.79l-54.47-54.47c-8.23-8.23-8.23-21.57,0-29.79l54.47-54.47c8.23-8.23,8.23-21.57,0-29.79l-90.15-90.15,8.65-8.65c8.23-8.23,21.57-8.23,29.79,0l96.6,96.6c8.23,8.23,8.23,21.57,0,29.79l-54.47,54.47c-8.23,8.23-8.23,21.57,0,29.79l54.47,54.47Z"/>
      <path class="cls-17" d="m295.51,392.85v107.7c0,20.42-27.94,30.64-44.27,16.21-1.26-1.12-2.38-2.33-3.34-3.63,1.73-3.03,2.72-6.52,2.72-10.38V246.73c0-4.82-1.56-9.08-4.16-12.58,1.21-2.13,2.82-4.1,4.77-5.82,5.28-4.67,11.78-6.76,18.15-6.76,13.34,0,26.13,9.15,26.13,22.96v148.32Z"/>
      <g>
        <path class="cls-9" d="m432.32,588.13s0,0,0,0h0s0-.02-.02-.02c0-.02,0-.03-.03-.04-.04-.06-.08-.12-.14-.18-.02-.02-.03-.06-.06-.08-.08-.11-.17-.21-.25-.32l-.3.3c.09.11.18.21.25.32.1.11.18.21.25.33,8.03,10.45,7.26,25.53-2.31,35.09l-110.27,110.27-.29.3-.3.29.3.29.29-.29.29-.29h0l110.26-110.27c9.74-9.74,10.52-25.05,2.31-35.67Zm-2.31-462.44L316.96,12.64l-.3.29.29.29.29.29,112.48,112.48c8.79,8.79,10.16,22.25,4.09,32.48-.08.12-.15.24-.23.35-.07.11-.14.24-.22.35l.3.3c.09-.11.16-.23.22-.35.09-.11.16-.23.23-.35,6.23-10.4,4.86-24.1-4.1-33.07Zm-110.27,531.75l-.29.3-4.39,4.39c-10.58,10.57-27.73,10.57-38.32,0L8.53,393.9c-10.58-10.57-10.58-27.73,0-38.32l210.74-210.73,38.32-38.32,19.15-19.16c10.58-10.57,27.73-10.57,38.32,0l1.9,1.9.28.29h0l.29.29.29-.3-.29-.29-2.18-2.18c-10.73-10.72-28.18-10.72-38.9,0L8.25,355.3c-10.72,10.72-10.72,28.18,0,38.9l268.21,268.21c5.19,5.19,12.1,8.06,19.45,8.06s14.25-2.86,19.45-8.06l4.1-4.09.29-.29.29-.3-.3-.3Z"/>
        <path class="cls-9" d="m319.74,657.44l-.29.3.3.3.29-.3-.3-.3Zm0,0l-.29.3-.29.29.3.3.29-.29.29-.3-.3-.3Zm0,0l-.29.3-.29.29.3.3.29-.29.29-.3-.3-.3Zm-.29.3l-.29.29.3.3.29-.29-.3-.3ZM430.31,125.4L317.83,12.92l-.29-.29-.29-.29-.29.3-.3.29.29.29.29.29,112.48,112.48c8.79,8.79,10.16,22.25,4.09,32.48-.08.12-.15.24-.23.35-.07.11-.14.24-.22.35l.3.3.3.3c.08-.11.16-.23.22-.35.08-.11.16-.24.22-.36,6.37-10.57,5-24.54-4.1-33.65Zm2.31,462.43c-.08-.11-.16-.22-.25-.33-.08-.11-.17-.21-.25-.32l-.3.3-.3.3c.09.11.18.21.25.32.1.11.18.21.25.33,8.03,10.45,7.26,25.53-2.31,35.09l-110.27,110.27-.29.3-.3.29.3.29h0s.29.3.29.3l.3-.29.29-.3,110.27-110.27c9.88-9.88,10.66-25.49,2.31-36.27Zm-113.17,69.32l-.29.3-.29.29-4.1,4.09c-5.04,5.04-11.74,7.82-18.87,7.82s-13.83-2.77-18.87-7.82L8.82,393.61c-10.4-10.4-10.4-27.33,0-37.73L277.04,87.66c10.4-10.41,27.33-10.41,37.73,0l2.47,2.47.3-.29.29-.3-.29-.29-2.18-2.18c-10.73-10.72-28.18-10.72-38.9,0L8.25,355.3c-10.72,10.72-10.72,28.18,0,38.9l268.21,268.21c5.19,5.19,12.1,8.06,19.45,8.06s14.25-2.86,19.45-8.06l4.1-4.09.29-.29.29-.3-.58-.58Zm0,.58l-.29.29.3.3.29-.29-.3-.3Z"/>
      </g>
    </g>
  </g>
</svg>